<?xml version="1.0" standalone="no"?>
<!DOCTYPE svg PUBLIC "-//W3C//DTD SVG 1.1//EN" "http://www.w3.org/Graphics/SVG/1.1/DTD/svg11.dtd" >
<svg xmlns="http://www.w3.org/2000/svg" xmlns:xlink="http://www.w3.org/1999/xlink" version="1.1">
<metadata>
Created by FontForge 20201107 at Wed Nov  5 12:41:17 2025
 By 
(c) 2014 Adobe Systems Incorporated. All Rights Reserved.
</metadata>
<defs>
<font id="AcuminProExtraCond-Black" horiz-adv-x="786" >
  <font-face 
    font-family="Acumin Pro ExtraCondensed Black"
    font-weight="900"
    font-stretch="extra-condensed"
    units-per-em="2048"
    panose-1="2 11 9 8 2 2 2 2 2 4"
    ascent="1505"
    descent="-543"
    x-height="1079"
    cap-height="1366"
    bbox="-311 -537 1610 1946"
    underline-thickness="102"
    underline-position="-204"
    unicode-range="U+0020-FB02"
  />
<missing-glyph horiz-adv-x="1024" 
d="M0 0v1434h1024v-1434h-1024zM512 809l348 522h-696zM573 717l349 -522v1044zM164 102h696l-348 523zM102 1239v-1044l349 522z" />
    <glyph glyph-name="f_f" unicode="ff" horiz-adv-x="946" 
d="M369 0h-263v846h-98v233h98v70q0 66 12 115.5t40.5 91t82.5 63t132 21.5q56 0 98 -10v-216q-21 3 -33 3q-40 0 -54.5 -18.5t-14.5 -61.5v-58h186v62q0 66 12 116.5t40 93.5t82 66t132 23q61 0 103 -10v-216q-24 3 -37 3q-70 0 -70 -84v-54h119v-233h-119v-846h-262v846
h-186v-846z" />
    <glyph glyph-name=".notdef" horiz-adv-x="1024" 
d="M0 0v1434h1024v-1434h-1024zM512 809l348 522h-696zM573 717l349 -522v1044zM164 102h696l-348 523zM102 1239v-1044l349 522z" />
    <glyph glyph-name=".null" horiz-adv-x="0" 
 />
    <glyph glyph-name="nonmarkingreturn" horiz-adv-x="682" 
 />
    <glyph glyph-name="space" unicode=" " horiz-adv-x="262" 
 />
    <glyph glyph-name="exclam" unicode="!" horiz-adv-x="487" 
d="M387 500h-237l-25 645v221h287v-215zM399 0h-260v322h260v-322z" />
    <glyph glyph-name="quotedbl" unicode="&#x22;" horiz-adv-x="593" 
d="M242 922h-181l-12 317v188h211v-188zM526 922h-180l-12 317v188h211v-188z" />
    <glyph glyph-name="numbersign" unicode="#" horiz-adv-x="843" 
d="M379 0l55 373h-119l-55 -373h-168l55 373h-98v211h129l31 204h-111v209h142l49 332h168l-49 -332h118l49 332h168l-49 -332h97v-209h-127l-29 -204h106v-211h-137l-55 -373h-170zM465 584l31 204h-119l-31 -204h119z" />
    <glyph glyph-name="dollar" unicode="$" horiz-adv-x="759" 
d="M467 -133h-191v137q-58 10 -101.5 33t-70 54.5t-43 74.5t-22.5 86t-6 96v31h246v-51q0 -60 18.5 -92.5t69.5 -32.5q47 0 66.5 30.5t19.5 90.5q0 76 -30 127t-114 106q-70 47 -114 85.5t-80.5 88t-53 110t-16.5 138.5q0 298 231 340v108h191v-108q68 -13 114 -43t68 -76
t30.5 -92.5t8.5 -108.5v-30h-242v32q0 62 -17.5 93.5t-59.5 31.5q-76 0 -76 -114q2 -64 30 -106t109 -97q75 -49 119.5 -86.5t83.5 -88.5t55.5 -114.5t16.5 -148.5q0 -158 -56 -249t-184 -116v-139z" />
    <glyph glyph-name="percent" unicode="%" horiz-adv-x="1144" 
d="M285 1348q110 0 169.5 -67.5t59.5 -182.5v-211q0 -128 -59 -194t-172 -66q-229 0 -232 250v223q0 120 60 184t174 64zM285 1194q-60 0 -60 -84v-240q0 -86 58 -86q55 0 55 88v240q0 82 -53 82zM319 0h-122l622 1329h125zM864 705q111 0 170.5 -66t59.5 -184v-211
q0 -128 -59.5 -194t-172.5 -66q-228 0 -231 249v224q0 118 60 183t173 65zM864 551q-59 0 -59 -84v-240q0 -84 57 -84q31 0 43.5 22t12.5 66v240q0 80 -54 80z" />
    <glyph glyph-name="ampersand" unicode="&#x26;" horiz-adv-x="989" 
d="M360 1073q0 -67 9 -107.5t39 -91.5q44 42 59.5 84t15.5 115q0 56 -13.5 82.5t-47.5 26.5q-62 0 -62 -109zM403 221q33 0 55.5 16.5t43.5 53.5l-170 258q-35 -55 -35 -154q0 -174 106 -174zM733 821h238l-215 -485l215 -336h-279l-69 104q-53 -64 -115.5 -92t-145.5 -28
q-156 0 -236.5 99t-80.5 282q0 127 37.5 202.5t134.5 157.5q-53 86 -70.5 151.5t-17.5 172.5q0 156 71.5 245.5t217.5 89.5q148 0 217.5 -83t69.5 -232q0 -126 -38.5 -197.5t-152.5 -160.5l102 -162z" />
    <glyph glyph-name="quotesingle" unicode="'" horiz-adv-x="321" 
d="M256 922h-195l-12 325v180h225v-180z" />
    <glyph glyph-name="parenleft" unicode="(" horiz-adv-x="565" 
d="M299 1444h240q-217 -372 -217 -811t217 -834h-240q-95 159 -155 372.5t-60 463.5q0 450 215 809z" />
    <glyph glyph-name="parenright" unicode=")" horiz-adv-x="565" 
d="M266 -199h-239q217 372 217 811t-217 834h239q95 -159 155 -372.5t60 -463.5q0 -450 -215 -809z" />
    <glyph glyph-name="asterisk" unicode="*" horiz-adv-x="667" 
d="M242 1352h180l-31 -224l162 136l94 -150l-196 -82l190 -74l-92 -149l-158 135l33 -227h-180l32 227l-165 -135l-91 154l189 67l-184 80l92 154l157 -136z" />
    <glyph glyph-name="plus" unicode="+" horiz-adv-x="1007" 
d="M403 934h203v-334h318v-199h-318v-335h-203v335h-319v199h319v334z" />
    <glyph glyph-name="comma" unicode="," horiz-adv-x="415" 
d="M203 -186h-193q53 133 79 277t28 241h243q-4 -131 -50 -280t-107 -238z" />
    <glyph glyph-name="hyphen" unicode="-" horiz-adv-x="477" 
d="M45 657h387v-223h-387v223z" />
    <glyph glyph-name="period" unicode="." horiz-adv-x="395" 
d="M328 0h-260v332h260v-332z" />
    <glyph glyph-name="slash" unicode="/" horiz-adv-x="559" 
d="M229 -61h-192l295 1427h190z" />
    <glyph glyph-name="zero" unicode="0" 
d="M395 1348q164 0 250 -94.5t86 -266.5v-631q0 -374 -346 -374q-330 0 -330 374v619q0 180 87.5 276.5t252.5 96.5zM393 1124q-80 0 -80 -116v-682q0 -61 18.5 -91t61.5 -30q78 0 78 125v682q0 112 -78 112z" />
    <glyph glyph-name="one" unicode="1" horiz-adv-x="483" 
d="M391 0h-262v1049q-15 0 -115 8v188q119 11 181 90h196v-1335z" />
    <glyph glyph-name="two" unicode="2" horiz-adv-x="720" 
d="M659 0h-628v31q0 94 15.5 175.5t49.5 157t67.5 132.5t88.5 137q96 139 116 178q39 82 40 184q0 78 -14 110t-56 32q-39 0 -56.5 -32t-17.5 -101v-78h-235v71q0 351 321 351q89 0 152 -26.5t98 -76t50.5 -111t15.5 -141.5q0 -61 -10 -114.5t-21 -89t-43 -89.5t-51 -81.5
t-70 -98.5q-140 -186 -152 -297h371z" />
    <glyph glyph-name="three" unicode="3" horiz-adv-x="761" 
d="M291 963h-232v59q0 326 314 326q160 0 235.5 -83.5t75.5 -236.5v-49q0 -202 -137 -256v-4q164 -59 164 -264v-107q0 -177 -79 -270.5t-261 -93.5q-326 0 -326 329v52h240v-56q0 -119 84 -119q82 0 82 127v138q0 82 -30 115.5t-106 33.5h-71v215h75q64 0 89.5 28.5
t25.5 104.5v78q0 55 -14 85t-55 30q-74 0 -74 -109v-73z" />
    <glyph glyph-name="four" unicode="4" horiz-adv-x="745" 
d="M641 0h-242v307h-366v201l241 821h367v-811h88l-18 -211h-70v-307zM266 518h133v152q0 84 5 240t6 192h-7q-105 -458 -137 -584z" />
    <glyph glyph-name="five" unicode="5" horiz-adv-x="772" 
d="M696 1329l-24 -227h-324q-12 -187 -20 -266q21 28 64.5 43.5t94.5 15.5q126 0 183 -86t57 -250v-162q0 -91 -15.5 -161t-52 -128.5t-106 -90t-168.5 -31.5q-336 0 -336 348v39h254v-68q0 -115 76 -115q46 0 63 35.5t17 124.5v191q0 76 -17 106.5t-61 30.5
q-41 0 -59.5 -27t-24.5 -94l-234 21q30 339 56 751h577z" />
    <glyph glyph-name="six" unicode="6" horiz-adv-x="778" 
d="M711 1001h-244v23q0 113 -74 113q-45 0 -62.5 -35t-17.5 -115v-182q62 86 183 86q122 0 178.5 -85.5t56.5 -227.5v-228q0 -366 -340 -366q-336 0 -336 370v586q0 90 15.5 159.5t52.5 128t105 89.5t165 31q318 0 318 -334v-13zM393 190q78 0 78 125v230q0 63 -17 93
t-61 30q-42 0 -61 -28.5t-19 -96.5v-228q0 -61 17 -93t63 -32z" />
    <glyph glyph-name="seven" unicode="7" horiz-adv-x="653" 
d="M4 1329h627v-203q-237 -454 -305 -1126h-271q28 300 117 599t201 503h-369v227z" />
    <glyph glyph-name="eight" unicode="8" horiz-adv-x="782" 
d="M385 -18q-334 0 -334 344v116q0 57 10.5 101t31.5 74.5t42.5 50.5t52.5 39q-61 39 -90.5 97t-29.5 167v51q0 159 84.5 241.5t240.5 82.5q148 0 233 -81.5t85 -246.5v-49q0 -114 -29.5 -170t-87.5 -92q137 -72 137 -265v-102q0 -189 -86 -273.5t-260 -84.5zM389 1133
q-76 0 -76 -105v-108q0 -52 20.5 -79.5t57.5 -27.5q76 0 76 111v106q0 103 -78 103zM389 197q41 0 61.5 25.5t20.5 84.5v178q0 111 -82 111q-80 0 -80 -109v-182q0 -108 80 -108z" />
    <glyph glyph-name="nine" unicode="9" horiz-adv-x="772" 
d="M57 324h254v-27q0 -104 74 -104q42 0 58 41t16 137v194q-53 -73 -170 -73q-122 0 -182 83.5t-60 231.5v197q0 160 86 252t246 92q166 0 252 -91t86 -264v-571q0 -75 -7 -134t-28.5 -119t-58 -99t-98 -63.5t-144.5 -24.5q-324 0 -324 329v13zM381 1139q-78 0 -78 -115
v-207q0 -110 78 -110q43 0 60.5 32.5t17.5 104.5v182q0 57 -17.5 85t-60.5 28z" />
    <glyph glyph-name="colon" unicode=":" horiz-adv-x="491" 
d="M371 678h-250v323h250v-323zM371 0h-250v324h250v-324z" />
    <glyph glyph-name="semicolon" unicode=";" horiz-adv-x="512" 
d="M391 678h-250v323h250v-323zM231 -186h-192q98 272 104 518h246q-6 -134 -52 -279t-106 -239z" />
    <glyph glyph-name="less" unicode="&#x3c;" horiz-adv-x="798" 
d="M84 391v215l631 314v-224l-426 -194l426 -199v-225z" />
    <glyph glyph-name="equal" unicode="=" horiz-adv-x="1005" 
d="M84 784h838v-198h-838v198zM84 418h838v-199h-838v199z" />
    <glyph glyph-name="greater" unicode="&#x3e;" horiz-adv-x="798" 
d="M715 608v-215l-631 -313v223l426 195l-426 198v226z" />
    <glyph glyph-name="question" unicode="?" horiz-adv-x="743" 
d="M512 440h-262v52q0 93 24.5 172t85.5 176q44 71 59 117t15 130q0 52 -11.5 73.5t-41.5 21.5q-31 0 -43 -25t-12 -84v-69h-244v63q0 55 7.5 99t28.5 86t55 70t89.5 45t130.5 17q164 0 235.5 -82.5t71.5 -230.5q0 -110 -23 -177t-95 -187q-41 -65 -55.5 -121.5
t-14.5 -120.5v-25zM512 0h-262v336h262v-336z" />
    <glyph glyph-name="at" unicode="@" horiz-adv-x="1306" 
d="M944 -76l49 -151q-135 -101 -362 -101q-131 0 -234 43t-179.5 131t-117.5 231t-41 333v28q0 182 40 334.5t116.5 267t197 178.5t273.5 64q259 0 410 -160.5t151 -472.5v-24q0 -292 -84 -445t-245 -153q-59 0 -109 28.5t-66 98.5q-31 -69 -83 -98t-109 -29
q-96 0 -142.5 71t-33.5 219l22 277q7 79 21.5 138t34 97.5t45.5 62t55 33t65 9.5q55 0 88 -26t42 -60l12 65h203l-66 -583q-14 -111 47 -111q34 0 60 36t41 95t22.5 127.5t7.5 140.5v33q0 128 -25 218.5t-76 145t-122 79t-168 24.5q-150 0 -249 -86.5t-143 -234.5t-44 -355
v-36q0 -562 397 -562q80 0 150 17t149 63zM678 719q-33 0 -50 -34.5t-26 -121.5l-16 -192q-6 -71 5 -97t42 -26q62 0 74 147l20 213q5 57 -6 84t-43 27z" />
    <glyph glyph-name="A" unicode="A" horiz-adv-x="815" 
d="M487 326h-170l-32 -326h-269l193 1366h391l199 -1366h-273zM340 557h125q-6 59 -19 186.5t-23.5 227t-16.5 157.5h-11q-4 -86 -55 -571z" />
    <glyph glyph-name="B" unicode="B" horiz-adv-x="819" 
d="M82 0v1366h324q174 0 259 -76.5t85 -234.5v-54q0 -215 -134 -268q23 -10 40 -20t40.5 -31.5t38.5 -48t26 -70.5t11 -98v-109q0 -182 -83 -269t-267 -87h-340zM336 829h43q67 0 93 28.5t26 105.5v69q0 67 -25.5 97t-87.5 30h-49v-330zM336 627v-422h53q68 0 92.5 32.5
t24.5 112.5v125q0 83 -28 117.5t-105 34.5h-37z" />
    <glyph glyph-name="C" unicode="C" horiz-adv-x="768" 
d="M471 446h266v-73q0 -60 -5.5 -107.5t-26.5 -104t-56.5 -93.5t-101.5 -62.5t-156 -25.5q-172 0 -252 91.5t-80 282.5v670q0 178 86.5 270t251.5 92q84 0 146 -21.5t97.5 -55.5t57 -84.5t28.5 -98.5t7 -108v-86h-264v117q0 59 -16 86.5t-56 27.5q-39 0 -55 -27t-16 -87
v-723q0 -60 15 -91.5t56 -31.5t57.5 31t16.5 98v114z" />
    <glyph glyph-name="D" unicode="D" horiz-adv-x="843" 
d="M82 0v1366h324q207 0 291.5 -96.5t84.5 -313.5v-514q0 -55 -3.5 -99.5t-13.5 -91t-26.5 -82.5t-44 -69t-65 -54t-90 -33.5t-117.5 -12.5h-340zM344 1153v-942h51q73 0 97 42.5t24 131.5v612q0 81 -26 118.5t-97 37.5h-49z" />
    <glyph glyph-name="E" unicode="E" horiz-adv-x="690" 
d="M625 836v-232h-281v-373h330l-31 -231h-563v1366h561v-231h-297v-299h281z" />
    <glyph glyph-name="F" unicode="F" horiz-adv-x="673" 
d="M82 0v1366h567v-231h-305v-312h287v-233h-287v-590h-262z" />
    <glyph glyph-name="G" unicode="G" horiz-adv-x="829" 
d="M758 780v-780h-197q-7 30 -12 100q-57 -120 -217 -120q-77 0 -131.5 27.5t-84.5 79.5t-43.5 118.5t-13.5 154.5v644q0 83 18.5 149.5t58 120t109 83t163.5 29.5q346 0 346 -366v-62h-265v76q0 61 -15.5 94t-65.5 33q-44 0 -63 -32t-19 -101v-700q0 -127 82 -127
q48 0 67 37t19 124v197h-91v221h355z" />
    <glyph glyph-name="H" unicode="H" horiz-adv-x="862" 
d="M82 0v1366h262v-526h172v526h264v-1366h-264v608h-172v-608h-262z" />
    <glyph glyph-name="I" unicode="I" horiz-adv-x="428" 
d="M82 1366h262v-1366h-262v1366z" />
    <glyph glyph-name="J" unicode="J" horiz-adv-x="487" 
d="M418 1366v-1028q0 -70 -5 -117t-22 -96t-48 -77.5t-85.5 -47t-132.5 -18.5q-67 0 -119 10v217q6 0 26.5 -1t33.5 -1q52 0 70 21t18 81v1057h264z" />
    <glyph glyph-name="K" unicode="K" horiz-adv-x="819" 
d="M82 0v1366h254v-594h4q6 18 195 594h290l-229 -528l238 -838h-285l-135 575l-78 -174v-401h-254z" />
    <glyph glyph-name="L" unicode="L" horiz-adv-x="684" 
d="M82 0v1366h262v-1137h332l-25 -229h-569z" />
    <glyph glyph-name="M" unicode="M" horiz-adv-x="1120" 
d="M786 0v436q0 384 7 678h-9q-88 -823 -125 -1114h-223q-83 797 -119 1118h-8q10 -400 10 -692v-426h-237v1366h377q68 -502 92 -786h4q13 114 54.5 403t54.5 383h376v-1366h-254z" />
    <glyph glyph-name="N" unicode="N" horiz-adv-x="872" 
d="M322 0h-240v1366h291l141 -600q26 -108 49 -246h6q-22 286 -22 623v223h244v-1366h-295l-148 680q-6 30 -20 104t-19 97h-6q19 -304 19 -648v-233z" />
    <glyph glyph-name="O" unicode="O" horiz-adv-x="829" 
d="M416 1386q166 0 260 -94.5t94 -290.5v-634q0 -199 -92 -293t-275 -94q-172 0 -258 94t-86 291v643q0 191 95.5 284.5t261.5 93.5zM414 1161q-88 0 -88 -131v-698q0 -129 88 -129q46 0 67 31.5t21 99.5v698q0 67 -20 98t-68 31z" />
    <glyph glyph-name="P" unicode="P" horiz-adv-x="808" 
d="M82 0v1366h350q340 0 340 -360v-84q0 -189 -81.5 -287t-268.5 -98h-78v-537h-262zM344 1159v-409h43q71 0 96 39.5t25 130.5v94q0 72 -23.5 108.5t-85.5 36.5h-55z" />
    <glyph glyph-name="Q" unicode="Q" horiz-adv-x="831" 
d="M416 1386q166 0 260 -94.5t94 -290.5v-634q0 -156 -55 -244l153 -119l-137 -168l-205 156q-56 -12 -123 -12q-172 0 -258 94t-86 291v643q0 191 95.5 284.5t261.5 93.5zM414 1161q-88 0 -88 -131v-698q0 -129 88 -129q46 0 67 31.5t21 99.5v698q0 67 -20 98t-68 31z" />
    <glyph glyph-name="R" unicode="R" horiz-adv-x="813" 
d="M82 0v1366h340q174 0 258 -81t84 -257v-49q0 -70 -12.5 -122.5t-34.5 -83t-42 -47t-46 -28.5q45 -22 70.5 -53t40 -90t14.5 -152q0 -345 8 -403h-254q-3 10 -5 24t-3.5 34t-2.5 37t-1.5 46t-1 48t-0.5 54.5v54.5v59v57q0 115 -22 147.5t-97 32.5h-31v-594h-262zM344 1159
v-358h33q69 0 97 31.5t28 123.5v66q0 74 -23.5 105.5t-93.5 31.5h-41z" />
    <glyph glyph-name="S" unicode="S" horiz-adv-x="755" 
d="M35 422h258v-96q0 -67 19 -99t63 -32q76 0 76 127q0 95 -29 144t-135 138q-68 57 -104 92.5t-70 84.5t-47 104t-13 129q0 375 324 375q79 0 137.5 -21.5t92 -54.5t53.5 -81t26 -91.5t6 -96.5v-77h-248v82q0 64 -14 93t-51 29q-36 0 -51 -29t-15 -89q0 -65 24 -106.5
t105 -104.5q81 -64 128.5 -109.5t82.5 -101t48.5 -116t13.5 -144.5q0 -86 -16.5 -153t-54 -122.5t-106.5 -85.5t-167 -30q-95 0 -162 27t-104 77.5t-53.5 113t-16.5 142.5v82z" />
    <glyph glyph-name="T" unicode="T" horiz-adv-x="684" 
d="M209 0v1135h-199v231h662v-231h-199v-1135h-264z" />
    <glyph glyph-name="U" unicode="U" horiz-adv-x="847" 
d="M76 1366h264v-1040q0 -123 84 -123q82 0 82 123v1040h266v-1024q0 -183 -86 -271.5t-266 -88.5q-178 0 -261 88t-83 276v1020z" />
    <glyph glyph-name="V" unicode="V" horiz-adv-x="780" 
d="M14 1366h281l49 -506q4 -45 16.5 -168.5t19.5 -212t11 -166.5h10q4 76 12.5 167t19 202.5t16.5 175.5l40 508h275l-201 -1366h-342z" />
    <glyph glyph-name="W" unicode="W" horiz-adv-x="1112" 
d="M453 0h-275l-155 1366h278q44 -595 53 -922h8q16 148 48 479.5t43 442.5h225q17 -158 50 -520t36 -397h10q26 561 55 917h261l-175 -1366h-272q-7 59 -21 180.5t-23 200.5t-20.5 192.5t-19.5 212.5h-10q-16 -160 -52 -438.5t-44 -347.5z" />
    <glyph glyph-name="X" unicode="X" horiz-adv-x="724" 
d="M737 0h-280q-2 23 -47.5 231.5t-47.5 239.5h-8q-1 -23 -50 -237t-50 -234h-266l207 682l-199 684h280q1 -15 42 -214.5t42 -217.5h9q1 19 45 218.5t45 213.5h264l-199 -641z" />
    <glyph glyph-name="Y" unicode="Y" horiz-adv-x="743" 
d="M502 0h-262v438q0 28 -11 70l-239 858h286q82 -438 97 -596h8q25 176 102 596h271l-246 -879q-6 -27 -6 -59v-428z" />
    <glyph glyph-name="Z" unicode="Z" horiz-adv-x="696" 
d="M23 0v176l358 957h-324v233h605v-199l-340 -934h352l-31 -233h-620z" />
    <glyph glyph-name="bracketleft" unicode="[" horiz-adv-x="516" 
d="M471 -201h-391v1645h391v-203h-178v-1239h178v-203z" />
    <glyph glyph-name="backslash" unicode="\" horiz-adv-x="555" 
d="M225 1366l295 -1427h-192l-293 1427h190z" />
    <glyph glyph-name="bracketright" unicode="]" horiz-adv-x="516" 
d="M43 1444h391v-1645h-391v203h178v1239h-178v203z" />
    <glyph glyph-name="asciicircum" unicode="^" horiz-adv-x="737" 
d="M717 659h-205q-4 13 -41.5 130.5t-71 226t-37.5 127.5q-3 -16 -33 -124t-63.5 -225t-38.5 -135h-207l224 670h245z" />
    <glyph glyph-name="underscore" unicode="_" horiz-adv-x="1058" 
d="M2 -160h1055v-106h-1055v106z" />
    <glyph glyph-name="grave" unicode="`" horiz-adv-x="819" 
d="M72 1450h288l166 -274h-211z" />
    <glyph glyph-name="a" unicode="a" 
d="M709 805v-559q0 -176 6 -246h-244q-10 29 -16 80q-58 -96 -185 -96q-59 0 -104.5 26t-72 71t-39.5 100.5t-13 119.5v21q0 342 387 342h18v124q0 59 -12 83t-47 24q-33 0 -46 -24.5t-13 -75.5v-25h-254v16q0 149 76 229.5t247 80.5q312 0 312 -291zM449 352v127h-25
q-63 0 -96 -33.5t-33 -113.5v-15q0 -112 76 -112q41 0 59.5 33t18.5 114z" />
    <glyph glyph-name="b" unicode="b" horiz-adv-x="811" 
d="M76 268v1159h264v-438q61 107 190 107q226 0 226 -322v-391q0 -75 -5.5 -131.5t-21.5 -109t-43.5 -85.5t-72.5 -53t-107 -20q-127 0 -178 108q0 -17 -6 -92h-248q2 33 2 268zM494 352v379q0 68 -15 101.5t-59 33.5q-45 0 -62.5 -33.5t-17.5 -107.5v-377
q0 -74 18.5 -105.5t59.5 -31.5q76 0 76 141z" />
    <glyph glyph-name="c" unicode="c" horiz-adv-x="733" 
d="M444 383h250v-39q0 -83 -13.5 -143.5t-47.5 -112t-99.5 -78t-162.5 -26.5q-93 0 -156 26t-97.5 79t-48.5 119.5t-14 160.5v370q0 75 15.5 135.5t51 112t101.5 80.5t158 29q81 0 140.5 -21.5t92 -53t52 -79t25 -89t5.5 -93.5v-53h-252v65q0 58 -13.5 85.5t-49.5 27.5
q-35 0 -49.5 -27.5t-14.5 -83.5v-469q0 -53 13.5 -81.5t50.5 -28.5t50 29t13 89v70z" />
    <glyph glyph-name="d" unicode="d" horiz-adv-x="811" 
d="M471 1427h264v-1126q0 -244 2 -301h-250q-8 58 -8 98q-32 -59 -77.5 -86.5t-118.5 -27.5q-123 0 -175.5 87.5t-52.5 256.5v444q0 146 59 235t187 89q130 0 170 -78v409zM317 752v-424q0 -58 17.5 -87.5t58.5 -29.5q45 0 61.5 36t16.5 111v363q0 79 -14.5 112t-61.5 33
q-42 0 -60 -28t-18 -86z" />
    <glyph glyph-name="e" unicode="e" horiz-adv-x="770" 
d="M725 471h-410v-156q0 -120 76 -120q43 0 58.5 31.5t15.5 90.5v25h256v-14q0 -49 -6.5 -92t-28 -91t-56 -82t-96 -56.5t-143.5 -22.5q-101 0 -168.5 27t-103.5 80.5t-50 117.5t-14 153v365q0 71 17.5 133.5t55 117t105.5 86.5t160 32q167 0 249.5 -95.5t82.5 -271.5v-258z
M315 659h156v105q0 65 -17.5 94t-60.5 29q-78 0 -78 -123v-105z" />
    <glyph glyph-name="f" unicode="f" horiz-adv-x="499" 
d="M369 0h-263v846h-98v233h98v70q0 63 12.5 112.5t42 91.5t84 64.5t132.5 22.5q60 0 102 -10v-216q-21 3 -37 3q-41 0 -57 -20t-16 -67v-51h118v-233h-118v-846z" />
    <glyph glyph-name="g" unicode="g" horiz-adv-x="811" 
d="M735 780v-692q0 -63 -2 -107t-10.5 -95.5t-23 -85.5t-41 -68.5t-63.5 -54t-91.5 -32t-124.5 -12.5q-91 0 -156 24.5t-100 67t-50.5 91t-15.5 106.5v6h262v-4q0 -18 4 -34t22 -32t48 -16q51 0 66.5 37.5t15.5 132.5v121q-46 -104 -182 -104q-57 0 -99.5 17.5t-68.5 46.5
t-42 73t-22 90t-6 104v412q0 48 6.5 90.5t24 86.5t45 75.5t73.5 51.5t105 20q145 0 180 -111q4 66 11 94h239q-4 -140 -4 -299zM317 752v-371q0 -65 17.5 -96t56.5 -31q46 0 63 34t17 115v336q0 29 -2 48.5t-9 39t-22 29.5t-39 10q-82 0 -82 -114z" />
    <glyph glyph-name="h" unicode="h" horiz-adv-x="833" 
d="M76 0v1427h264v-432q63 101 199 101q219 0 219 -277v-819h-264v754q0 55 -15.5 83.5t-58.5 28.5q-44 0 -62 -30.5t-18 -106.5v-729h-264z" />
    <glyph glyph-name="i" unicode="i" horiz-adv-x="415" 
d="M76 0v1079h264v-1079h-264zM78 1188v239h262v-239h-262z" />
    <glyph glyph-name="j" unicode="j" horiz-adv-x="417" 
d="M78 1188v239h262v-239h-262zM78 1079h262v-1061q0 -40 -0.5 -65t-3 -61.5t-7.5 -59.5t-14.5 -52.5t-23.5 -48t-34.5 -38t-47 -30.5t-62 -18t-79.5 -7q-45 0 -105 8v225h47q38 0 53 16t15 62v1130z" />
    <glyph glyph-name="k" unicode="k" horiz-adv-x="765" 
d="M336 1427v-796h6q22 66 80 230t76 218h272q-27 -64 -58.5 -133t-70 -150t-53.5 -114q8 -37 98 -338.5t98 -343.5h-282q-3 21 -50 217t-49 215q-12 -28 -67 -141v-291h-260v1427h260z" />
    <glyph glyph-name="l" unicode="l" horiz-adv-x="415" 
d="M340 0h-264v1427h264v-1427z" />
    <glyph glyph-name="m" unicode="m" horiz-adv-x="1200" 
d="M76 0v750q0 290 -2 329h250q3 -18 8 -88q62 105 190 105q131 0 174 -109q81 109 209 109q106 0 162.5 -70t56.5 -209v-817h-260v772q0 48 -14.5 71t-48.5 23q-39 0 -54.5 -29.5t-15.5 -95.5v-741h-262v770q0 56 -15.5 76t-47.5 20q-40 0 -55 -28.5t-15 -92.5v-745h-260z
" />
    <glyph glyph-name="n" unicode="n" horiz-adv-x="831" 
d="M76 0v756q0 282 -2 323h252q8 -58 8 -92q66 109 203 109q108 0 163.5 -71t55.5 -210v-815h-262v760q0 106 -72 106q-45 0 -63.5 -30.5t-18.5 -108.5v-727h-264z" />
    <glyph glyph-name="o" unicode="o" horiz-adv-x="788" 
d="M395 1096q159 0 249.5 -88.5t90.5 -266.5v-405q0 -176 -89 -264t-255 -88q-165 0 -250.5 88t-85.5 264v416q0 173 93 258.5t247 85.5zM395 877q-78 0 -78 -113v-442q0 -119 78 -119q42 0 59 30t17 91v442q0 54 -16.5 82.5t-59.5 28.5z" />
    <glyph glyph-name="p" unicode="p" horiz-adv-x="811" 
d="M76 -350v1120q0 254 -2 309h252q6 -29 10 -102q26 52 76.5 85.5t124.5 33.5q219 0 219 -303v-469q0 -171 -57.5 -255.5t-190.5 -84.5q-54 0 -99 22.5t-69 65.5v-422h-264zM340 737v-383q0 -72 16.5 -107.5t57.5 -35.5q43 0 61.5 30.5t18.5 94.5v420q0 112 -72 112
q-41 0 -61.5 -29.5t-20.5 -101.5z" />
    <glyph glyph-name="q" unicode="q" horiz-adv-x="815" 
d="M473 -350v440q-55 -106 -186 -106q-70 0 -118 27.5t-71.5 79.5t-33 109.5t-9.5 135.5v416q0 69 12 127t39.5 108.5t78.5 79.5t122 29q69 0 111.5 -26.5t58.5 -70.5q2 31 10 80h250q-2 -66 -2 -342v-1087h-262zM317 760v-430q0 -119 74 -119q45 0 62.5 36t17.5 115v369
q0 70 -15 102.5t-59 32.5q-80 0 -80 -106z" />
    <glyph glyph-name="r" unicode="r" horiz-adv-x="573" 
d="M557 1096v-318q-54 0 -88.5 -7t-66.5 -27.5t-47 -63t-15 -109.5v-571h-264v713q0 272 -2 366h250q8 -46 8 -161q28 90 87 133t138 45z" />
    <glyph glyph-name="s" unicode="s" horiz-adv-x="716" 
d="M33 350h252v-51q0 -109 67 -109q60 0 60 82q0 49 -26.5 87.5t-115.5 95.5q-125 77 -175 149t-50 187q0 148 79 226.5t228 78.5q88 0 149.5 -23t95 -67.5t48 -99t14.5 -126.5v-45h-241v64q0 51 -14 71.5t-46 20.5q-55 0 -55 -78q0 -37 23 -64t92 -69q149 -92 203.5 -170.5
t54.5 -200.5q0 -162 -77.5 -243.5t-248.5 -81.5q-80 0 -139 19.5t-92.5 49.5t-53.5 75t-26 87t-6 94v41z" />
    <glyph glyph-name="t" unicode="t" horiz-adv-x="512" 
d="M-2 846v233h108v244h261v-244h122v-233h-122v-561q0 -42 12.5 -60t54.5 -18q37 0 47 4v-203q-55 -22 -151 -22q-122 0 -175 53.5t-53 191.5v615h-104z" />
    <glyph glyph-name="u" unicode="u" horiz-adv-x="829" 
d="M754 1079v-737q0 -283 2 -342h-252q-8 50 -8 94q-33 -62 -84 -86t-121 -24q-215 0 -215 278v817h264v-755q0 -58 17 -85.5t55 -27.5q43 0 61.5 32t18.5 109v727h262z" />
    <glyph glyph-name="v" unicode="v" horiz-adv-x="751" 
d="M4 1079h283q51 -373 92 -798h6q7 96 24 232.5t42 314t34 251.5h263l-209 -1079h-326z" />
    <glyph glyph-name="w" unicode="w" horiz-adv-x="1134" 
d="M6 1079h283q49 -438 67 -725h6q5 60 17 154t36.5 274.5t39.5 296.5h243q16 -120 40.5 -295.5t36 -267t16.5 -164.5h6q2 19 10 135t22 265t35 327h266l-198 -1079h-266q-15 103 -50.5 326.5t-44.5 302.5h-8q-4 -48 -15.5 -125t-22 -137t-32.5 -184t-32 -183h-266z" />
    <glyph glyph-name="x" unicode="x" horiz-adv-x="710" 
d="M-16 1079h290q60 -211 82 -329h6q14 65 89 329h276l-211 -497l215 -582h-287q-52 176 -88 358h-8q-29 -152 -88 -358h-278l200 549z" />
    <glyph glyph-name="y" unicode="y" horiz-adv-x="743" 
d="M-6 1079h285q85 -588 92 -760h10q14 173 96 760h268q-6 -26 -108.5 -518t-122.5 -581q-23 -105 -50 -171t-67 -104.5t-88.5 -52.5t-120.5 -14q-64 0 -122 10l4 223q2 0 24 -2t35 -2q49 0 74.5 19t34.5 73z" />
    <glyph glyph-name="z" unicode="z" horiz-adv-x="647" 
d="M14 0v184q17 35 67.5 143t123 261.5t119.5 253.5h-285v237h582v-186q-16 -38 -126.5 -281t-172.5 -374h307l-21 -238h-594z" />
    <glyph glyph-name="braceleft" unicode="{" horiz-adv-x="598" 
d="M41 502v233h33q75 0 101 32.5t26 104.5l-8 265q0 75 17 130.5t44.5 89t69.5 53.5t84.5 27t97.5 7h47v-201h-21q-62 0 -88 -28t-26 -101l6 -233q3 -219 -156 -256q82 -24 119.5 -82t36.5 -174l-6 -250q0 -72 25 -98.5t85 -26.5h25v-199h-53q-55 0 -97.5 6.5t-83.5 25.5
t-67.5 51t-42.5 85.5t-16 126.5l8 277q0 69 -25 102t-96 33h-39z" />
    <glyph glyph-name="bar" unicode="|" horiz-adv-x="393" 
d="M98 1604h197v-2141h-197v2141z" />
    <glyph glyph-name="braceright" unicode="}" horiz-adv-x="598" 
d="M557 737v-233h-33q-76 0 -101.5 -33t-25.5 -104l6 -265q0 -75 -16.5 -130.5t-44 -89t-69 -53.5t-84 -27t-97.5 -7h-49v201h20q63 0 90 27.5t27 99.5l-6 235q-3 219 154 256q-80 24 -117.5 82t-36.5 174l6 250q0 72 -25 98.5t-85 26.5h-27v199h55q55 0 97.5 -6.5t83 -25.5
t66.5 -51t42 -85.5t16 -126.5l-6 -277q0 -69 24.5 -102t96.5 -33h39z" />
    <glyph glyph-name="asciitilde" unicode="~" horiz-adv-x="954" 
d="M293 356h-195v80q0 230 187 230q53 0 94.5 -12.5t116.5 -45.5q12 -5 30 -13.5t26 -12.5t20.5 -9.5t19 -8t14.5 -5t14 -3.5t11 -1q17 0 25 12.5t8 53.5v34h192v-73q0 -61 -11 -107t-28 -71.5t-41.5 -41t-46.5 -20t-49 -4.5q-50 0 -95 15.5t-122 54.5q-105 51 -137 51
q-33 0 -33 -51v-52z" />
    <glyph glyph-name="uni00A0" unicode="&#xa0;" horiz-adv-x="262" 
 />
    <glyph glyph-name="exclamdown" unicode="&#xa1;" horiz-adv-x="456" 
d="M80 580h235l25 -666l2 -221h-287v217zM66 1077h262v-319h-262v319z" />
    <glyph glyph-name="cent" unicode="&#xa2;" horiz-adv-x="747" 
d="M455 547h243v-39q0 -149 -44 -231.5t-160 -108.5v-135h-209v133q-122 25 -174 115.5t-52 238.5v324q0 293 226 344v117h209v-117q65 -15 108.5 -47.5t63.5 -78t27 -87t7 -92.5v-58h-243v62q0 60 -14 85t-54 25q-67 0 -67 -116v-392q0 -62 14 -92t53 -30q36 0 51 26t15 92
v62z" />
    <glyph glyph-name="sterling" unicode="&#xa3;" horiz-adv-x="794" 
d="M729 0h-674v203q105 54 105 264q0 35 -4 117h-119v192h106q-10 127 -10 228q1 178 79 261t232 83q74 0 129.5 -18.5t88.5 -48.5t52.5 -75t26.5 -89.5t7 -100.5v-58h-238v60q0 59 -12.5 84.5t-46.5 25.5q-33 0 -45.5 -26t-12.5 -86q0 -41 13 -240h180v-192h-170v-11
q0 -252 -68 -350h408z" />
    <glyph glyph-name="currency" unicode="&#xa4;" horiz-adv-x="813" 
d="M406 821q-43 0 -63.5 -33t-20.5 -114v-56q0 -147 86 -147q79 0 79 147v56q0 147 -81 147zM414 1012q80 0 141 -37l100 100l142 -149l-115 -115q25 -67 25 -143v-37q0 -77 -23 -148l113 -112l-144 -154l-102 102q-66 -38 -152 -38q-80 0 -139 36l-100 -100l-146 154
l117 114q-22 71 -22 152v25q0 82 24 147l-119 117l138 149l106 -106q67 43 156 43z" />
    <glyph glyph-name="yen" unicode="&#xa5;" horiz-adv-x="768" 
d="M676 313h-164v-313h-264v313h-158v144h158v75h-158v144h137l-235 653h289q20 -73 37 -141t29 -123.5t19 -91.5t13.5 -74.5t7.5 -42.5h6q37 231 92 473h283l-233 -653h141v-144h-164v-75h164v-144z" />
    <glyph glyph-name="brokenbar" unicode="&#xa6;" horiz-adv-x="393" 
d="M98 1425h197v-737h-197v737zM98 371h197v-740h-197v740z" />
    <glyph glyph-name="section" unicode="&#xa7;" horiz-adv-x="729" 
d="M356 471q4 -4 37 -27.5t37 -25.5q29 48 29 121q0 55 -19.5 94.5t-81.5 87.5q-6 6 -73 55q-39 -53 -39 -129q0 -58 26 -96t84 -80zM338 -238q-299 0 -299 308v36h223v-45q0 -59 19.5 -84.5t58.5 -25.5q68 0 68 96q0 54 -15.5 88.5t-68.5 71.5l-121 84q-91 63 -132.5 133.5
t-41.5 187.5q0 95 27.5 162.5t84.5 124.5q-61 72 -61 197q0 141 74.5 214.5t212.5 73.5q82 0 139 -21.5t88 -62.5t44 -91t13 -117v-43h-215v43q0 58 -13.5 83t-53.5 25q-64 0 -64 -82q0 -40 17.5 -68t66.5 -61q9 -6 64.5 -45t62.5 -43q87 -65 125.5 -135t38.5 -197
q0 -184 -105 -282q60 -83 60 -221q0 -153 -76.5 -228.5t-220.5 -75.5z" />
    <glyph glyph-name="dieresis" unicode="&#xa8;" horiz-adv-x="819" 
d="M367 1188h-226v239h226v-239zM678 1188h-225v239h225v-239z" />
    <glyph glyph-name="copyright" unicode="&#xa9;" horiz-adv-x="1153" 
d="M578 1323q104 0 192 -36t159.5 -110t112.5 -203t41 -300q0 -168 -41 -296.5t-112.5 -203.5t-160 -112t-191.5 -37q-84 0 -158 22t-139.5 71.5t-112.5 123.5t-74.5 184.5t-27.5 247.5q0 164 42 291.5t114 204t162.5 115t193.5 38.5zM575 1194q-172 0 -272 -128.5
t-100 -389.5q0 -136 28.5 -238.5t79.5 -164t117 -91.5t147 -30q174 0 273.5 130.5t99.5 391.5q0 267 -101 393.5t-272 126.5zM627 606h178v-41q0 -243 -230 -243q-123 0 -176 68t-53 196v198q0 248 232 248q62 0 107.5 -18.5t70 -51.5t36 -72.5t11.5 -86.5v-49h-176v51
q0 38 -10 57t-37 19q-50 0 -50 -80v-248q0 -75 48 -78q49 0 49 76v55z" />
    <glyph glyph-name="ordfeminine" unicode="&#xaa;" horiz-adv-x="542" 
d="M272 1284q217 0 217 -180v-316q0 -96 9 -161h-166q-8 21 -8 55q-54 -70 -138 -70q-76 0 -117.5 55.5t-41.5 143.5q0 212 256 215h24v64q0 35 -8 50t-35 15q-45 0 -45 -74v-10h-168v6q0 96 49.5 151.5t171.5 55.5zM209 829q0 -63 49 -63q53 0 53 90v47q-12 2 -28 2
q-74 0 -74 -76z" />
    <glyph glyph-name="guillemotleft" unicode="&#xab;" horiz-adv-x="800" 
d="M428 885l-166 -342l166 -342h-207l-168 342l168 342h207zM748 885l-168 -342l168 -342h-207l-170 342l170 342h207z" />
    <glyph glyph-name="logicalnot" unicode="&#xac;" horiz-adv-x="976" 
d="M72 690h807v-522h-199v324h-608v198z" />
    <glyph glyph-name="uni00AD" unicode="&#xad;" horiz-adv-x="477" 
d="M45 657h387v-223h-387v223z" />
    <glyph glyph-name="registered" unicode="&#xae;" horiz-adv-x="524" 
d="M246 1014h-72v239h119q37 0 60.5 -17.5t23.5 -51.5q0 -35 -35 -56q31 -12 31 -65q0 -37 4 -49h-76q-4 16 -4 51q0 20 -6 27.5t-23 7.5h-22v-86zM250 1200v-47h24q27 0 27 23q0 24 -27 24h-24zM270 1384q105 0 176.5 -72.5t71.5 -183.5q0 -117 -69 -187.5t-179 -70.5
q-105 0 -175 73t-70 185q0 110 68.5 183t176.5 73zM268 1323q-79 0 -127.5 -52t-48.5 -147q0 -80 50 -136t126 -56q90 0 136.5 50t46.5 146q0 84 -51 139.5t-132 55.5z" />
    <glyph glyph-name="macron" unicode="&#xaf;" horiz-adv-x="819" 
d="M180 1395h457v-187h-457v187z" />
    <glyph glyph-name="degree" unicode="&#xb0;" horiz-adv-x="540" 
d="M270 1348q103 0 168.5 -63.5t65.5 -174.5q0 -115 -70 -177.5t-164 -62.5q-103 0 -168 62.5t-65 173.5q0 112 68.5 177t164.5 65zM270 1210q-40 0 -63 -26t-23 -78q0 -45 24 -70.5t62 -25.5t60 26t22 72q0 102 -82 102z" />
    <glyph glyph-name="plusminus" unicode="&#xb1;" horiz-adv-x="1007" 
d="M403 1073h203v-289h318v-200h-318v-289h-203v289h-319v200h319v289zM924 0h-840v199h840v-199z" />
    <glyph glyph-name="two.sups" unicode="&#xb2;" horiz-adv-x="538" 
d="M487 891h-448v14q-2 96 33.5 171t136.5 169q66 64 82 86.5t16 59.5q0 21 -2.5 34.5t-12.5 25t-28 11.5q-30 0 -41.5 -20.5t-11.5 -59.5v-36h-178v20q0 238 239 238q117 0 172.5 -59t55.5 -159q0 -65 -27.5 -107t-101.5 -110q-6 -5 -23.5 -21t-23.5 -21.5t-19 -19
t-19 -21.5t-13.5 -20t-12.5 -24h250z" />
    <glyph glyph-name="three.sups" unicode="&#xb3;" horiz-adv-x="544" 
d="M29 1108h180v-10q0 -74 57 -74q58 0 58 80q0 47 -18.5 66.5t-61.5 19.5h-56v143h54q40 0 54.5 16.5t14.5 51.5q0 63 -47 63q-26 0 -38.5 -16.5t-12.5 -56.5v-5h-176v5q0 92 55 152.5t176 60.5q119 0 172.5 -54.5t53.5 -138.5q0 -101 -91 -141q21 -9 36.5 -18.5t34.5 -28
t29.5 -49t10.5 -70.5q0 -107 -64.5 -165t-183.5 -58q-66 0 -114.5 19.5t-74 53t-37 69.5t-11.5 77v8z" />
    <glyph glyph-name="acute" unicode="&#xb4;" horiz-adv-x="819" 
d="M438 1450h285l-250 -274h-215z" />
    <glyph glyph-name="uni00B5" unicode="&#xb5;" horiz-adv-x="825" 
d="M506 0q-6 28 -12 76q-23 -51 -51.5 -71.5t-71.5 -20.5q-16 0 -34 9t-28 23q8 -201 10 -366h-251q1 60 4 323t4 320v786h264v-747q0 -119 70 -119q38 0 60 29.5t22 113.5v723h262v-737q0 -224 4 -342h-252z" />
    <glyph glyph-name="paragraph" unicode="&#xb6;" horiz-adv-x="806" 
d="M526 270h-108q-197 0 -287 96t-90 316v182q0 212 91.5 308t283.5 96h108q3 62 15 118h174q-4 -82 -4 -122v-1522h-183v528zM526 471v606h-24q-47 0 -68.5 -23.5t-21.5 -92.5v-361q0 -78 21 -103.5t67 -25.5h26z" />
    <glyph glyph-name="periodcentered" unicode="&#xb7;" horiz-adv-x="395" 
d="M328 410h-260v331h260v-331z" />
    <glyph glyph-name="cedilla" unicode="&#xb8;" horiz-adv-x="819" 
d="M281 -98l59 108h170l-39 -63q133 -44 133 -160q0 -75 -55.5 -124.5t-153.5 -49.5q-107 0 -172 33l39 135q44 -21 88 -21q47 0 47 33q0 43 -116 57v52z" />
    <glyph glyph-name="one.sups" unicode="&#xb9;" horiz-adv-x="350" 
d="M291 891h-187v510q-43 0 -73 6v135q81 6 123 57h137v-708z" />
    <glyph glyph-name="ordmasculine" unicode="&#xba;" horiz-adv-x="542" 
d="M276 1284q106 0 168 -63.5t62 -184.5v-168q0 -256 -238 -256q-231 0 -231 252v178q0 115 62 178.5t177 63.5zM272 1135q-53 0 -53 -76v-217q0 -40 12 -60t43 -20q50 0 50 82v215q0 40 -11 58t-41 18z" />
    <glyph glyph-name="guillemotright" unicode="&#xbb;" horiz-adv-x="800" 
d="M371 201l166 340l-166 344h204l168 -344l-168 -340h-204zM51 201l166 340l-166 344h205l170 -344l-170 -340h-205z" />
    <glyph glyph-name="onequarter" unicode="&#xbc;" horiz-adv-x="1062" 
d="M262 0h-137l584 1329h137zM315 625h-186v510q-44 0 -74 6v135q81 6 123 57h137v-708zM956 0h-172v158h-262v143l197 404h237v-400h70l-12 -147h-58v-158zM690 305h94v64q0 135 4 174h-4q-30 -96 -94 -238z" />
    <glyph glyph-name="onehalf" unicode="&#xbd;" horiz-adv-x="1112" 
d="M246 0h-137l583 1329h137zM299 625h-186v510q-44 0 -74 6v135q81 6 123 57h137v-708zM1034 0h-448v14q-2 96 33.5 171t136.5 169q66 64 82 86.5t16 59.5q0 21 -2.5 34.5t-12.5 25t-28 11.5q-30 0 -41.5 -20t-11.5 -59v-37h-178v20q0 238 239 238q117 0 172.5 -58.5
t55.5 -158.5q0 -65 -27.5 -107t-101.5 -110q-6 -5 -23.5 -21t-23.5 -21.5t-19 -19t-19 -21.5t-13.5 -20t-12.5 -24h250z" />
    <glyph glyph-name="threequarters" unicode="&#xbe;" horiz-adv-x="1189" 
d="M406 0h-138l584 1329h137zM1087 0h-172v158h-262v143l197 404h237v-400h70l-12 -147h-58v-158zM821 305h94v64q0 125 5 174h-5q-30 -96 -94 -238zM45 842h180v-11q0 -73 58 -73q57 0 57 80q0 47 -18.5 66.5t-61.5 19.5h-55v143h53q40 0 55 16.5t15 51.5q0 63 -47 63
q-52 0 -52 -74v-4h-176v4q0 92 55.5 152.5t176.5 60.5q119 0 172 -54t53 -138q0 -101 -90 -141q21 -9 36 -18.5t34 -28t29.5 -49t10.5 -70.5q0 -107 -64.5 -165.5t-182.5 -58.5q-66 0 -115 20t-74.5 53t-37 69.5t-11.5 77.5v8z" />
    <glyph glyph-name="questiondown" unicode="&#xbf;" horiz-adv-x="731" 
d="M223 639h262v-51q0 -90 -25 -168t-85 -180q-39 -69 -56.5 -124t-17.5 -124q0 -52 11 -74t40 -22q34 0 46 30t12 101v57h243v-43q0 -80 -13.5 -138.5t-46.5 -107.5t-96.5 -74.5t-156.5 -25.5q-165 0 -235 80t-70 231q0 107 24.5 175t94.5 192q69 125 69 241v25zM223 1079
h262v-338h-262v338z" />
    <glyph glyph-name="Agrave" unicode="&#xc0;" horiz-adv-x="815" 
d="M487 326h-170l-32 -326h-269l193 1366h391l199 -1366h-273zM340 557h125q-6 59 -19 186.5t-23.5 227t-16.5 157.5h-11q-4 -86 -55 -571zM25 1651h321l191 -205h-244z" />
    <glyph glyph-name="Aacute" unicode="&#xc1;" horiz-adv-x="815" 
d="M487 326h-170l-32 -326h-269l193 1366h391l199 -1366h-273zM340 557h125q-6 59 -19 186.5t-23.5 227t-16.5 157.5h-11q-4 -86 -55 -571zM471 1657h307l-268 -205h-231z" />
    <glyph glyph-name="Acircumflex" unicode="&#xc2;" horiz-adv-x="815" 
d="M487 326h-170l-32 -326h-269l193 1366h391l199 -1366h-273zM340 557h125q-6 59 -19 186.5t-23.5 227t-16.5 157.5h-11q-4 -86 -55 -571zM274 1645h267l178 -203h-240l-73 84l-68 -84h-244z" />
    <glyph glyph-name="Atilde" unicode="&#xc3;" horiz-adv-x="815" 
d="M487 326h-170l-32 -326h-269l193 1366h391l199 -1366h-273zM340 557h125q-6 59 -19 186.5t-23.5 227t-16.5 157.5h-11q-4 -86 -55 -571zM281 1448h-158v43q0 108 41 149t112 41q56 0 134 -27.5t94 -27.5q33 0 33 37v18h153v-34q0 -115 -36.5 -159t-112.5 -44
q-50 0 -129 27.5t-101 27.5q-30 0 -30 -37v-14z" />
    <glyph glyph-name="Adieresis" unicode="&#xc4;" horiz-adv-x="815" 
d="M487 326h-170l-32 -326h-269l193 1366h391l199 -1366h-273zM340 557h125q-6 59 -19 186.5t-23.5 227t-16.5 157.5h-11q-4 -86 -55 -571zM365 1452h-220v227h220v-227zM672 1452h-219v227h219v-227z" />
    <glyph glyph-name="Aring" unicode="&#xc5;" horiz-adv-x="815" 
d="M487 326h-170l-32 -326h-269l193 1366h391l199 -1366h-273zM340 557h125q-6 59 -19 186.5t-23.5 227t-16.5 157.5h-11q-4 -86 -55 -571zM408 1423q-81 0 -132 52t-51 127q0 79 48 132.5t130 53.5t133.5 -51.5t51.5 -130.5q0 -81 -51.5 -132t-128.5 -51zM408 1532
q31 0 48 21t17 51t-17.5 51.5t-49.5 21.5t-49 -20.5t-17 -50.5t18 -52t50 -22z" />
    <glyph glyph-name="AE" unicode="&#xc6;" horiz-adv-x="1077" 
d="M289 1366h737v-231h-289v-314h275v-231h-275v-359h324l-33 -231h-549v358h-157l-76 -358h-264zM365 594h114v571h-8q-68 -400 -106 -571z" />
    <glyph glyph-name="Ccedilla" unicode="&#xc7;" horiz-adv-x="768" 
d="M471 446h266v-73q0 -53 -4.5 -96t-20 -94.5t-42.5 -88.5t-76 -67t-115 -41l-24 -39q133 -44 133 -160q0 -75 -55.5 -124.5t-153.5 -49.5q-107 0 -172 33l39 135q44 -21 88 -21q47 0 47 33q0 43 -117 57v52l45 84q-129 20 -189.5 110.5t-60.5 257.5v670q0 178 86.5 270
t251.5 92q84 0 146 -21.5t97.5 -55.5t57 -84.5t28.5 -98.5t7 -108v-86h-264v117q0 59 -16 86.5t-56 27.5q-39 0 -55 -27t-16 -87v-723q0 -60 15 -91.5t56 -31.5t57.5 31t16.5 98v114z" />
    <glyph glyph-name="Egrave" unicode="&#xc8;" horiz-adv-x="690" 
d="M625 836v-232h-281v-373h330l-31 -231h-563v1366h561v-231h-297v-299h281zM-12 1659h321l191 -205h-244z" />
    <glyph glyph-name="Eacute" unicode="&#xc9;" horiz-adv-x="690" 
d="M625 836v-232h-281v-373h330l-31 -231h-563v1366h561v-231h-297v-299h281zM426 1651h307l-268 -205h-232z" />
    <glyph glyph-name="Ecircumflex" unicode="&#xca;" horiz-adv-x="690" 
d="M625 836v-232h-281v-373h330l-31 -231h-563v1366h561v-231h-297v-299h281zM225 1651h267l178 -203h-240l-74 84l-67 -84h-244z" />
    <glyph glyph-name="Edieresis" unicode="&#xcb;" horiz-adv-x="690" 
d="M625 836v-232h-281v-373h330l-31 -231h-563v1366h561v-231h-297v-299h281zM317 1460h-219v228h219v-228zM625 1460h-219v228h219v-228z" />
    <glyph glyph-name="Igrave" unicode="&#xcc;" horiz-adv-x="428" 
d="M82 1366h262v-1366h-262v1366zM-174 1665h321l191 -205h-244z" />
    <glyph glyph-name="Iacute" unicode="&#xcd;" horiz-adv-x="428" 
d="M82 1366h262v-1366h-262v1366zM283 1665h307l-268 -205h-232z" />
    <glyph glyph-name="Icircumflex" unicode="&#xce;" horiz-adv-x="428" 
d="M82 1366h262v-1366h-262v1366zM80 1653h266l178 -203h-239l-74 84l-68 -84h-243z" />
    <glyph glyph-name="Idieresis" unicode="&#xcf;" horiz-adv-x="428" 
d="M82 1366h262v-1366h-262v1366zM170 1460h-219v228h219v-228zM477 1460h-219v228h219v-228z" />
    <glyph glyph-name="Eth" unicode="&#xd0;" horiz-adv-x="864" 
d="M33 827h69v539h324q207 0 292 -96.5t85 -313.5v-514q0 -78 -7.5 -137.5t-30.5 -119.5t-61.5 -98.5t-105 -62.5t-156.5 -24h-340v606h-69v221zM365 1153v-326h96v-221h-96v-395h51q73 0 97 42.5t24 131.5v612q0 81 -26 118.5t-97 37.5h-49z" />
    <glyph glyph-name="Ntilde" unicode="&#xd1;" horiz-adv-x="872" 
d="M322 0h-240v1366h291l141 -600q26 -108 49 -246h6q-22 286 -22 623v223h244v-1366h-295l-148 680q-6 30 -20 104t-19 97h-6q19 -304 19 -648v-233zM309 1458h-157v43q0 108 41 149.5t112 41.5q56 0 133.5 -28t93.5 -28q33 0 33 37v19h154v-35q0 -115 -37 -159t-113 -44
q-50 0 -128.5 27.5t-100.5 27.5q-31 0 -31 -36v-15z" />
    <glyph glyph-name="Ograve" unicode="&#xd2;" horiz-adv-x="829" 
d="M416 1386q166 0 260 -94.5t94 -290.5v-634q0 -199 -92 -293t-275 -94q-172 0 -258 94t-86 291v643q0 191 95.5 284.5t261.5 93.5zM414 1161q-88 0 -88 -131v-698q0 -129 88 -129q46 0 67 31.5t21 99.5v698q0 67 -20 98t-68 31zM45 1665h322l190 -205h-244z" />
    <glyph glyph-name="Oacute" unicode="&#xd3;" horiz-adv-x="829" 
d="M416 1386q166 0 260 -94.5t94 -290.5v-634q0 -199 -92 -293t-275 -94q-172 0 -258 94t-86 291v643q0 191 95.5 284.5t261.5 93.5zM414 1161q-88 0 -88 -131v-698q0 -129 88 -129q46 0 67 31.5t21 99.5v698q0 67 -20 98t-68 31zM471 1665h307l-268 -205h-231z" />
    <glyph glyph-name="Ocircumflex" unicode="&#xd4;" horiz-adv-x="829" 
d="M416 1386q166 0 260 -94.5t94 -290.5v-634q0 -199 -92 -293t-275 -94q-172 0 -258 94t-86 291v643q0 191 95.5 284.5t261.5 93.5zM414 1161q-88 0 -88 -131v-698q0 -129 88 -129q46 0 67 31.5t21 99.5v698q0 67 -20 98t-68 31zM281 1653h266l178 -203h-240l-73 84
l-68 -84h-244z" />
    <glyph glyph-name="Otilde" unicode="&#xd5;" horiz-adv-x="829" 
d="M416 1386q166 0 260 -94.5t94 -290.5v-634q0 -199 -92 -293t-275 -94q-172 0 -258 94t-86 291v643q0 191 95.5 284.5t261.5 93.5zM414 1161q-88 0 -88 -131v-698q0 -129 88 -129q46 0 67 31.5t21 99.5v698q0 67 -20 98t-68 31zM287 1458h-158v43q0 108 41.5 149.5
t112.5 41.5q56 0 133.5 -28t93.5 -28q33 0 33 37v19h153v-35q0 -115 -36.5 -159t-112.5 -44q-50 0 -129 27.5t-101 27.5q-30 0 -30 -36v-15z" />
    <glyph glyph-name="Odieresis" unicode="&#xd6;" horiz-adv-x="829" 
d="M416 1386q166 0 260 -94.5t94 -290.5v-634q0 -199 -92 -293t-275 -94q-172 0 -258 94t-86 291v643q0 191 95.5 284.5t261.5 93.5zM414 1161q-88 0 -88 -131v-698q0 -129 88 -129q46 0 67 31.5t21 99.5v698q0 67 -20 98t-68 31zM371 1460h-219v228h219v-228zM678 1460
h-219v228h219v-228z" />
    <glyph glyph-name="multiply" unicode="&#xd7;" horiz-adv-x="1007" 
d="M918 791l-285 -295l285 -289l-127 -135l-287 293l-283 -293l-133 135l287 291l-287 293l129 129l287 -291l287 291z" />
    <glyph glyph-name="Oslash" unicode="&#xd8;" horiz-adv-x="829" 
d="M180 0h-88l35 92q-68 92 -68 270v648q0 193 95 284.5t262 91.5q119 0 196 -45l11 25h92l-31 -80q86 -95 86 -285v-634q0 -202 -91.5 -294.5t-275.5 -92.5q-133 0 -210 51zM414 1167q-46 0 -73.5 -32t-27.5 -97v-469l199 514q-15 84 -98 84zM412 199q104 0 104 133v526
l-203 -518v-10q0 -62 27 -96.5t72 -34.5z" />
    <glyph glyph-name="Ugrave" unicode="&#xd9;" horiz-adv-x="847" 
d="M76 1366h264v-1040q0 -123 84 -123q82 0 82 123v1040h266v-1024q0 -183 -86 -271.5t-266 -88.5q-178 0 -261 88t-83 276v1020zM49 1655h322l190 -205h-244z" />
    <glyph glyph-name="Uacute" unicode="&#xda;" horiz-adv-x="847" 
d="M76 1366h264v-1040q0 -123 84 -123q82 0 82 123v1040h266v-1024q0 -183 -86 -271.5t-266 -88.5q-178 0 -261 88t-83 276v1020zM481 1657h307l-268 -205h-231z" />
    <glyph glyph-name="Ucircumflex" unicode="&#xdb;" horiz-adv-x="847" 
d="M76 1366h264v-1040q0 -123 84 -123q82 0 82 123v1040h266v-1024q0 -183 -86 -271.5t-266 -88.5q-178 0 -261 88t-83 276v1020zM291 1653h266l178 -203h-239l-74 84l-68 -84h-243z" />
    <glyph glyph-name="Udieresis" unicode="&#xdc;" horiz-adv-x="847" 
d="M76 1366h264v-1040q0 -123 84 -123q82 0 82 123v1040h266v-1024q0 -183 -86 -271.5t-266 -88.5q-178 0 -261 88t-83 276v1020zM381 1460h-219v228h219v-228zM688 1460h-219v228h219v-228z" />
    <glyph glyph-name="Yacute" unicode="&#xdd;" horiz-adv-x="743" 
d="M502 0h-262v438q0 28 -11 70l-239 858h286q82 -438 97 -596h8q25 176 102 596h271l-246 -879q-6 -27 -6 -59v-428zM432 1663h307l-268 -205h-231z" />
    <glyph glyph-name="Thorn" unicode="&#xde;" horiz-adv-x="813" 
d="M84 0v1366h262v-231h94q81 0 138.5 -15t102 -52t66 -104t21.5 -167v-160q0 -199 -79 -285t-269 -86h-74v-266h-262zM348 920v-431h33q69 0 97 29t28 109v168q0 72 -25 98.5t-88 26.5h-45z" />
    <glyph glyph-name="germandbls" unicode="&#xdf;" horiz-adv-x="874" 
d="M338 1079v-1079h-264v1079q0 84 21.5 149t56 104t83.5 64t99 34.5t108 9.5q357 0 357 -359v-80l-156 -215v-4l43 -65q79 -123 113.5 -204t34.5 -177q0 -73 -14.5 -133t-47.5 -111t-92.5 -79.5t-142.5 -28.5q-100 0 -166 32v213q58 -28 110 -28q88 0 88 100q0 84 -75 193
l-66 96q-59 77 -58.5 143t66.5 158l109 151v31q0 70 -22 109t-81 39q-56 0 -80 -35.5t-24 -106.5z" />
    <glyph glyph-name="agrave" unicode="&#xe0;" 
d="M709 805v-559q0 -176 6 -246h-244q-10 29 -16 80q-58 -96 -185 -96q-59 0 -104.5 26t-72 71t-39.5 100.5t-13 119.5v21q0 342 387 342h18v124q0 59 -12 83t-47 24q-33 0 -46 -24.5t-13 -75.5v-25h-254v16q0 149 76 229.5t247 80.5q312 0 312 -291zM449 352v127h-25
q-63 0 -96 -33.5t-33 -113.5v-15q0 -112 76 -112q41 0 59.5 33t18.5 114zM66 1450h288l166 -274h-211z" />
    <glyph glyph-name="aacute" unicode="&#xe1;" 
d="M709 805v-559q0 -176 6 -246h-244q-10 29 -16 80q-58 -96 -185 -96q-59 0 -104.5 26t-72 71t-39.5 100.5t-13 119.5v21q0 342 387 342h18v124q0 59 -12 83t-47 24q-33 0 -46 -24.5t-13 -75.5v-25h-254v16q0 149 76 229.5t247 80.5q312 0 312 -291zM449 352v127h-25
q-63 0 -96 -33.5t-33 -113.5v-15q0 -112 76 -112q41 0 59.5 33t18.5 114zM426 1450h285l-250 -274h-215z" />
    <glyph glyph-name="acircumflex" unicode="&#xe2;" 
d="M709 805v-559q0 -176 6 -246h-244q-10 29 -16 80q-58 -96 -185 -96q-59 0 -104.5 26t-72 71t-39.5 100.5t-13 119.5v21q0 342 387 342h18v124q0 59 -12 83t-47 24q-33 0 -46 -24.5t-13 -75.5v-25h-254v16q0 149 76 229.5t247 80.5q312 0 312 -291zM449 352v127h-25
q-63 0 -96 -33.5t-33 -113.5v-15q0 -112 76 -112q41 0 59.5 33t18.5 114zM264 1430h260l168 -238h-223l-76 111l-74 -111h-223z" />
    <glyph glyph-name="atilde" unicode="&#xe3;" 
d="M709 805v-559q0 -176 6 -246h-244q-10 29 -16 80q-58 -96 -185 -96q-59 0 -104.5 26t-72 71t-39.5 100.5t-13 119.5v21q0 342 387 342h18v124q0 59 -12 83t-47 24q-33 0 -46 -24.5t-13 -75.5v-25h-254v16q0 149 76 229.5t247 80.5q312 0 312 -291zM449 352v127h-25
q-63 0 -96 -33.5t-33 -113.5v-15q0 -112 76 -112q41 0 59.5 33t18.5 114zM285 1182h-154v63q0 178 141 178q53 0 125.5 -32.5t87.5 -32.5q7 0 11 2t7 12.5t3 30.5v16h147v-55q0 -103 -35 -145.5t-98 -42.5q-47 0 -120.5 33.5t-94.5 33.5q-11 0 -15.5 -8.5t-4.5 -34.5v-18z
" />
    <glyph glyph-name="adieresis" unicode="&#xe4;" 
d="M709 805v-559q0 -176 6 -246h-244q-10 29 -16 80q-58 -96 -185 -96q-59 0 -104.5 26t-72 71t-39.5 100.5t-13 119.5v21q0 342 387 342h18v124q0 59 -12 83t-47 24q-33 0 -46 -24.5t-13 -75.5v-25h-254v16q0 149 76 229.5t247 80.5q312 0 312 -291zM449 352v127h-25
q-63 0 -96 -33.5t-33 -113.5v-15q0 -112 76 -112q41 0 59.5 33t18.5 114zM350 1190h-225v240h225v-240zM662 1190h-226v240h226v-240z" />
    <glyph glyph-name="aring" unicode="&#xe5;" 
d="M709 805v-559q0 -176 6 -246h-244q-10 29 -16 80q-58 -96 -185 -96q-59 0 -104.5 26t-72 71t-39.5 100.5t-13 119.5v21q0 342 387 342h18v124q0 59 -12 83t-47 24q-33 0 -46 -24.5t-13 -75.5v-25h-254v16q0 149 76 229.5t247 80.5q312 0 312 -291zM449 352v127h-25
q-63 0 -96 -33.5t-33 -113.5v-15q0 -112 76 -112q41 0 59.5 33t18.5 114zM395 1161q-81 0 -131.5 51.5t-50.5 126.5q0 80 48 133.5t130 53.5t133 -52t51 -131q0 -81 -51 -131.5t-129 -50.5zM395 1270q31 0 48.5 21t17.5 50q0 30 -18 52t-50 22t-48.5 -21t-16.5 -51
t17.5 -51.5t49.5 -21.5z" />
    <glyph glyph-name="ae" unicode="&#xe6;" horiz-adv-x="1153" 
d="M291 -16q-65 0 -114 26t-78 71.5t-43.5 102t-14.5 123.5v6q0 92 28 159t78.5 106t113.5 57t140 18h45v142q0 53 -13.5 76.5t-49.5 23.5q-35 0 -47 -26t-12 -72v-47h-252v26q0 155 71 237.5t232 82.5q163 0 215 -74q82 74 207 74q309 0 309 -353v-272h-406v-158
q0 -118 72 -118q41 0 54.5 30t15.5 90v31h260v-16q0 -59 -7.5 -105.5t-29 -93.5t-56.5 -78t-95 -50t-140 -19q-105 0 -162 28.5t-92 77.5q-47 -53 -96.5 -79.5t-132.5 -26.5zM449 360v111h-31q-123 0 -123 -137v-10q0 -117 80 -117q40 0 57 37.5t17 115.5zM700 653h148v101
q0 75 -15.5 106t-56.5 31q-42 0 -59 -30.5t-17 -108.5v-99z" />
    <glyph glyph-name="ccedilla" unicode="&#xe7;" horiz-adv-x="733" 
d="M444 383h250v-39q0 -72 -10 -126.5t-34.5 -103t-71.5 -79.5t-115 -43l-25 -41q133 -44 133 -160q0 -75 -55.5 -124.5t-153.5 -49.5q-107 0 -172 33l39 135q44 -21 88 -21q48 0 48 33q0 44 -117 58v51l45 84q-133 21 -185.5 115.5t-52.5 263.5v370q0 75 15.5 135.5t51 112
t101.5 80.5t158 29q81 0 140.5 -21.5t92 -53t52 -79t25 -89t5.5 -93.5v-53h-252v65q0 58 -13.5 85.5t-49.5 27.5q-35 0 -49.5 -27.5t-14.5 -83.5v-469q0 -53 13.5 -81.5t50.5 -28.5t50 29t13 89v70z" />
    <glyph glyph-name="egrave" unicode="&#xe8;" horiz-adv-x="770" 
d="M725 471h-410v-156q0 -120 76 -120q43 0 58.5 31.5t15.5 90.5v25h256v-14q0 -49 -6.5 -92t-28 -91t-56 -82t-96 -56.5t-143.5 -22.5q-101 0 -168.5 27t-103.5 80.5t-50 117.5t-14 153v365q0 71 17.5 133.5t55 117t105.5 86.5t160 32q167 0 249.5 -95.5t82.5 -271.5v-258z
M315 659h156v105q0 65 -17.5 94t-60.5 29q-78 0 -78 -123v-105zM57 1450h289l166 -274h-211z" />
    <glyph glyph-name="eacute" unicode="&#xe9;" horiz-adv-x="770" 
d="M725 471h-410v-156q0 -120 76 -120q43 0 58.5 31.5t15.5 90.5v25h256v-14q0 -49 -6.5 -92t-28 -91t-56 -82t-96 -56.5t-143.5 -22.5q-101 0 -168.5 27t-103.5 80.5t-50 117.5t-14 153v365q0 71 17.5 133.5t55 117t105.5 86.5t160 32q167 0 249.5 -95.5t82.5 -271.5v-258z
M315 659h156v105q0 65 -17.5 94t-60.5 29q-78 0 -78 -123v-105zM438 1450h285l-250 -274h-215z" />
    <glyph glyph-name="ecircumflex" unicode="&#xea;" horiz-adv-x="770" 
d="M725 471h-410v-156q0 -120 76 -120q43 0 58.5 31.5t15.5 90.5v25h256v-14q0 -49 -6.5 -92t-28 -91t-56 -82t-96 -56.5t-143.5 -22.5q-101 0 -168.5 27t-103.5 80.5t-50 117.5t-14 153v365q0 71 17.5 133.5t55 117t105.5 86.5t160 32q167 0 249.5 -95.5t82.5 -271.5v-258z
M315 659h156v105q0 65 -17.5 94t-60.5 29q-78 0 -78 -123v-105zM262 1425h260l168 -237h-223l-76 110l-74 -110h-223z" />
    <glyph glyph-name="edieresis" unicode="&#xeb;" horiz-adv-x="770" 
d="M725 471h-410v-156q0 -120 76 -120q43 0 58.5 31.5t15.5 90.5v25h256v-14q0 -49 -6.5 -92t-28 -91t-56 -82t-96 -56.5t-143.5 -22.5q-101 0 -168.5 27t-103.5 80.5t-50 117.5t-14 153v365q0 71 17.5 133.5t55 117t105.5 86.5t160 32q167 0 249.5 -95.5t82.5 -271.5v-258z
M315 659h156v105q0 65 -17.5 94t-60.5 29q-78 0 -78 -123v-105zM342 1188h-225v239h225v-239zM653 1188h-225v239h225v-239z" />
    <glyph glyph-name="igrave" unicode="&#xec;" horiz-adv-x="415" 
d="M76 0v1079h264v-1079h-264zM-135 1450h289l165 -274h-210z" />
    <glyph glyph-name="iacute" unicode="&#xed;" horiz-adv-x="415" 
d="M76 0v1079h264v-1079h-264zM276 1450h285l-250 -274h-215z" />
    <glyph glyph-name="icircumflex" unicode="&#xee;" horiz-adv-x="415" 
d="M76 0v1079h264v-1079h-264zM78 1425h260l168 -237h-223l-76 110l-74 -110h-223z" />
    <glyph glyph-name="idieresis" unicode="&#xef;" horiz-adv-x="415" 
d="M76 0v1079h264v-1079h-264zM164 1188h-225v239h225v-239zM475 1188h-225v239h225v-239z" />
    <glyph glyph-name="eth" unicode="&#xf0;" horiz-adv-x="790" 
d="M133 1239v201q234 -6 375 -107l143 94l58 -100l-115 -76q141 -176 141 -544v-320q0 -90 -16.5 -159t-54 -126t-106.5 -87.5t-167 -30.5q-78 0 -137.5 21t-96.5 56t-60.5 86.5t-32.5 106.5t-9 123v235q0 186 80.5 281.5t237.5 95.5q64 0 82 -12q-7 79 -60 143l-164 -108
l-59 102l127 82q-63 34 -166 43zM393 782q-42 0 -59 -31t-17 -89v-330q0 -61 17 -94t61 -33t61 31.5t17 99.5v323q0 69 -19 96t-61 27z" />
    <glyph glyph-name="ntilde" unicode="&#xf1;" horiz-adv-x="831" 
d="M76 0v756q0 282 -2 323h252q8 -58 8 -92q66 109 203 109q108 0 163.5 -71t55.5 -210v-815h-262v760q0 106 -72 106q-45 0 -63.5 -30.5t-18.5 -108.5v-727h-264zM307 1182h-153v63q0 178 141 178q53 0 125.5 -32.5t87.5 -32.5q7 0 10.5 2t6.5 12.5t3 30.5v16h148v-55
q0 -103 -35 -145.5t-98 -42.5q-47 0 -120.5 33.5t-94.5 33.5q-11 0 -16 -8.5t-5 -34.5v-18z" />
    <glyph glyph-name="ograve" unicode="&#xf2;" horiz-adv-x="788" 
d="M395 1096q159 0 249.5 -88.5t90.5 -266.5v-405q0 -176 -89 -264t-255 -88q-165 0 -250.5 88t-85.5 264v416q0 173 93 258.5t247 85.5zM395 877q-78 0 -78 -113v-442q0 -119 78 -119q42 0 59 30t17 91v442q0 54 -16.5 82.5t-59.5 28.5zM61 1450h289l166 -274h-211z" />
    <glyph glyph-name="oacute" unicode="&#xf3;" horiz-adv-x="788" 
d="M395 1096q159 0 249.5 -88.5t90.5 -266.5v-405q0 -176 -89 -264t-255 -88q-165 0 -250.5 88t-85.5 264v416q0 173 93 258.5t247 85.5zM395 877q-78 0 -78 -113v-442q0 -119 78 -119q42 0 59 30t17 91v442q0 54 -16.5 82.5t-59.5 28.5zM436 1450h285l-250 -274h-215z" />
    <glyph glyph-name="ocircumflex" unicode="&#xf4;" horiz-adv-x="788" 
d="M395 1096q159 0 249.5 -88.5t90.5 -266.5v-405q0 -176 -89 -264t-255 -88q-165 0 -250.5 88t-85.5 264v416q0 173 93 258.5t247 85.5zM395 877q-78 0 -78 -113v-442q0 -119 78 -119q42 0 59 30t17 91v442q0 54 -16.5 82.5t-59.5 28.5zM266 1425h260l168 -237h-223
l-76 110l-73 -110h-224z" />
    <glyph glyph-name="otilde" unicode="&#xf5;" horiz-adv-x="788" 
d="M395 1096q159 0 249.5 -88.5t90.5 -266.5v-405q0 -176 -89 -264t-255 -88q-165 0 -250.5 88t-85.5 264v416q0 173 93 258.5t247 85.5zM395 877q-78 0 -78 -113v-442q0 -119 78 -119q42 0 59 30t17 91v442q0 54 -16.5 82.5t-59.5 28.5zM287 1178h-154v63q0 178 141 178
q53 0 125.5 -32.5t87.5 -32.5q7 0 11 2t7 12.5t3 30.5v16h147v-55q0 -103 -35 -146t-98 -43q-47 0 -120.5 34t-94.5 34q-11 0 -15.5 -8.5t-4.5 -34.5v-18z" />
    <glyph glyph-name="odieresis" unicode="&#xf6;" horiz-adv-x="788" 
d="M395 1096q159 0 249.5 -88.5t90.5 -266.5v-405q0 -176 -89 -264t-255 -88q-165 0 -250.5 88t-85.5 264v416q0 173 93 258.5t247 85.5zM395 877q-78 0 -78 -113v-442q0 -119 78 -119q42 0 59 30t17 91v442q0 54 -16.5 82.5t-59.5 28.5zM352 1188h-225v239h225v-239z
M664 1188h-226v239h226v-239z" />
    <glyph glyph-name="divide" unicode="&#xf7;" horiz-adv-x="1005" 
d="M610 700h-209v230h209v-230zM84 600h838v-199h-838v199zM610 76h-209v225h209v-225z" />
    <glyph glyph-name="oslash" unicode="&#xf8;" horiz-adv-x="788" 
d="M397 1096q114 0 191 -45l12 28h90l-39 -82q84 -93 84 -282v-365q0 -180 -90 -273t-254 -93q-118 0 -194 49l-17 -33h-86l41 86q-80 96 -80 262v385q0 93 27.5 164.5t75.5 114t108.5 63.5t130.5 21zM395 885q-42 0 -65 -35t-23 -92v-303l168 360q-14 70 -80 70zM395 199
q86 0 86 135v303l-170 -358q16 -80 84 -80z" />
    <glyph glyph-name="ugrave" unicode="&#xf9;" horiz-adv-x="829" 
d="M754 1079v-737q0 -283 2 -342h-252q-8 50 -8 94q-33 -62 -84 -86t-121 -24q-215 0 -215 278v817h264v-755q0 -58 17 -85.5t55 -27.5q43 0 61.5 32t18.5 109v727h262zM80 1446h289l166 -275h-211z" />
    <glyph glyph-name="uacute" unicode="&#xfa;" horiz-adv-x="829" 
d="M754 1079v-737q0 -283 2 -342h-252q-8 50 -8 94q-33 -62 -84 -86t-121 -24q-215 0 -215 278v817h264v-755q0 -58 17 -85.5t55 -27.5q43 0 61.5 32t18.5 109v727h262zM463 1446h285l-250 -275h-215z" />
    <glyph glyph-name="ucircumflex" unicode="&#xfb;" horiz-adv-x="829" 
d="M754 1079v-737q0 -283 2 -342h-252q-8 50 -8 94q-33 -62 -84 -86t-121 -24q-215 0 -215 278v817h264v-755q0 -58 17 -85.5t55 -27.5q43 0 61.5 32t18.5 109v727h262zM287 1425h260l168 -237h-223l-76 110l-74 -110h-223z" />
    <glyph glyph-name="udieresis" unicode="&#xfc;" horiz-adv-x="829" 
d="M754 1079v-737q0 -283 2 -342h-252q-8 50 -8 94q-33 -62 -84 -86t-121 -24q-215 0 -215 278v817h264v-755q0 -58 17 -85.5t55 -27.5q43 0 61.5 32t18.5 109v727h262zM373 1188h-226v239h226v-239zM684 1188h-225v239h225v-239z" />
    <glyph glyph-name="yacute" unicode="&#xfd;" horiz-adv-x="743" 
d="M-6 1079h285q85 -588 92 -760h10q14 173 96 760h268q-6 -26 -108.5 -518t-122.5 -581q-23 -105 -50 -171t-67 -104.5t-88.5 -52.5t-120.5 -14q-64 0 -122 10l4 223q2 0 24 -2t35 -2q49 0 74.5 19t34.5 73zM426 1450h285l-250 -274h-215z" />
    <glyph glyph-name="thorn" unicode="&#xfe;" horiz-adv-x="808" 
d="M76 -350v1777h264v-440q57 109 192 109q224 0 224 -324v-430q0 -177 -57 -267.5t-189 -90.5q-121 0 -170 88v-422h-264zM340 717v-342q0 -85 16.5 -124.5t61.5 -39.5q76 0 76 125v416q0 58 -17 87t-59 29q-43 0 -60.5 -36.5t-17.5 -114.5z" />
    <glyph glyph-name="ydieresis" unicode="&#xff;" horiz-adv-x="743" 
d="M-6 1079h285q85 -588 92 -760h10q14 173 96 760h268q-6 -26 -108.5 -518t-122.5 -581q-23 -105 -50 -171t-67 -104.5t-88.5 -52.5t-120.5 -14q-64 0 -122 10l4 223q2 0 24 -2t35 -2q49 0 74.5 19t34.5 73zM328 1188h-226v239h226v-239zM639 1188h-225v239h225v-239z" />
    <glyph glyph-name="Amacron" unicode="&#x100;" horiz-adv-x="815" 
d="M487 326h-170l-32 -326h-269l193 1366h391l199 -1366h-273zM340 557h125q-6 59 -19 186.5t-23.5 227t-16.5 157.5h-11q-4 -86 -55 -571zM166 1645h483v-185h-483v185z" />
    <glyph glyph-name="amacron" unicode="&#x101;" 
d="M709 805v-559q0 -176 6 -246h-244q-10 29 -16 80q-58 -96 -185 -96q-59 0 -104.5 26t-72 71t-39.5 100.5t-13 119.5v21q0 342 387 342h18v124q0 59 -12 83t-47 24q-33 0 -46 -24.5t-13 -75.5v-25h-254v16q0 149 76 229.5t247 80.5q312 0 312 -291zM449 352v127h-25
q-63 0 -96 -33.5t-33 -113.5v-15q0 -112 76 -112q41 0 59.5 33t18.5 114zM164 1395h457v-187h-457v187z" />
    <glyph glyph-name="Abreve" unicode="&#x102;" horiz-adv-x="815" 
d="M487 326h-170l-32 -326h-269l193 1366h391l199 -1366h-273zM340 557h125q-6 59 -19 186.5t-23.5 227t-16.5 157.5h-11q-4 -86 -55 -571zM135 1673h187q15 -74 86 -74t84 74h186q-7 -46 -25 -85.5t-49.5 -74.5t-83 -55t-117.5 -20q-126 0 -193 68.5t-75 166.5z" />
    <glyph glyph-name="abreve" unicode="&#x103;" 
d="M709 805v-559q0 -176 6 -246h-244q-10 29 -16 80q-58 -96 -185 -96q-59 0 -104.5 26t-72 71t-39.5 100.5t-13 119.5v21q0 342 387 342h18v124q0 59 -12 83t-47 24q-33 0 -46 -24.5t-13 -75.5v-25h-254v16q0 149 76 229.5t247 80.5q312 0 312 -291zM449 352v127h-25
q-63 0 -96 -33.5t-33 -113.5v-15q0 -112 76 -112q41 0 59.5 33t18.5 114zM123 1419h194q3 -32 22.5 -52.5t55.5 -20.5q66 0 74 73h195q-4 -45 -20.5 -85.5t-47.5 -76t-84 -56.5t-121 -21q-66 0 -118 21.5t-82.5 57.5t-47.5 76.5t-20 83.5z" />
    <glyph glyph-name="Aogonek" unicode="&#x104;" horiz-adv-x="815" 
d="M487 326h-170l-32 -326h-269l193 1366h391l199 -1366h-8q-84 -65 -84 -125q0 -59 65 -59q33 0 57 8l11 -172q-50 -29 -162 -29q-101 0 -155 50.5t-54 129.5q0 114 102 197h-45zM340 557h125q-6 59 -19 186.5t-23.5 227t-16.5 157.5h-11q-4 -86 -55 -571z" />
    <glyph glyph-name="aogonek" unicode="&#x105;" 
d="M709 805v-559q0 -176 6 -246h-6q-84 -65 -84 -125q0 -59 65 -59q34 0 58 8l10 -172q-50 -29 -162 -29q-101 0 -155 50.5t-54 129.5q0 114 102 197h-18q-10 29 -16 80q-58 -96 -185 -96q-59 0 -104.5 26t-72 71t-39.5 100.5t-13 119.5v21q0 342 387 342h18v124
q0 59 -12 83t-47 24q-33 0 -46 -24.5t-13 -75.5v-25h-254v16q0 149 76 229.5t247 80.5q312 0 312 -291zM449 352v127h-25q-63 0 -96 -33.5t-33 -113.5v-15q0 -112 76 -112q41 0 59.5 33t18.5 114z" />
    <glyph glyph-name="Cacute" unicode="&#x106;" horiz-adv-x="768" 
d="M471 446h266v-73q0 -60 -5.5 -107.5t-26.5 -104t-56.5 -93.5t-101.5 -62.5t-156 -25.5q-172 0 -252 91.5t-80 282.5v670q0 178 86.5 270t251.5 92q84 0 146 -21.5t97.5 -55.5t57 -84.5t28.5 -98.5t7 -108v-86h-264v117q0 59 -16 86.5t-56 27.5q-39 0 -55 -27t-16 -87
v-723q0 -60 15 -91.5t56 -31.5t57.5 31t16.5 98v114zM440 1665h308l-269 -205h-231z" />
    <glyph glyph-name="cacute" unicode="&#x107;" horiz-adv-x="733" 
d="M444 383h250v-39q0 -83 -13.5 -143.5t-47.5 -112t-99.5 -78t-162.5 -26.5q-93 0 -156 26t-97.5 79t-48.5 119.5t-14 160.5v370q0 75 15.5 135.5t51 112t101.5 80.5t158 29q81 0 140.5 -21.5t92 -53t52 -79t25 -89t5.5 -93.5v-53h-252v65q0 58 -13.5 85.5t-49.5 27.5
q-35 0 -49.5 -27.5t-14.5 -83.5v-469q0 -53 13.5 -81.5t50.5 -28.5t50 29t13 89v70zM420 1450h285l-250 -274h-215z" />
    <glyph glyph-name="Ccircumflex" unicode="&#x108;" horiz-adv-x="768" 
d="M471 446h266v-73q0 -60 -5.5 -107.5t-26.5 -104t-56.5 -93.5t-101.5 -62.5t-156 -25.5q-172 0 -252 91.5t-80 282.5v670q0 178 86.5 270t251.5 92q84 0 146 -21.5t97.5 -55.5t57 -84.5t28.5 -98.5t7 -108v-86h-264v117q0 59 -16 86.5t-56 27.5q-39 0 -55 -27t-16 -87
v-723q0 -60 15 -91.5t56 -31.5t57.5 31t16.5 98v114zM264 1655h266l179 -203h-240l-74 84l-67 -84h-244z" />
    <glyph glyph-name="ccircumflex" unicode="&#x109;" horiz-adv-x="733" 
d="M444 383h250v-39q0 -83 -13.5 -143.5t-47.5 -112t-99.5 -78t-162.5 -26.5q-93 0 -156 26t-97.5 79t-48.5 119.5t-14 160.5v370q0 75 15.5 135.5t51 112t101.5 80.5t158 29q81 0 140.5 -21.5t92 -53t52 -79t25 -89t5.5 -93.5v-53h-252v65q0 58 -13.5 85.5t-49.5 27.5
q-35 0 -49.5 -27.5t-14.5 -83.5v-469q0 -53 13.5 -81.5t50.5 -28.5t50 29t13 89v70zM254 1427h260l168 -237h-223l-76 110l-74 -110h-223z" />
    <glyph glyph-name="Cdotaccent" unicode="&#x10a;" horiz-adv-x="768" 
d="M471 446h266v-73q0 -60 -5.5 -107.5t-26.5 -104t-56.5 -93.5t-101.5 -62.5t-156 -25.5q-172 0 -252 91.5t-80 282.5v670q0 178 86.5 270t251.5 92q84 0 146 -21.5t97.5 -55.5t57 -84.5t28.5 -98.5t7 -108v-86h-264v117q0 59 -16 86.5t-56 27.5q-39 0 -55 -27t-16 -87
v-723q0 -60 15 -91.5t56 -31.5t57.5 31t16.5 98v114zM530 1456h-266v238h266v-238z" />
    <glyph glyph-name="cdotaccent" unicode="&#x10b;" horiz-adv-x="733" 
d="M444 383h250v-39q0 -83 -13.5 -143.5t-47.5 -112t-99.5 -78t-162.5 -26.5q-93 0 -156 26t-97.5 79t-48.5 119.5t-14 160.5v370q0 75 15.5 135.5t51 112t101.5 80.5t158 29q81 0 140.5 -21.5t92 -53t52 -79t25 -89t5.5 -93.5v-53h-252v65q0 58 -13.5 85.5t-49.5 27.5
q-35 0 -49.5 -27.5t-14.5 -83.5v-469q0 -53 13.5 -81.5t50.5 -28.5t50 29t13 89v70zM516 1190h-268v240h268v-240z" />
    <glyph glyph-name="Ccaron" unicode="&#x10c;" horiz-adv-x="768" 
d="M471 446h266v-73q0 -60 -5.5 -107.5t-26.5 -104t-56.5 -93.5t-101.5 -62.5t-156 -25.5q-172 0 -252 91.5t-80 282.5v670q0 178 86.5 270t251.5 92q84 0 146 -21.5t97.5 -55.5t57 -84.5t28.5 -98.5t7 -108v-86h-264v117q0 59 -16 86.5t-56 27.5q-39 0 -55 -27t-16 -87
v-723q0 -60 15 -91.5t56 -31.5t57.5 31t16.5 98v114zM524 1454h-264l-180 203h244l71 -90l68 90h242z" />
    <glyph glyph-name="ccaron" unicode="&#x10d;" horiz-adv-x="733" 
d="M444 383h250v-39q0 -83 -13.5 -143.5t-47.5 -112t-99.5 -78t-162.5 -26.5q-93 0 -156 26t-97.5 79t-48.5 119.5t-14 160.5v370q0 75 15.5 135.5t51 112t101.5 80.5t158 29q81 0 140.5 -21.5t92 -53t52 -79t25 -89t5.5 -93.5v-53h-252v65q0 58 -13.5 85.5t-49.5 27.5
q-35 0 -49.5 -27.5t-14.5 -83.5v-469q0 -53 13.5 -81.5t50.5 -28.5t50 29t13 89v70zM504 1184h-258l-170 235h221l76 -110l76 110h223z" />
    <glyph glyph-name="Dcaron" unicode="&#x10e;" horiz-adv-x="843" 
d="M82 0v1366h324q207 0 291.5 -96.5t84.5 -313.5v-514q0 -55 -3.5 -99.5t-13.5 -91t-26.5 -82.5t-44 -69t-65 -54t-90 -33.5t-117.5 -12.5h-340zM344 1153v-942h51q73 0 97 42.5t24 131.5v612q0 81 -26 118.5t-97 37.5h-49zM530 1452h-264l-180 203h244l71 -90l68 90h242z
" />
    <glyph glyph-name="dcaron" unicode="&#x10f;" horiz-adv-x="907" 
d="M471 1427h264v-1126q0 -244 2 -301h-250q-8 58 -8 98q-32 -59 -77.5 -86.5t-118.5 -27.5q-123 0 -175.5 87.5t-52.5 256.5v444q0 146 59 235t187 89q130 0 170 -78v409zM317 752v-424q0 -58 17.5 -87.5t58.5 -29.5q45 0 61.5 36t16.5 111v363q0 79 -14.5 112t-61.5 33
q-42 0 -60 -28t-18 -86zM786 1427h166l-10 -477h-149z" />
    <glyph glyph-name="Dcroat" unicode="&#x110;" horiz-adv-x="864" 
d="M33 827h69v539h324q207 0 292 -96.5t85 -313.5v-514q0 -78 -7.5 -137.5t-30.5 -119.5t-61.5 -98.5t-105 -62.5t-156.5 -24h-340v606h-69v221zM365 1153v-326h96v-221h-96v-395h51q73 0 97 42.5t24 131.5v612q0 81 -26 118.5t-97 37.5h-49z" />
    <glyph glyph-name="dcroat" unicode="&#x111;" horiz-adv-x="811" 
d="M215 1315h256v112h264v-112h90v-162h-90v-852q0 -244 2 -301h-250q-8 58 -8 100q-32 -59 -78 -87.5t-118 -28.5q-126 0 -177 89.5t-51 266.5v395q0 71 12 129.5t39 108.5t77 78t120 28q128 0 168 -75v149h-256v162zM317 737v-409q0 -115 78 -115q43 0 59.5 38.5
t16.5 113.5v340q0 78 -15 112.5t-61 34.5q-78 0 -78 -115z" />
    <glyph glyph-name="Emacron" unicode="&#x112;" horiz-adv-x="690" 
d="M625 836v-232h-281v-373h330l-31 -231h-563v1366h561v-231h-297v-299h281zM115 1651h483v-185h-483v185z" />
    <glyph glyph-name="emacron" unicode="&#x113;" horiz-adv-x="770" 
d="M725 471h-410v-156q0 -120 76 -120q43 0 58.5 31.5t15.5 90.5v25h256v-14q0 -49 -6.5 -92t-28 -91t-56 -82t-96 -56.5t-143.5 -22.5q-101 0 -168.5 27t-103.5 80.5t-50 117.5t-14 153v365q0 71 17.5 133.5t55 117t105.5 86.5t160 32q167 0 249.5 -95.5t82.5 -271.5v-258z
M315 659h156v105q0 65 -17.5 94t-60.5 29q-78 0 -78 -123v-105zM156 1395h456v-187h-456v187z" />
    <glyph glyph-name="Ebreve" unicode="&#x114;" horiz-adv-x="690" 
d="M625 836v-232h-281v-373h330l-31 -231h-563v1366h561v-231h-297v-299h281zM86 1679h186q15 -73 86 -73t84 73h187q-7 -46 -25 -85.5t-49.5 -74.5t-83 -55t-117.5 -20q-126 0 -193 68.5t-75 166.5z" />
    <glyph glyph-name="ebreve" unicode="&#x115;" horiz-adv-x="770" 
d="M725 471h-410v-156q0 -120 76 -120q43 0 58.5 31.5t15.5 90.5v25h256v-14q0 -49 -6.5 -92t-28 -91t-56 -82t-96 -56.5t-143.5 -22.5q-101 0 -168.5 27t-103.5 80.5t-50 117.5t-14 153v365q0 71 17.5 133.5t55 117t105.5 86.5t160 32q167 0 249.5 -95.5t82.5 -271.5v-258z
M315 659h156v105q0 65 -17.5 94t-60.5 29q-78 0 -78 -123v-105zM115 1419h194q3 -32 22.5 -52.5t55.5 -20.5q66 0 74 73h194q-4 -45 -20.5 -85.5t-47.5 -76t-83.5 -56.5t-120.5 -21q-66 0 -118 21.5t-82.5 57.5t-47.5 76.5t-20 83.5z" />
    <glyph glyph-name="Edotaccent" unicode="&#x116;" horiz-adv-x="690" 
d="M625 836v-232h-281v-373h330l-31 -231h-563v1366h561v-231h-297v-299h281zM492 1456h-267v238h267v-238z" />
    <glyph glyph-name="edotaccent" unicode="&#x117;" horiz-adv-x="770" 
d="M725 471h-410v-156q0 -120 76 -120q43 0 58.5 31.5t15.5 90.5v25h256v-14q0 -49 -6.5 -92t-28 -91t-56 -82t-96 -56.5t-143.5 -22.5q-101 0 -168.5 27t-103.5 80.5t-50 117.5t-14 153v365q0 71 17.5 133.5t55 117t105.5 86.5t160 32q167 0 249.5 -95.5t82.5 -271.5v-258z
M315 659h156v105q0 65 -17.5 94t-60.5 29q-78 0 -78 -123v-105zM520 1188h-268v239h268v-239z" />
    <glyph glyph-name="Eogonek" unicode="&#x118;" horiz-adv-x="690" 
d="M625 836v-232h-281v-373h330l-31 -231h-33q-84 -65 -84 -125q0 -27 16 -43t50 -16q33 0 57 8l10 -172q-50 -29 -161 -29q-101 0 -155 50.5t-54 129.5q0 114 102 197h-311v1366h561v-231h-297v-299h281z" />
    <glyph glyph-name="eogonek" unicode="&#x119;" horiz-adv-x="770" 
d="M725 471h-410v-156q0 -120 76 -120q43 0 58.5 31.5t15.5 90.5v25h256v-14q0 -248 -172 -318q-80 -61 -80 -121q0 -27 16.5 -43t49.5 -16t57 8l10 -172q-49 -28 -162 -28q-101 0 -155 50.5t-54 129.5q0 96 76 172q-75 11 -125.5 42t-77.5 82t-38 110t-11 138v365
q0 71 17.5 133.5t55 117t105.5 86.5t160 32q167 0 249.5 -95.5t82.5 -271.5v-258zM315 659h156v105q0 65 -17.5 94t-60.5 29q-78 0 -78 -123v-105z" />
    <glyph glyph-name="Ecaron" unicode="&#x11a;" horiz-adv-x="690" 
d="M625 836v-232h-281v-373h330l-31 -231h-563v1366h561v-231h-297v-299h281zM489 1452h-264l-180 203h244l71 -90l68 90h242z" />
    <glyph glyph-name="ecaron" unicode="&#x11b;" horiz-adv-x="770" 
d="M725 471h-410v-156q0 -120 76 -120q43 0 58.5 31.5t15.5 90.5v25h256v-14q0 -49 -6.5 -92t-28 -91t-56 -82t-96 -56.5t-143.5 -22.5q-101 0 -168.5 27t-103.5 80.5t-50 117.5t-14 153v365q0 71 17.5 133.5t55 117t105.5 86.5t160 32q167 0 249.5 -95.5t82.5 -271.5v-258z
M315 659h156v105q0 65 -17.5 94t-60.5 29q-78 0 -78 -123v-105zM522 1182h-258l-170 235h221l76 -110l76 110h223z" />
    <glyph glyph-name="Gcircumflex" unicode="&#x11c;" horiz-adv-x="829" 
d="M758 780v-780h-197q-7 30 -12 100q-57 -120 -217 -120q-77 0 -131.5 27.5t-84.5 79.5t-43.5 118.5t-13.5 154.5v644q0 83 18.5 149.5t58 120t109 83t163.5 29.5q346 0 346 -366v-62h-265v76q0 61 -15.5 94t-65.5 33q-44 0 -63 -32t-19 -101v-700q0 -127 82 -127
q48 0 67 37t19 124v197h-91v221h355zM272 1653h267l178 -203h-240l-74 84l-67 -84h-244z" />
    <glyph glyph-name="gcircumflex" unicode="&#x11d;" horiz-adv-x="811" 
d="M735 780v-692q0 -63 -2 -107t-10.5 -95.5t-23 -85.5t-41 -68.5t-63.5 -54t-91.5 -32t-124.5 -12.5q-91 0 -156 24.5t-100 67t-50.5 91t-15.5 106.5v6h262v-4q0 -18 4 -34t22 -32t48 -16q51 0 66.5 37.5t15.5 132.5v121q-46 -104 -182 -104q-57 0 -99.5 17.5t-68.5 46.5
t-42 73t-22 90t-6 104v412q0 48 6.5 90.5t24 86.5t45 75.5t73.5 51.5t105 20q145 0 180 -111q4 66 11 94h239q-4 -140 -4 -299zM317 752v-371q0 -65 17.5 -96t56.5 -31q46 0 63 34t17 115v336q0 29 -2 48.5t-9 39t-22 29.5t-39 10q-82 0 -82 -114zM276 1425h261l168 -237
h-224l-75 110l-74 -110h-223z" />
    <glyph glyph-name="Gbreve" unicode="&#x11e;" horiz-adv-x="829" 
d="M758 780v-780h-197q-7 30 -12 100q-57 -120 -217 -120q-77 0 -131.5 27.5t-84.5 79.5t-43.5 118.5t-13.5 154.5v644q0 83 18.5 149.5t58 120t109 83t163.5 29.5q346 0 346 -366v-62h-265v76q0 61 -15.5 94t-65.5 33q-44 0 -63 -32t-19 -101v-700q0 -127 82 -127
q48 0 67 37t19 124v197h-91v221h355zM131 1686h186q15 -74 86 -74t84 74h187q-7 -46 -25 -86t-49.5 -75t-83 -55t-117.5 -20q-65 0 -116 20t-82 54.5t-48.5 75t-21.5 86.5z" />
    <glyph glyph-name="gbreve" unicode="&#x11f;" horiz-adv-x="811" 
d="M735 780v-692q0 -63 -2 -107t-10.5 -95.5t-23 -85.5t-41 -68.5t-63.5 -54t-91.5 -32t-124.5 -12.5q-91 0 -156 24.5t-100 67t-50.5 91t-15.5 106.5v6h262v-4q0 -18 4 -34t22 -32t48 -16q51 0 66.5 37.5t15.5 132.5v121q-46 -104 -182 -104q-57 0 -99.5 17.5t-68.5 46.5
t-42 73t-22 90t-6 104v412q0 48 6.5 90.5t24 86.5t45 75.5t73.5 51.5t105 20q145 0 180 -111q4 66 11 94h239q-4 -140 -4 -299zM317 752v-371q0 -65 17.5 -96t56.5 -31q46 0 63 34t17 115v336q0 29 -2 48.5t-9 39t-22 29.5t-39 10q-82 0 -82 -114zM135 1417h195
q3 -32 22.5 -53t55.5 -21q65 0 73 74h195q-4 -45 -20.5 -85.5t-47.5 -76t-84 -56.5t-121 -21q-66 0 -118 21.5t-82.5 57.5t-47.5 76.5t-20 83.5z" />
    <glyph glyph-name="Gdotaccent" unicode="&#x120;" horiz-adv-x="829" 
d="M758 780v-780h-197q-7 30 -12 100q-57 -120 -217 -120q-77 0 -131.5 27.5t-84.5 79.5t-43.5 118.5t-13.5 154.5v644q0 83 18.5 149.5t58 120t109 83t163.5 29.5q346 0 346 -366v-62h-265v76q0 61 -15.5 94t-65.5 33q-44 0 -63 -32t-19 -101v-700q0 -127 82 -127
q48 0 67 37t19 124v197h-91v221h355zM547 1456h-266v238h266v-238z" />
    <glyph glyph-name="gdotaccent" unicode="&#x121;" horiz-adv-x="811" 
d="M735 780v-692q0 -63 -2 -107t-10.5 -95.5t-23 -85.5t-41 -68.5t-63.5 -54t-91.5 -32t-124.5 -12.5q-91 0 -156 24.5t-100 67t-50.5 91t-15.5 106.5v6h262v-4q0 -18 4 -34t22 -32t48 -16q51 0 66.5 37.5t15.5 132.5v121q-46 -104 -182 -104q-57 0 -99.5 17.5t-68.5 46.5
t-42 73t-22 90t-6 104v412q0 48 6.5 90.5t24 86.5t45 75.5t73.5 51.5t105 20q145 0 180 -111q4 66 11 94h239q-4 -140 -4 -299zM317 752v-371q0 -65 17.5 -96t56.5 -31q46 0 63 34t17 115v336q0 29 -2 48.5t-9 39t-22 29.5t-39 10q-82 0 -82 -114zM547 1188h-268v239h268
v-239z" />
    <glyph glyph-name="uni0122" unicode="&#x122;" horiz-adv-x="829" 
d="M758 780v-780h-197q-7 30 -12 100q-57 -120 -217 -120q-77 0 -131.5 27.5t-84.5 79.5t-43.5 118.5t-13.5 154.5v644q0 83 18.5 149.5t58 120t109 83t163.5 29.5q346 0 346 -366v-62h-265v76q0 61 -15.5 94t-65.5 33q-44 0 -63 -32t-19 -101v-700q0 -127 82 -127
q48 0 67 37t19 124v197h-91v221h355zM424 -408h-201q32 66 56.5 158.5t27.5 159.5h248q-8 -95 -47.5 -184.5t-83.5 -133.5z" />
    <glyph glyph-name="uni0123" unicode="&#x123;" horiz-adv-x="811" 
d="M446 1507h213q-44 -66 -81.5 -160.5t-51.5 -172.5h-235q13 87 60.5 187.5t94.5 145.5zM735 780v-692q0 -63 -2 -107t-10.5 -95.5t-23 -85.5t-41 -68.5t-63.5 -54t-91.5 -32t-124.5 -12.5q-91 0 -156 24.5t-100 67t-50.5 91t-15.5 106.5v6h262v-4q0 -18 4 -34t22 -32
t48 -16q51 0 66.5 37.5t15.5 132.5v121q-46 -104 -182 -104q-57 0 -99.5 17.5t-68.5 46.5t-42 73t-22 90t-6 104v412q0 48 6.5 90.5t24 86.5t45 75.5t73.5 51.5t105 20q145 0 180 -111q4 66 11 94h239q-4 -140 -4 -299zM317 752v-371q0 -65 17.5 -96t56.5 -31q46 0 63 34
t17 115v336q0 29 -2 48.5t-9 39t-22 29.5t-39 10q-82 0 -82 -114z" />
    <glyph glyph-name="Hcircumflex" unicode="&#x124;" horiz-adv-x="862" 
d="M82 0v1366h262v-526h172v526h264v-1366h-264v608h-172v-608h-262zM297 1653h266l178 -203h-239l-74 84l-68 -84h-243z" />
    <glyph glyph-name="hcircumflex" unicode="&#x125;" horiz-adv-x="833" 
d="M59 1679h299l185 -184h-254l-80 76l-80 -76h-258zM76 0v1427h264v-432q63 101 199 101q219 0 219 -277v-819h-264v754q0 55 -15.5 83.5t-58.5 28.5q-44 0 -62 -30.5t-18 -106.5v-729h-264z" />
    <glyph glyph-name="Hbar" unicode="&#x126;" horiz-adv-x="862" 
d="M18 1180h64v186h262v-186h172v186h264v-186h66v-187h-66v-993h-264v608h-172v-608h-262v993h-64v187zM344 840h172v153h-172v-153z" />
    <glyph glyph-name="hbar" unicode="&#x127;" horiz-adv-x="833" 
d="M76 0v1153h-107v162h107v112h264v-112h242v-162h-242v-174q63 100 199 100q219 0 219 -276v-803h-264v739q0 54 -16 83.5t-58 29.5q-44 0 -62 -31t-18 -108v-713h-264z" />
    <glyph glyph-name="Itilde" unicode="&#x128;" horiz-adv-x="428" 
d="M82 1366h262v-1366h-262v1366zM86 1458h-158v43q0 108 41.5 149.5t112.5 41.5q56 0 133.5 -28t93.5 -28q33 0 33 37v19h154v-35q0 -115 -37 -159t-113 -44q-50 0 -128.5 27.5t-100.5 27.5q-31 0 -31 -36v-15z" />
    <glyph glyph-name="itilde" unicode="&#x129;" horiz-adv-x="415" 
d="M76 0v1079h264v-1079h-264zM98 1178h-153v63q0 178 141 178q53 0 125.5 -32.5t87.5 -32.5q7 0 10.5 2t6.5 12.5t3 30.5v16h148v-55q0 -103 -35 -146t-98 -43q-47 0 -120.5 34t-94.5 34q-11 0 -16 -8.5t-5 -34.5v-18z" />
    <glyph glyph-name="Imacron" unicode="&#x12a;" horiz-adv-x="428" 
d="M82 1366h262v-1366h-262v1366zM-29 1651h484v-185h-484v185z" />
    <glyph glyph-name="imacron" unicode="&#x12b;" horiz-adv-x="415" 
d="M76 0v1079h264v-1079h-264zM-23 1395h457v-187h-457v187z" />
    <glyph glyph-name="Iogonek" unicode="&#x12e;" horiz-adv-x="428" 
d="M82 1366h262v-1366h-6q-84 -65 -84 -125q0 -59 65 -59q34 0 58 8l10 -172q-50 -29 -162 -29q-101 0 -155 50.5t-54 129.5q0 113 103 197h-37v1366z" />
    <glyph glyph-name="iogonek" unicode="&#x12f;" horiz-adv-x="415" 
d="M76 0v1079h264v-1079h-8q-84 -65 -84 -125q0 -59 65 -59q34 0 58 8l10 -172q-50 -29 -162 -29q-101 0 -155 50.5t-54 129.5q0 113 103 197h-37zM78 1188v239h262v-239h-262z" />
    <glyph glyph-name="Idotaccent" unicode="&#x130;" horiz-adv-x="428" 
d="M82 1366h262v-1366h-262v1366zM346 1456h-266v238h266v-238z" />
    <glyph glyph-name="dotlessi" unicode="&#x131;" horiz-adv-x="415" 
d="M76 0v1079h264v-1079h-264z" />
    <glyph glyph-name="Jcircumflex" unicode="&#x134;" horiz-adv-x="487" 
d="M418 1366v-1028q0 -70 -5 -117t-22 -96t-48 -77.5t-85.5 -47t-132.5 -18.5q-67 0 -119 10v217q6 0 26.5 -1t33.5 -1q52 0 70 21t18 81v1057h264zM154 1653h266l178 -203h-240l-73 84l-68 -84h-244z" />
    <glyph glyph-name="jcircumflex" unicode="&#x135;" horiz-adv-x="417" 
d="M78 1079h262v-1061q0 -40 -0.5 -65t-3 -61.5t-7.5 -59.5t-14.5 -52.5t-23.5 -48t-34.5 -38t-47 -30.5t-62 -18t-79.5 -7q-45 0 -105 8v225h47q38 0 53 16t15 62v1130zM80 1425h260l168 -237h-223l-76 110l-74 -110h-223z" />
    <glyph glyph-name="uni0136" unicode="&#x136;" horiz-adv-x="819" 
d="M82 0v1366h254v-594h4q6 18 195 594h290l-229 -528l238 -838h-285l-135 575l-78 -174v-401h-254zM436 -387h-200q32 66 56 157.5t27 159.5h248q-8 -95 -47.5 -184t-83.5 -133z" />
    <glyph glyph-name="uni0137" unicode="&#x137;" horiz-adv-x="765" 
d="M336 1427v-796h6q22 66 80 230t76 218h272q-27 -64 -58.5 -133t-70 -150t-53.5 -114q8 -37 98 -338.5t98 -343.5h-282q-3 21 -50 217t-49 215q-12 -28 -67 -141v-291h-260v1427h260zM412 -393h-201q32 66 56.5 158t27.5 159h248q-8 -95 -47.5 -184t-83.5 -133z" />
    <glyph glyph-name="kgreenlandic" unicode="&#x138;" horiz-adv-x="765" 
d="M336 1079v-450h6q99 287 156 450h272q-55 -131 -182 -401q176 -606 196 -678h-284q-9 40 -43.5 197t-53.5 235q-8 -17 -33.5 -66.5t-33.5 -66.5v-299h-260v1079h260z" />
    <glyph glyph-name="Lacute" unicode="&#x139;" horiz-adv-x="684" 
d="M82 0v1366h262v-1137h332l-25 -229h-569zM281 1661h307l-269 -205h-231z" />
    <glyph glyph-name="lacute" unicode="&#x13a;" horiz-adv-x="415" 
d="M274 1696h310l-271 -197h-229zM340 0h-264v1427h264v-1427z" />
    <glyph glyph-name="uni013B" unicode="&#x13b;" horiz-adv-x="684" 
d="M82 0v1366h262v-1137h332l-25 -229h-569zM362 -399h-200q32 66 56.5 158t27.5 159h248q-8 -95 -48 -184t-84 -133z" />
    <glyph glyph-name="uni013C" unicode="&#x13c;" horiz-adv-x="415" 
d="M340 0h-264v1427h264v-1427zM199 -399h-201q32 66 56.5 158t27.5 159h248q-8 -95 -47.5 -184t-83.5 -133z" />
    <glyph glyph-name="Lcaron" unicode="&#x13d;" horiz-adv-x="684" 
d="M82 0v1366h262v-1137h332l-25 -229h-569zM455 1368h166l-11 -477h-149z" />
    <glyph glyph-name="lcaron" unicode="&#x13e;" horiz-adv-x="536" 
d="M340 0h-264v1427h264v-1427zM393 1427h166l-10 -477h-150z" />
    <glyph glyph-name="Ldot" unicode="&#x13f;" horiz-adv-x="684" 
d="M657 635h-225v285h225v-285zM82 0v1366h262v-1137h332l-25 -229h-569z" />
    <glyph glyph-name="ldot" unicode="&#x140;" horiz-adv-x="598" 
d="M623 748h-230v309h230v-309zM340 0h-264v1427h264v-1427z" />
    <glyph glyph-name="Lslash" unicode="&#x141;" horiz-adv-x="704" 
d="M4 510v184l98 54v618h263v-479l163 86v-185l-163 -86v-473h331l-24 -229h-570v563z" />
    <glyph glyph-name="lslash" unicode="&#x142;" horiz-adv-x="430" 
d="M356 0h-264v682l-82 -51v196l82 52v548h264v-387l97 60v-193l-97 -59v-848z" />
    <glyph glyph-name="Nacute" unicode="&#x143;" horiz-adv-x="872" 
d="M322 0h-240v1366h291l141 -600q26 -108 49 -246h6q-22 286 -22 623v223h244v-1366h-295l-148 680q-6 30 -20 104t-19 97h-6q19 -304 19 -648v-233zM494 1665h307l-269 -205h-231z" />
    <glyph glyph-name="nacute" unicode="&#x144;" horiz-adv-x="831" 
d="M76 0v756q0 282 -2 323h252q8 -58 8 -92q66 109 203 109q108 0 163.5 -71t55.5 -210v-815h-262v760q0 106 -72 106q-45 0 -63.5 -30.5t-18.5 -108.5v-727h-264zM467 1450h285l-250 -274h-215z" />
    <glyph glyph-name="uni0145" unicode="&#x145;" horiz-adv-x="872" 
d="M322 0h-240v1366h291l141 -600q26 -108 49 -246h6q-22 286 -22 623v223h244v-1366h-295l-148 680q-6 30 -20 104t-19 97h-6q19 -304 19 -648v-233zM438 -389h-200q32 66 56.5 158t27.5 159h247q-8 -95 -47.5 -184t-83.5 -133z" />
    <glyph glyph-name="uni0146" unicode="&#x146;" horiz-adv-x="831" 
d="M76 0v756q0 282 -2 323h252q8 -58 8 -92q66 109 203 109q108 0 163.5 -71t55.5 -210v-815h-262v760q0 106 -72 106q-45 0 -63.5 -30.5t-18.5 -108.5v-727h-264zM418 -393h-201q32 66 56.5 158t27.5 159h248q-8 -95 -47.5 -184t-83.5 -133z" />
    <glyph glyph-name="Ncaron" unicode="&#x147;" horiz-adv-x="872" 
d="M322 0h-240v1366h291l141 -600q26 -108 49 -246h6q-22 286 -22 623v223h244v-1366h-295l-148 680q-6 30 -20 104t-19 97h-6q19 -304 19 -648v-233zM567 1452h-264l-180 203h244l71 -90l68 90h242z" />
    <glyph glyph-name="ncaron" unicode="&#x148;" horiz-adv-x="831" 
d="M76 0v756q0 282 -2 323h252q8 -58 8 -92q66 109 203 109q108 0 163.5 -71t55.5 -210v-815h-262v760q0 106 -72 106q-45 0 -63.5 -30.5t-18.5 -108.5v-727h-264zM547 1182h-258l-170 235h221l76 -110l76 110h223z" />
    <glyph glyph-name="napostrophe" unicode="&#x149;" horiz-adv-x="831" 
d="M186 1167h-180q65 175 88 353h228q-18 -94 -55.5 -192.5t-80.5 -160.5zM76 0v756q0 282 -2 323h252q8 -58 8 -92q66 109 203 109q108 0 163.5 -71t55.5 -210v-815h-262v760q0 106 -72 106q-45 0 -63.5 -30.5t-18.5 -108.5v-727h-264z" />
    <glyph glyph-name="Omacron" unicode="&#x14c;" horiz-adv-x="829" 
d="M416 1386q166 0 260 -94.5t94 -290.5v-634q0 -199 -92 -293t-275 -94q-172 0 -258 94t-86 291v643q0 191 95.5 284.5t261.5 93.5zM414 1161q-88 0 -88 -131v-698q0 -129 88 -129q46 0 67 31.5t21 99.5v698q0 67 -20 98t-68 31zM172 1655h483v-185h-483v185z" />
    <glyph glyph-name="omacron" unicode="&#x14d;" horiz-adv-x="788" 
d="M395 1096q159 0 249.5 -88.5t90.5 -266.5v-405q0 -176 -89 -264t-255 -88q-165 0 -250.5 88t-85.5 264v416q0 173 93 258.5t247 85.5zM395 877q-78 0 -78 -113v-442q0 -119 78 -119q42 0 59 30t17 91v442q0 54 -16.5 82.5t-59.5 28.5zM166 1395h457v-187h-457v187z" />
    <glyph glyph-name="Ohungarumlaut" unicode="&#x150;" horiz-adv-x="829" 
d="M416 1386q166 0 260 -94.5t94 -290.5v-634q0 -199 -92 -293t-275 -94q-172 0 -258 94t-86 291v643q0 191 95.5 284.5t261.5 93.5zM414 1161q-88 0 -88 -131v-698q0 -129 88 -129q46 0 67 31.5t21 99.5v698q0 67 -20 98t-68 31zM262 1671h244l-174 -207h-209zM584 1671
h243l-176 -207h-207z" />
    <glyph glyph-name="ohungarumlaut" unicode="&#x151;" horiz-adv-x="788" 
d="M395 1096q159 0 249.5 -88.5t90.5 -266.5v-405q0 -176 -89 -264t-255 -88q-165 0 -250.5 88t-85.5 264v416q0 173 93 258.5t247 85.5zM395 877q-78 0 -78 -113v-442q0 -119 78 -119q42 0 59 30t17 91v442q0 54 -16.5 82.5t-59.5 28.5zM494 1430l-181 -261h-180l131 261
h230zM807 1430l-182 -261h-179l132 261h229z" />
    <glyph glyph-name="OE" unicode="&#x152;" horiz-adv-x="1107" 
d="M1059 1366v-231h-289v-314h272v-231h-272v-359h322l-31 -231h-469q-3 0 -61.5 -4t-104.5 -4q-95 0 -163 22t-107 56.5t-61.5 92t-29 114.5t-6.5 137v567q0 68 10 123t36.5 106.5t69 86t112.5 55t162 20.5q40 0 101 -3l62 -3h447zM506 217v932q-24 4 -47 4
q-73 0 -103 -35.5t-30 -132.5v-610q0 -80 25.5 -120t101.5 -40q37 0 53 2z" />
    <glyph glyph-name="oe" unicode="&#x153;" horiz-adv-x="1175" 
d="M791 -16q-130 0 -207 67q-87 -67 -203 -67q-326 0 -326 352v405q0 182 93 268.5t241 86.5q120 0 207 -74q81 74 207 74q166 0 245.5 -94.5t79.5 -268.5v-262h-403v-156q0 -120 70 -120q44 0 58.5 29.5t16.5 90.5v45h254v-30q0 -61 -8.5 -109.5t-31 -94t-59 -76t-96 -48.5
t-138.5 -18zM391 877q-74 0 -74 -115v-440q0 -59 17 -89t59 -30t58 29.5t16 93.5v438q0 56 -16 84.5t-60 28.5zM727 659h147v86q0 76 -16 109t-59 33q-40 0 -56 -30.5t-16 -113.5v-84z" />
    <glyph glyph-name="Racute" unicode="&#x154;" horiz-adv-x="813" 
d="M82 0v1366h340q174 0 258 -81t84 -257v-49q0 -70 -12.5 -122.5t-34.5 -83t-42 -47t-46 -28.5q45 -22 70.5 -53t40 -90t14.5 -152q0 -345 8 -403h-254q-3 10 -5 24t-3.5 34t-2.5 37t-1.5 46t-1 48t-0.5 54.5v54.5v59v57q0 115 -22 147.5t-97 32.5h-31v-594h-262zM344 1159
v-358h33q69 0 97 31.5t28 123.5v66q0 74 -23.5 105.5t-93.5 31.5h-41zM461 1661h307l-268 -205h-232z" />
    <glyph glyph-name="racute" unicode="&#x155;" horiz-adv-x="573" 
d="M557 1096v-318q-54 0 -88.5 -7t-66.5 -27.5t-47 -63t-15 -109.5v-571h-264v713q0 272 -2 366h250q8 -46 8 -161q28 90 87 133t138 45zM338 1450h285l-250 -274h-215z" />
    <glyph glyph-name="uni0156" unicode="&#x156;" horiz-adv-x="813" 
d="M82 0v1366h340q174 0 258 -81t84 -257v-49q0 -70 -12.5 -122.5t-34.5 -83t-42 -47t-46 -28.5q45 -22 70.5 -53t40 -90t14.5 -152q0 -345 8 -403h-254q-3 10 -5 24t-3.5 34t-2.5 37t-1.5 46t-1 48t-0.5 54.5v54.5v59v57q0 115 -22 147.5t-97 32.5h-31v-594h-262zM344 1159
v-358h33q69 0 97 31.5t28 123.5v66q0 74 -23.5 105.5t-93.5 31.5h-41zM422 -389h-201q32 66 56.5 158t27.5 159h248q-8 -95 -47.5 -184t-83.5 -133z" />
    <glyph glyph-name="uni0157" unicode="&#x157;" horiz-adv-x="573" 
d="M557 1096v-318q-54 0 -88.5 -7t-66.5 -27.5t-47 -63t-15 -109.5v-571h-264v713q0 272 -2 366h250q8 -46 8 -161q28 90 87 133t138 45zM201 -397h-201q32 66 56.5 158t27.5 159h248q-8 -95 -47.5 -184t-83.5 -133z" />
    <glyph glyph-name="Rcaron" unicode="&#x158;" horiz-adv-x="813" 
d="M82 0v1366h340q174 0 258 -81t84 -257v-49q0 -70 -12.5 -122.5t-34.5 -83t-42 -47t-46 -28.5q45 -22 70.5 -53t40 -90t14.5 -152q0 -345 8 -403h-254q-3 10 -5 24t-3.5 34t-2.5 37t-1.5 46t-1 48t-0.5 54.5v54.5v59v57q0 115 -22 147.5t-97 32.5h-31v-594h-262zM344 1159
v-358h33q69 0 97 31.5t28 123.5v66q0 74 -23.5 105.5t-93.5 31.5h-41zM537 1452h-265l-180 203h244l72 -90l67 90h242z" />
    <glyph glyph-name="rcaron" unicode="&#x159;" horiz-adv-x="573" 
d="M557 1096v-318q-54 0 -88.5 -7t-66.5 -27.5t-47 -63t-15 -109.5v-571h-264v713q0 272 -2 366h250q8 -46 8 -161q28 90 87 133t138 45zM428 1182h-258l-170 235h221l76 -110l76 110h223z" />
    <glyph glyph-name="Sacute" unicode="&#x15a;" horiz-adv-x="755" 
d="M35 422h258v-96q0 -67 19 -99t63 -32q76 0 76 127q0 95 -29 144t-135 138q-68 57 -104 92.5t-70 84.5t-47 104t-13 129q0 375 324 375q79 0 137.5 -21.5t92 -54.5t53.5 -81t26 -91.5t6 -96.5v-77h-248v82q0 64 -14 93t-51 29q-36 0 -51 -29t-15 -89q0 -65 24 -106.5
t105 -104.5q81 -64 128.5 -109.5t82.5 -101t48.5 -116t13.5 -144.5q0 -86 -16.5 -153t-54 -122.5t-106.5 -85.5t-167 -30q-95 0 -162 27t-104 77.5t-53.5 113t-16.5 142.5v82zM434 1665h307l-268 -205h-231z" />
    <glyph glyph-name="sacute" unicode="&#x15b;" horiz-adv-x="716" 
d="M33 350h252v-51q0 -109 67 -109q60 0 60 82q0 49 -26.5 87.5t-115.5 95.5q-125 77 -175 149t-50 187q0 148 79 226.5t228 78.5q88 0 149.5 -23t95 -67.5t48 -99t14.5 -126.5v-45h-241v64q0 51 -14 71.5t-46 20.5q-55 0 -55 -78q0 -37 23 -64t92 -69q149 -92 203.5 -170.5
t54.5 -200.5q0 -162 -77.5 -243.5t-248.5 -81.5q-80 0 -139 19.5t-92.5 49.5t-53.5 75t-26 87t-6 94v41zM399 1450h285l-250 -274h-215z" />
    <glyph glyph-name="Scircumflex" unicode="&#x15c;" horiz-adv-x="755" 
d="M35 422h258v-96q0 -67 19 -99t63 -32q76 0 76 127q0 95 -29 144t-135 138q-68 57 -104 92.5t-70 84.5t-47 104t-13 129q0 375 324 375q79 0 137.5 -21.5t92 -54.5t53.5 -81t26 -91.5t6 -96.5v-77h-248v82q0 64 -14 93t-51 29q-36 0 -51 -29t-15 -89q0 -65 24 -106.5
t105 -104.5q81 -64 128.5 -109.5t82.5 -101t48.5 -116t13.5 -144.5q0 -86 -16.5 -153t-54 -122.5t-106.5 -85.5t-167 -30q-95 0 -162 27t-104 77.5t-53.5 113t-16.5 142.5v82zM244 1653h266l178 -203h-239l-74 84l-68 -84h-244z" />
    <glyph glyph-name="scircumflex" unicode="&#x15d;" horiz-adv-x="716" 
d="M33 350h252v-51q0 -109 67 -109q60 0 60 82q0 49 -26.5 87.5t-115.5 95.5q-125 77 -175 149t-50 187q0 148 79 226.5t228 78.5q88 0 149.5 -23t95 -67.5t48 -99t14.5 -126.5v-45h-241v64q0 51 -14 71.5t-46 20.5q-55 0 -55 -78q0 -37 23 -64t92 -69q149 -92 203.5 -170.5
t54.5 -200.5q0 -162 -77.5 -243.5t-248.5 -81.5q-80 0 -139 19.5t-92.5 49.5t-53.5 75t-26 87t-6 94v41zM229 1425h260l168 -237h-223l-76 110l-73 -110h-224z" />
    <glyph glyph-name="uni015E" unicode="&#x15e;" horiz-adv-x="755" 
d="M35 422h258v-96q0 -67 19 -99t63 -32q76 0 76 127q0 95 -29 144t-135 138q-68 57 -104 92.5t-70 84.5t-47 104t-13 129q0 375 324 375q79 0 137.5 -21.5t92 -54.5t53.5 -81t26 -91.5t6 -96.5v-77h-248v82q0 64 -14 93t-51 29q-36 0 -51 -29t-15 -89q0 -65 24 -106.5
t105 -104.5q81 -64 128.5 -109.5t82.5 -101t48.5 -116t13.5 -144.5q0 -335 -252 -383l-25 -41q133 -44 133 -160q0 -75 -55.5 -124.5t-153.5 -49.5q-107 0 -172 33l39 135q44 -21 88 -21q48 0 48 33q0 43 -117 57v52l45 84q-96 14 -155 65.5t-81 122t-22 166.5v82z" />
    <glyph glyph-name="uni015F" unicode="&#x15f;" horiz-adv-x="716" 
d="M33 350h252v-51q0 -109 67 -109q60 0 60 82q0 49 -26.5 87.5t-115.5 95.5q-125 77 -175 149t-50 187q0 148 79 226.5t228 78.5q88 0 149.5 -23t95 -67.5t48 -99t14.5 -126.5v-45h-241v64q0 51 -14 71.5t-46 20.5q-55 0 -55 -78q0 -37 23 -64t92 -69q149 -92 203.5 -170.5
t54.5 -200.5q0 -140 -57.5 -219.5t-180.5 -99.5l-24 -39q133 -44 133 -160q0 -75 -55.5 -124.5t-153.5 -49.5q-107 0 -172 33l39 135q44 -21 88 -21q47 0 47 33q0 44 -117 58v51l45 84q-59 9 -102.5 32t-68.5 53t-40 71t-19.5 79t-4.5 84v41z" />
    <glyph glyph-name="Scaron" unicode="&#x160;" horiz-adv-x="755" 
d="M35 422h258v-96q0 -67 19 -99t63 -32q76 0 76 127q0 95 -29 144t-135 138q-68 57 -104 92.5t-70 84.5t-47 104t-13 129q0 375 324 375q79 0 137.5 -21.5t92 -54.5t53.5 -81t26 -91.5t6 -96.5v-77h-248v82q0 64 -14 93t-51 29q-36 0 -51 -29t-15 -89q0 -65 24 -106.5
t105 -104.5q81 -64 128.5 -109.5t82.5 -101t48.5 -116t13.5 -144.5q0 -86 -16.5 -153t-54 -122.5t-106.5 -85.5t-167 -30q-95 0 -162 27t-104 77.5t-53.5 113t-16.5 142.5v82zM508 1456h-264l-181 203h244l72 -90l67 90h242z" />
    <glyph glyph-name="scaron" unicode="&#x161;" horiz-adv-x="716" 
d="M33 350h252v-51q0 -109 67 -109q60 0 60 82q0 49 -26.5 87.5t-115.5 95.5q-125 77 -175 149t-50 187q0 148 79 226.5t228 78.5q88 0 149.5 -23t95 -67.5t48 -99t14.5 -126.5v-45h-241v64q0 51 -14 71.5t-46 20.5q-55 0 -55 -78q0 -37 23 -64t92 -69q149 -92 203.5 -170.5
t54.5 -200.5q0 -162 -77.5 -243.5t-248.5 -81.5q-80 0 -139 19.5t-92.5 49.5t-53.5 75t-26 87t-6 94v41zM489 1182h-258l-170 235h222l75 -110l76 110h223z" />
    <glyph glyph-name="uni0162" unicode="&#x162;" horiz-adv-x="684" 
d="M209 0v1135h-199v231h662v-231h-199v-1135h-39l-33 -53q134 -44 134 -160q0 -75 -55.5 -124.5t-153.5 -49.5q-107 0 -172 33l39 135q44 -21 88 -21q47 0 47 33q0 43 -117 57v52l53 98h-55z" />
    <glyph glyph-name="uni0163" unicode="&#x163;" horiz-adv-x="512" 
d="M-2 846v233h108v244h261v-244h122v-233h-122v-561q0 -42 12.5 -60t54.5 -18q37 0 47 4v-203q-46 -18 -119 -22l-24 -39q133 -44 133 -160q0 -75 -55.5 -124.5t-153.5 -49.5q-107 0 -172 33l39 135q44 -21 88 -21q47 0 47 33q0 43 -117 57v52l58 104q-53 24 -78 77.5
t-25 147.5v615h-104z" />
    <glyph glyph-name="Tcaron" unicode="&#x164;" horiz-adv-x="684" 
d="M209 0v1135h-199v231h662v-231h-199v-1135h-264zM471 1438h-264l-180 202h243l72 -90l68 90h241z" />
    <glyph glyph-name="tcaron" unicode="&#x165;" horiz-adv-x="512" 
d="M449 1589h186l-14 -393h-168zM-2 846v233h108v244h261v-244h122v-233h-122v-561q0 -42 12.5 -60t54.5 -18q37 0 47 4v-203q-55 -22 -151 -22q-122 0 -175 53.5t-53 191.5v615h-104z" />
    <glyph glyph-name="Utilde" unicode="&#x168;" horiz-adv-x="847" 
d="M76 1366h264v-1040q0 -123 84 -123q82 0 82 123v1040h266v-1024q0 -183 -86 -271.5t-266 -88.5q-178 0 -261 88t-83 276v1020zM297 1458h-158v43q0 108 41.5 149.5t112.5 41.5q56 0 133.5 -28t93.5 -28q33 0 33 37v19h154v-35q0 -115 -37 -159t-113 -44
q-50 0 -128.5 27.5t-100.5 27.5q-31 0 -31 -36v-15z" />
    <glyph glyph-name="utilde" unicode="&#x169;" horiz-adv-x="829" 
d="M754 1079v-737q0 -283 2 -342h-252q-8 50 -8 94q-33 -62 -84 -86t-121 -24q-215 0 -215 278v817h264v-755q0 -58 17 -85.5t55 -27.5q43 0 61.5 32t18.5 109v727h262zM307 1178h-153v63q0 178 141 178q53 0 125.5 -32.5t87.5 -32.5q7 0 10.5 2t6.5 12.5t3 30.5v16h148v-55
q0 -103 -35 -146t-98 -43q-47 0 -120.5 34t-94.5 34q-11 0 -16 -8.5t-5 -34.5v-18z" />
    <glyph glyph-name="Umacron" unicode="&#x16a;" horiz-adv-x="847" 
d="M76 1366h264v-1040q0 -123 84 -123q82 0 82 123v1040h266v-1024q0 -183 -86 -271.5t-266 -88.5q-178 0 -261 88t-83 276v1020zM182 1651h484v-185h-484v185z" />
    <glyph glyph-name="umacron" unicode="&#x16b;" horiz-adv-x="829" 
d="M754 1079v-737q0 -283 2 -342h-252q-8 50 -8 94q-33 -62 -84 -86t-121 -24q-215 0 -215 278v817h264v-755q0 -58 17 -85.5t55 -27.5q43 0 61.5 32t18.5 109v727h262zM186 1395h457v-187h-457v187z" />
    <glyph glyph-name="Ubreve" unicode="&#x16c;" horiz-adv-x="847" 
d="M76 1366h264v-1040q0 -123 84 -123q82 0 82 123v1040h266v-1024q0 -183 -86 -271.5t-266 -88.5q-178 0 -261 88t-83 276v1020zM152 1669h186q15 -74 86 -74t84 74h186q-7 -46 -25 -85.5t-49 -74.5t-82.5 -55t-117.5 -20q-126 0 -193 68.5t-75 166.5z" />
    <glyph glyph-name="ubreve" unicode="&#x16d;" horiz-adv-x="829" 
d="M754 1079v-737q0 -283 2 -342h-252q-8 50 -8 94q-33 -62 -84 -86t-121 -24q-215 0 -215 278v817h264v-755q0 -58 17 -85.5t55 -27.5q43 0 61.5 32t18.5 109v727h262zM145 1417h195q3 -32 22.5 -53t55.5 -21q66 0 74 74h194q-4 -45 -20.5 -85.5t-47.5 -76t-83.5 -56.5
t-120.5 -21q-66 0 -118 21.5t-83 57.5t-48 76.5t-20 83.5z" />
    <glyph glyph-name="Uring" unicode="&#x16e;" horiz-adv-x="847" 
d="M76 1366h264v-1040q0 -123 84 -123q82 0 82 123v1040h266v-1024q0 -183 -86 -271.5t-266 -88.5q-178 0 -261 88t-83 276v1020zM424 1423q-81 0 -131.5 51.5t-50.5 127.5q0 79 48 132.5t130 53.5t133 -51.5t51 -130.5q0 -81 -51.5 -132t-128.5 -51zM424 1532q31 0 48 21
t17 51t-17.5 51.5t-49.5 21.5t-49 -20.5t-17 -50.5t18 -52t50 -22z" />
    <glyph glyph-name="uring" unicode="&#x16f;" horiz-adv-x="829" 
d="M754 1079v-737q0 -283 2 -342h-252q-8 50 -8 94q-33 -62 -84 -86t-121 -24q-215 0 -215 278v817h264v-755q0 -58 17 -85.5t55 -27.5q43 0 61.5 32t18.5 109v727h262zM418 1157q-81 0 -131.5 51.5t-50.5 126.5q0 80 48 133.5t130 53.5t133 -52t51 -131q0 -81 -51 -131.5
t-129 -50.5zM418 1266q31 0 48 20.5t17 50.5t-17.5 52t-49.5 22t-49 -21t-17 -51t18 -51.5t50 -21.5z" />
    <glyph glyph-name="Uhungarumlaut" unicode="&#x170;" horiz-adv-x="847" 
d="M76 1366h264v-1040q0 -123 84 -123q82 0 82 123v1040h266v-1024q0 -183 -86 -271.5t-266 -88.5q-178 0 -261 88t-83 276v1020zM289 1665h243l-174 -207h-208zM610 1665h244l-176 -207h-207z" />
    <glyph glyph-name="uhungarumlaut" unicode="&#x171;" horiz-adv-x="829" 
d="M754 1079v-737q0 -283 2 -342h-252q-8 50 -8 94q-33 -62 -84 -86t-121 -24q-215 0 -215 278v817h264v-755q0 -58 17 -85.5t55 -27.5q43 0 61.5 32t18.5 109v727h262zM522 1430l-180 -261h-180l131 261h229zM836 1430l-183 -261h-178l131 261h230z" />
    <glyph glyph-name="Uogonek" unicode="&#x172;" horiz-adv-x="847" 
d="M76 1366h264v-1040q0 -123 84 -123q82 0 82 123v1040h266v-1024q0 -258 -174 -330q-78 -62 -78 -121q0 -27 16 -43t50 -16q33 0 57 8l10 -172q-49 -28 -161 -28q-101 0 -155 50.5t-54 129.5q0 93 69 166q-142 15 -209 103t-67 257v1020z" />
    <glyph glyph-name="uogonek" unicode="&#x173;" horiz-adv-x="829" 
d="M754 1079v-737q0 -283 2 -342h-6q-84 -65 -84 -125q0 -59 65 -59q33 0 57 8l11 -172q-50 -29 -162 -29q-101 0 -155 50.5t-54 129.5q0 114 102 197h-26q-8 50 -8 94q-33 -62 -84 -86t-121 -24q-215 0 -215 278v817h264v-755q0 -58 17 -85.5t55 -27.5q43 0 61.5 32
t18.5 109v727h262z" />
    <glyph glyph-name="Wcircumflex" unicode="&#x174;" horiz-adv-x="1112" 
d="M453 0h-275l-155 1366h278q44 -595 53 -922h8q16 148 48 479.5t43 442.5h225q17 -158 50 -520t36 -397h10q26 561 55 917h261l-175 -1366h-272q-7 59 -21 180.5t-23 200.5t-20.5 192.5t-19.5 212.5h-10q-16 -160 -52 -438.5t-44 -347.5zM424 1653h266l178 -203h-239
l-74 84l-68 -84h-243z" />
    <glyph glyph-name="wcircumflex" unicode="&#x175;" horiz-adv-x="1134" 
d="M6 1079h283q49 -438 67 -725h6q5 60 17 154t36.5 274.5t39.5 296.5h243q16 -120 40.5 -295.5t36 -267t16.5 -164.5h6q2 19 10 135t22 265t35 327h266l-198 -1079h-266q-15 103 -50.5 326.5t-44.5 302.5h-8q-4 -48 -15.5 -125t-22 -137t-32.5 -184t-32 -183h-266z
M438 1427h260l168 -237h-223l-76 110l-73 -110h-224z" />
    <glyph glyph-name="Ycircumflex" unicode="&#x176;" horiz-adv-x="743" 
d="M502 0h-262v438q0 28 -11 70l-239 858h286q82 -438 97 -596h8q25 176 102 596h271l-246 -879q-6 -27 -6 -59v-428zM238 1653h266l178 -203h-240l-73 84l-68 -84h-244z" />
    <glyph glyph-name="ycircumflex" unicode="&#x177;" horiz-adv-x="743" 
d="M-6 1079h285q85 -588 92 -760h10q14 173 96 760h268q-6 -26 -108.5 -518t-122.5 -581q-23 -105 -50 -171t-67 -104.5t-88.5 -52.5t-120.5 -14q-64 0 -122 10l4 223q2 0 24 -2t35 -2q49 0 74.5 19t34.5 73zM242 1430h260l168 -238h-224l-75 111l-74 -111h-223z" />
    <glyph glyph-name="Ydieresis" unicode="&#x178;" horiz-adv-x="743" 
d="M502 0h-262v438q0 28 -11 70l-239 858h286q82 -438 97 -596h8q25 176 102 596h271l-246 -879q-6 -27 -6 -59v-428zM328 1460h-219v228h219v-228zM635 1460h-219v228h219v-228z" />
    <glyph glyph-name="Zacute" unicode="&#x179;" horiz-adv-x="696" 
d="M23 0v176l358 957h-324v233h605v-199l-340 -934h352l-31 -233h-620zM422 1659h307l-268 -205h-232z" />
    <glyph glyph-name="zacute" unicode="&#x17a;" horiz-adv-x="647" 
d="M14 0v184q17 35 67.5 143t123 261.5t119.5 253.5h-285v237h582v-186q-16 -38 -126.5 -281t-172.5 -374h307l-21 -238h-594zM389 1446h285l-250 -275h-215z" />
    <glyph glyph-name="Zdotaccent" unicode="&#x17b;" horiz-adv-x="696" 
d="M23 0v176l358 957h-324v233h605v-199l-340 -934h352l-31 -233h-620zM494 1456h-267v238h267v-238z" />
    <glyph glyph-name="zdotaccent" unicode="&#x17c;" horiz-adv-x="647" 
d="M14 0v184q17 35 67.5 143t123 261.5t119.5 253.5h-285v237h582v-186q-16 -38 -126.5 -281t-172.5 -374h307l-21 -238h-594zM459 1188h-269v239h269v-239z" />
    <glyph glyph-name="Zcaron" unicode="&#x17d;" horiz-adv-x="696" 
d="M23 0v176l358 957h-324v233h605v-199l-340 -934h352l-31 -233h-620zM489 1450h-264l-180 203h244l71 -90l68 90h242z" />
    <glyph glyph-name="zcaron" unicode="&#x17e;" horiz-adv-x="647" 
d="M14 0v184q17 35 67.5 143t123 261.5t119.5 253.5h-285v237h582v-186q-16 -38 -126.5 -281t-172.5 -374h307l-21 -238h-594zM467 1182h-258l-170 235h221l76 -110l76 110h223z" />
    <glyph glyph-name="uni018F" unicode="&#x18f;" horiz-adv-x="827" 
d="M322 971h-265v28q0 387 357 387q184 0 268 -100t84 -301v-620q0 -60 -9.5 -112t-35 -103.5t-65 -88t-105 -59t-150.5 -22.5q-94 0 -162 29t-107 82t-57 119t-18 148v412h443v258q0 133 -86 133q-50 0 -71 -32.5t-21 -98.5v-59zM500 543h-176v-215q0 -125 86 -125
q48 0 69 31.5t21 95.5v213z" />
    <glyph glyph-name="florin" unicode="&#x192;" horiz-adv-x="741" 
d="M729 1346l-43 -209q-46 12 -74 12q-35 0 -52 -26.5t-23 -84.5l-21 -157h137v-201h-161l-60 -459q-28 -215 -86.5 -296t-195.5 -81q-101 0 -173 33l39 219q36 -16 82 -16q31 0 44 22t22 86l65 492h-114v201h143l18 141q8 60 19.5 106t33 94.5t52 80t78 51.5t108.5 20
q116 0 162 -28z" />
    <glyph glyph-name="Ohorn" unicode="&#x1a0;" horiz-adv-x="829" 
d="M416 1386q122 0 200 -47q17 20 17 66q0 13 -2 26t-3.5 20t-6.5 23.5t-7 24.5h224q16 -46 16 -108q0 -161 -109 -222q25 -73 25 -168v-634q0 -199 -92 -293t-275 -94q-172 0 -258 94t-86 291v643q0 191 95.5 284.5t261.5 93.5zM414 1161q-88 0 -88 -131v-698
q0 -129 88 -129q46 0 67 31.5t21 99.5v698q0 67 -20 98t-68 31z" />
    <glyph glyph-name="ohorn" unicode="&#x1a1;" horiz-adv-x="788" 
d="M395 1096q103 0 172 -35q21 24 21 72q0 13 -2 26t-3.5 20t-6.5 23.5t-7 24.5h224q16 -46 16 -109q0 -154 -98 -215q24 -68 24 -162v-405q0 -176 -89 -264t-255 -88q-165 0 -250.5 88t-85.5 264v416q0 173 93 258.5t247 85.5zM395 877q-78 0 -78 -113v-442q0 -119 78 -119
q42 0 59 30t17 91v442q0 54 -16.5 82.5t-59.5 28.5z" />
    <glyph glyph-name="Uhorn" unicode="&#x1af;" horiz-adv-x="847" 
d="M76 1366h264v-1040q0 -123 84 -123q82 0 82 123v1040h123l-2 2q43 14 43 84q0 13 -2 26t-3.5 20t-6.5 23.5t-7 24.5h223q17 -49 17 -108q0 -170 -119 -228v-868q0 -183 -86 -271.5t-266 -88.5q-178 0 -261 88t-83 276v1020z" />
    <glyph glyph-name="uhorn" unicode="&#x1b0;" horiz-adv-x="829" 
d="M496 94q-33 -62 -84 -86t-121 -24q-215 0 -215 278v817h264v-755q0 -58 17 -85.5t55 -27.5q43 0 61.5 32t18.5 109v727h116q43 14 43 84q0 27 -18 94h223q16 -46 16 -108q0 -169 -118 -227v-580q0 -283 2 -342h-252q-8 50 -8 94z" />
    <glyph glyph-name="uni01CD" unicode="&#x1cd;" horiz-adv-x="815" 
d="M487 326h-170l-32 -326h-269l193 1366h391l199 -1366h-273zM340 557h125q-6 59 -19 186.5t-23.5 227t-16.5 157.5h-11q-4 -86 -55 -571zM539 1446h-265l-180 203h244l72 -90l67 90h242z" />
    <glyph glyph-name="uni01CE" unicode="&#x1ce;" 
d="M709 805v-559q0 -176 6 -246h-244q-10 29 -16 80q-58 -96 -185 -96q-59 0 -104.5 26t-72 71t-39.5 100.5t-13 119.5v21q0 342 387 342h18v124q0 59 -12 83t-47 24q-33 0 -46 -24.5t-13 -75.5v-25h-254v16q0 149 76 229.5t247 80.5q312 0 312 -291zM449 352v127h-25
q-63 0 -96 -33.5t-33 -113.5v-15q0 -112 76 -112q41 0 59.5 33t18.5 114zM524 1186h-258l-170 235h221l76 -110l76 110h223z" />
    <glyph glyph-name="uni01CF" unicode="&#x1cf;" horiz-adv-x="428" 
d="M82 1366h262v-1366h-262v1366zM344 1452h-264l-180 203h243l72 -90l68 90h241z" />
    <glyph glyph-name="uni01D0" unicode="&#x1d0;" horiz-adv-x="415" 
d="M76 0v1079h264v-1079h-264zM338 1178h-258l-170 235h221l76 -110l76 110h223z" />
    <glyph glyph-name="uni01D1" unicode="&#x1d1;" horiz-adv-x="829" 
d="M416 1386q166 0 260 -94.5t94 -290.5v-634q0 -199 -92 -293t-275 -94q-172 0 -258 94t-86 291v643q0 191 95.5 284.5t261.5 93.5zM414 1161q-88 0 -88 -131v-698q0 -129 88 -129q46 0 67 31.5t21 99.5v698q0 67 -20 98t-68 31zM545 1456h-264l-181 203h244l72 -90l67 90
h242z" />
    <glyph glyph-name="uni01D2" unicode="&#x1d2;" horiz-adv-x="788" 
d="M395 1096q159 0 249.5 -88.5t90.5 -266.5v-405q0 -176 -89 -264t-255 -88q-165 0 -250.5 88t-85.5 264v416q0 173 93 258.5t247 85.5zM395 877q-78 0 -78 -113v-442q0 -119 78 -119q42 0 59 30t17 91v442q0 54 -16.5 82.5t-59.5 28.5zM526 1182h-258l-170 235h221
l76 -110l76 110h223z" />
    <glyph glyph-name="uni01D3" unicode="&#x1d3;" horiz-adv-x="847" 
d="M76 1366h264v-1040q0 -123 84 -123q82 0 82 123v1040h266v-1024q0 -183 -86 -271.5t-266 -88.5q-178 0 -261 88t-83 276v1020zM555 1452h-264l-180 203h243l72 -90l68 90h241z" />
    <glyph glyph-name="uni01D4" unicode="&#x1d4;" horiz-adv-x="829" 
d="M754 1079v-737q0 -283 2 -342h-252q-8 50 -8 94q-33 -62 -84 -86t-121 -24q-215 0 -215 278v817h264v-755q0 -58 17 -85.5t55 -27.5q43 0 61.5 32t18.5 109v727h262zM547 1182h-258l-170 235h221l76 -110l76 110h223z" />
    <glyph glyph-name="uni01D5" unicode="&#x1d5;" horiz-adv-x="847" 
d="M76 1366h264v-1040q0 -123 84 -123q82 0 82 123v1040h266v-1024q0 -183 -86 -271.5t-266 -88.5q-178 0 -261 88t-83 276v1020zM670 1696h-488v145h488v-145zM377 1440h-201v190h201v-190zM674 1440h-203v190h203v-190z" />
    <glyph glyph-name="uni01D6" unicode="&#x1d6;" horiz-adv-x="829" 
d="M754 1079v-737q0 -283 2 -342h-252q-8 50 -8 94q-33 -62 -84 -86t-121 -24q-215 0 -215 278v817h264v-755q0 -58 17 -85.5t55 -27.5q43 0 61.5 32t18.5 109v727h262zM666 1430h-502v161h502v-161zM369 1159h-213v199h213v-199zM676 1159h-213v199h213v-199z" />
    <glyph glyph-name="uni01D7" unicode="&#x1d7;" horiz-adv-x="847" 
d="M76 1366h264v-1040q0 -123 84 -123q82 0 82 123v1040h266v-1024q0 -183 -86 -271.5t-266 -88.5q-178 0 -261 88t-83 276v1020zM537 1690h-246l168 163h286zM158 1634h219v-194h-219v194zM692 1440h-221v194h221v-194z" />
    <glyph glyph-name="uni01D8" unicode="&#x1d8;" horiz-adv-x="829" 
d="M754 1079v-737q0 -283 2 -342h-252q-8 50 -8 94q-33 -62 -84 -86t-121 -24q-215 0 -215 278v817h264v-755q0 -58 17 -85.5t55 -27.5q43 0 61.5 32t18.5 109v727h262zM508 1419h-229l137 187h293zM369 1167h-213v199h213v-199zM676 1167h-213v199h213v-199z" />
    <glyph glyph-name="uni01D9" unicode="&#x1d9;" horiz-adv-x="847" 
d="M76 1366h264v-1040q0 -123 84 -123q82 0 82 123v1040h266v-1024q0 -183 -86 -271.5t-266 -88.5q-178 0 -261 88t-83 276v1020zM539 1683h-250l-168 181h223l70 -80l63 80h228zM377 1440h-219v194h219v-194zM692 1440h-221v194h221v-194z" />
    <glyph glyph-name="uni01DA" unicode="&#x1da;" horiz-adv-x="829" 
d="M754 1079v-737q0 -283 2 -342h-252q-8 50 -8 94q-33 -62 -84 -86t-121 -24q-215 0 -215 278v817h264v-755q0 -58 17 -85.5t55 -27.5q43 0 61.5 32t18.5 109v727h262zM526 1415h-227l-176 189h219l72 -84l67 84h224zM369 1165h-213v199h213v-199zM676 1165h-213v199h213
v-199z" />
    <glyph glyph-name="uni01DB" unicode="&#x1db;" horiz-adv-x="847" 
d="M76 1366h264v-1040q0 -123 84 -123q82 0 82 123v1040h266v-1024q0 -183 -86 -271.5t-266 -88.5q-178 0 -261 88t-83 276v1020zM557 1690h-244l-209 163h287zM158 1634h219v-194h-219v194zM692 1440h-221v194h221v-194z" />
    <glyph glyph-name="uni01DC" unicode="&#x1dc;" horiz-adv-x="829" 
d="M754 1079v-737q0 -283 2 -342h-252q-8 50 -8 94q-33 -62 -84 -86t-121 -24q-215 0 -215 278v817h264v-755q0 -58 17 -85.5t55 -27.5q43 0 61.5 32t18.5 109v727h262zM539 1419h-230l-200 187h292zM367 1167h-213v199h213v-199zM674 1167h-213v199h213v-199z" />
    <glyph glyph-name="Gcaron" unicode="&#x1e6;" horiz-adv-x="829" 
d="M758 780v-780h-197q-7 30 -12 100q-57 -120 -217 -120q-77 0 -131.5 27.5t-84.5 79.5t-43.5 118.5t-13.5 154.5v644q0 83 18.5 149.5t58 120t109 83t163.5 29.5q346 0 346 -366v-62h-265v76q0 61 -15.5 94t-65.5 33q-44 0 -63 -32t-19 -101v-700q0 -127 82 -127
q48 0 67 37t19 124v197h-91v221h355zM545 1456h-264l-181 203h244l72 -90l67 90h242z" />
    <glyph glyph-name="gcaron" unicode="&#x1e7;" horiz-adv-x="811" 
d="M735 780v-692q0 -63 -2 -107t-10.5 -95.5t-23 -85.5t-41 -68.5t-63.5 -54t-91.5 -32t-124.5 -12.5q-91 0 -156 24.5t-100 67t-50.5 91t-15.5 106.5v6h262v-4q0 -18 4 -34t22 -32t48 -16q51 0 66.5 37.5t15.5 132.5v121q-46 -104 -182 -104q-57 0 -99.5 17.5t-68.5 46.5
t-42 73t-22 90t-6 104v412q0 48 6.5 90.5t24 86.5t45 75.5t73.5 51.5t105 20q145 0 180 -111q4 66 11 94h239q-4 -140 -4 -299zM317 752v-371q0 -65 17.5 -96t56.5 -31q46 0 63 34t17 115v336q0 29 -2 48.5t-9 39t-22 29.5t-39 10q-82 0 -82 -114zM541 1182h-258l-170 235
h221l76 -110l75 110h224z" />
    <glyph glyph-name="uni0218" unicode="&#x218;" horiz-adv-x="755" 
d="M35 422h258v-96q0 -67 19 -99t63 -32q76 0 76 127q0 95 -29 144t-135 138q-68 57 -104 92.5t-70 84.5t-47 104t-13 129q0 375 324 375q79 0 137.5 -21.5t92 -54.5t53.5 -81t26 -91.5t6 -96.5v-77h-248v82q0 64 -14 93t-51 29q-36 0 -51 -29t-15 -89q0 -65 24 -106.5
t105 -104.5q81 -64 128.5 -109.5t82.5 -101t48.5 -116t13.5 -144.5q0 -86 -16.5 -153t-54 -122.5t-106.5 -85.5t-167 -30q-95 0 -162 27t-104 77.5t-53.5 113t-16.5 142.5v82zM375 -399h-201q32 66 56.5 158t27.5 159h248q-8 -95 -47.5 -184t-83.5 -133z" />
    <glyph glyph-name="uni0219" unicode="&#x219;" horiz-adv-x="716" 
d="M33 350h252v-51q0 -109 67 -109q60 0 60 82q0 49 -26.5 87.5t-115.5 95.5q-125 77 -175 149t-50 187q0 148 79 226.5t228 78.5q88 0 149.5 -23t95 -67.5t48 -99t14.5 -126.5v-45h-241v64q0 51 -14 71.5t-46 20.5q-55 0 -55 -78q0 -37 23 -64t92 -69q149 -92 203.5 -170.5
t54.5 -200.5q0 -162 -77.5 -243.5t-248.5 -81.5q-80 0 -139 19.5t-92.5 49.5t-53.5 75t-26 87t-6 94v41zM362 -399h-200q32 66 56.5 158t27.5 159h248q-8 -95 -48 -184t-84 -133z" />
    <glyph glyph-name="uni021A" unicode="&#x21a;" horiz-adv-x="684" 
d="M209 0v1135h-199v231h662v-231h-199v-1135h-264zM334 -397h-201q32 66 56.5 158t27.5 159h248q-8 -95 -47.5 -184t-83.5 -133z" />
    <glyph glyph-name="uni021B" unicode="&#x21b;" horiz-adv-x="512" 
d="M-2 846v233h108v244h261v-244h122v-233h-122v-561q0 -42 12.5 -60t54.5 -18q37 0 47 4v-203q-55 -22 -151 -22q-122 0 -175 53.5t-53 191.5v615h-104zM297 -399h-201q32 66 56.5 158t27.5 159h248q-8 -95 -47.5 -184t-83.5 -133z" />
    <glyph glyph-name="uni0237" unicode="&#x237;" horiz-adv-x="417" 
d="M78 1079h262v-1061q0 -40 -0.5 -65t-3 -61.5t-7.5 -59.5t-14.5 -52.5t-23.5 -48t-34.5 -38t-47 -30.5t-62 -18t-79.5 -7q-45 0 -105 8v225h47q38 0 53 16t15 62v1130z" />
    <glyph glyph-name="uni0251" unicode="&#x251;" horiz-adv-x="811" 
d="M487 1079h248v-778q0 -225 8 -301h-249q-15 51 -15 98q-31 -58 -77.5 -86t-118.5 -28q-126 0 -177 89.5t-51 266.5v412q0 71 12 129.5t39 108.5t77 78t120 28q130 0 170 -78q8 44 14 61zM317 752v-424q0 -117 78 -117q43 0 59.5 38.5t16.5 115.5v354q0 79 -14.5 113
t-61.5 34q-78 0 -78 -114z" />
    <glyph glyph-name="uni0259" unicode="&#x259;" horiz-adv-x="770" 
d="M41 606h410v156q0 121 -76 121q-43 0 -58.5 -32t-15.5 -91v-25h-256v15q0 49 6.5 92t28 91t56 82t96 56.5t143.5 22.5q100 0 168 -27t104 -80.5t50 -118t14 -153.5v-365q0 -71 -17.5 -133.5t-55 -116.5t-105.5 -86t-160 -32q-167 0 -249.5 95t-82.5 271v258zM451 418
h-156v-105q0 -65 17.5 -94t60.5 -29q78 0 78 123v105z" />
    <glyph glyph-name="uni0261" unicode="&#x261;" horiz-adv-x="811" 
d="M735 780v-692q0 -63 -2 -107t-10.5 -95.5t-23 -85.5t-41 -68.5t-63.5 -54t-91.5 -32t-124.5 -12.5q-91 0 -156 24.5t-100 67t-50.5 91t-15.5 106.5v6h262v-4q0 -18 4 -34t22 -32t48 -16q51 0 66.5 37.5t15.5 132.5v121q-46 -104 -182 -104q-57 0 -99.5 17.5t-68.5 46.5
t-42 73t-22 90t-6 104v412q0 48 6.5 90.5t24 86.5t45 75.5t73.5 51.5t105 20q145 0 180 -111q4 66 11 94h239q-4 -140 -4 -299zM317 752v-371q0 -65 17.5 -96t56.5 -31q46 0 63 34t17 115v336q0 29 -2 48.5t-9 39t-22 29.5t-39 10q-82 0 -82 -114z" />
    <glyph glyph-name="uni02BB" unicode="&#x2bb;" horiz-adv-x="708" 
d="M319 1427h185q-69 -287 -66 -505h-233q4 133 38.5 277t75.5 228z" />
    <glyph glyph-name="uni02BC" unicode="&#x2bc;" horiz-adv-x="708" 
d="M389 922h-184q65 266 65 505h234q-4 -135 -39 -278.5t-76 -226.5z" />
    <glyph glyph-name="uni02BE" unicode="&#x2be;" horiz-adv-x="641" 
d="M205 1372v139q116 0 173.5 -49.5t57.5 -132.5q0 -84 -56.5 -134t-174.5 -50v129q65 3 65 51q0 44 -65 47z" />
    <glyph glyph-name="uni02BF" unicode="&#x2bf;" horiz-adv-x="641" 
d="M436 1282v-137q-116 0 -173.5 49t-57.5 131q0 84 56.5 135t174.5 51v-131q-65 -3 -65 -51q0 -44 65 -47z" />
    <glyph glyph-name="circumflex" unicode="&#x2c6;" horiz-adv-x="819" 
d="M281 1425h260l168 -237h-224l-75 110l-74 -110h-223z" />
    <glyph glyph-name="caron" unicode="&#x2c7;" horiz-adv-x="819" 
d="M541 1182h-258l-170 235h221l76 -110l75 110h224z" />
    <glyph glyph-name="uni02C8" unicode="&#x2c8;" horiz-adv-x="643" 
d="M438 1174h-233v370h233v-370z" />
    <glyph glyph-name="uni02C9" unicode="&#x2c9;" horiz-adv-x="866" 
d="M205 1395h457v-187h-457v187z" />
    <glyph glyph-name="uni02CA" unicode="&#x2ca;" horiz-adv-x="864" 
d="M401 1450h285l-250 -274h-215z" />
    <glyph glyph-name="uni02CB" unicode="&#x2cb;" horiz-adv-x="864" 
d="M186 1450h289l166 -274h-211z" />
    <glyph glyph-name="uni02CC" unicode="&#x2cc;" horiz-adv-x="643" 
d="M438 -465h-233v371h233v-371z" />
    <glyph glyph-name="breve" unicode="&#x2d8;" horiz-adv-x="819" 
d="M139 1417h195q3 -32 22.5 -53t55.5 -21q65 0 73 74h195q-4 -45 -20.5 -85.5t-47.5 -76t-83.5 -56.5t-120.5 -21q-66 0 -118 21.5t-83 57.5t-48 76.5t-20 83.5z" />
    <glyph glyph-name="dotaccent" unicode="&#x2d9;" horiz-adv-x="819" 
d="M545 1188h-269v239h269v-239z" />
    <glyph glyph-name="ring" unicode="&#x2da;" horiz-adv-x="819" 
d="M412 1157q-81 0 -132 51.5t-51 126.5q0 79 48.5 133t130.5 54t133 -52t51 -131q0 -81 -51 -131.5t-129 -50.5zM412 1266q31 0 48 20.5t17 50.5t-17.5 52t-49.5 22t-49 -21t-17 -51t18 -51.5t50 -21.5z" />
    <glyph glyph-name="ogonek" unicode="&#x2db;" horiz-adv-x="819" 
d="M352 16l197 -16q-84 -65 -84 -125q0 -59 65 -59q34 0 58 8l10 -172q-50 -29 -162 -29q-101 0 -155 50.5t-54 129.5q0 125 125 213z" />
    <glyph glyph-name="tilde" unicode="&#x2dc;" horiz-adv-x="819" 
d="M301 1178h-154v63q0 178 142 178q53 0 125.5 -32.5t87.5 -32.5q7 0 10.5 2t6.5 12.5t3 30.5v16h148v-55q0 -103 -35 -146t-98 -43q-47 0 -120.5 34t-94.5 34q-11 0 -16 -8.5t-5 -34.5v-18z" />
    <glyph glyph-name="hungarumlaut" unicode="&#x2dd;" horiz-adv-x="819" 
d="M508 1430l-180 -261h-181l132 261h229zM821 1430l-182 -261h-178l131 261h229z" />
    <glyph glyph-name="uni0300" unicode="&#x300;" horiz-adv-x="0" 
d="M-250 1450h289l166 -274h-211z" />
    <glyph glyph-name="uni0301" unicode="&#x301;" horiz-adv-x="0" 
d="M-27 1450h285l-250 -274h-215z" />
    <glyph glyph-name="uni0302" unicode="&#x302;" horiz-adv-x="0" 
d="M-129 1425h260l168 -237h-223l-76 110l-74 -110h-223z" />
    <glyph glyph-name="uni0303" unicode="&#x303;" horiz-adv-x="0" 
d="M-109 1178h-153v63q0 178 141 178q53 0 125.5 -32.5t87.5 -32.5q7 0 11 2t7 12.5t3 30.5v16h147v-55q0 -103 -35 -146t-98 -43q-47 0 -120.5 34t-94.5 34q-11 0 -16 -8.5t-5 -34.5v-18z" />
    <glyph glyph-name="uni0304" unicode="&#x304;" horiz-adv-x="0" 
d="M-229 1395h456v-187h-456v187z" />
    <glyph glyph-name="uni0306" unicode="&#x306;" horiz-adv-x="0" 
d="M-270 1417h194q3 -32 22.5 -53t55.5 -21q66 0 74 74h194q-4 -45 -20.5 -85.5t-47.5 -76t-83.5 -56.5t-120.5 -21q-66 0 -118 21.5t-82.5 57.5t-47.5 76.5t-20 83.5z" />
    <glyph glyph-name="uni0307" unicode="&#x307;" horiz-adv-x="0" 
d="M135 1188h-268v239h268v-239z" />
    <glyph glyph-name="uni0308" unicode="&#x308;" horiz-adv-x="0" 
d="M-43 1188h-225v239h225v-239zM268 1188h-225v239h225v-239z" />
    <glyph glyph-name="uni0309" unicode="&#x309;" horiz-adv-x="0" 
d="M94 1169h-198q69 72 69 115q0 35 -43 35q-29 0 -72 -19l-49 127q76 54 197 54q92 0 136 -40.5t44 -107.5q0 -89 -84 -164z" />
    <glyph glyph-name="uni030A" unicode="&#x30a;" horiz-adv-x="0" 
d="M2 1157q-81 0 -131.5 51.5t-50.5 126.5q0 80 48 133.5t130 53.5t133 -52t51 -131q0 -81 -51 -131.5t-129 -50.5zM2 1266q31 0 48.5 21t17.5 50q0 30 -18 52t-50 22t-49 -21t-17 -51t18 -51.5t50 -21.5z" />
    <glyph glyph-name="uni030B" unicode="&#x30b;" horiz-adv-x="0" 
d="M49 1430l-180 -261h-180l131 261h229zM362 1430l-182 -261h-178l131 261h229z" />
    <glyph glyph-name="uni030C" unicode="&#x30c;" horiz-adv-x="0" 
d="M131 1182h-258l-170 235h221l76 -110l76 110h223z" />
    <glyph glyph-name="uni031B" unicode="&#x31b;" horiz-adv-x="0" 
d="M-25 907l-104 172q43 14 43 84q0 27 -18 94h223q16 -46 16 -108q0 -198 -160 -242z" />
    <glyph glyph-name="uni0323" unicode="&#x323;" horiz-adv-x="0" 
d="M125 -338h-250v242h250v-242z" />
    <glyph glyph-name="uni0324" unicode="&#x324;" horiz-adv-x="0" 
d="M-43 -377h-225v240h225v-240zM268 -377h-225v240h225v-240z" />
    <glyph glyph-name="uni0326" unicode="&#x326;" horiz-adv-x="0" 
d="M31 -408h-201q32 66 56.5 158.5t27.5 159.5h248q-8 -95 -47.5 -184.5t-83.5 -133.5z" />
    <glyph glyph-name="uni0327" unicode="&#x327;" horiz-adv-x="0" 
d="M-129 -98l59 108h170l-39 -63q134 -44 134 -160q0 -75 -55.5 -124.5t-153.5 -49.5q-107 0 -172 33l39 135q44 -21 88 -21q47 0 47 33q0 43 -117 57v52z" />
    <glyph glyph-name="uni0328" unicode="&#x328;" horiz-adv-x="0" 
d="M-57 16l196 -16q-84 -65 -84 -125q0 -27 16.5 -43t49.5 -16t57 8l10 -172q-50 -29 -161 -29q-101 0 -155 50.5t-54 129.5q0 125 125 213z" />
    <glyph glyph-name="uni032E" unicode="&#x32e;" horiz-adv-x="0" 
d="M-270 -80h194q3 -32 22.5 -53t55.5 -21q66 0 74 74h194q-4 -45 -20.5 -85.5t-47.5 -76t-83.5 -56.5t-120.5 -21q-66 0 -118 21.5t-82.5 57.5t-47.5 76.5t-20 83.5z" />
    <glyph glyph-name="uni0331" unicode="&#x331;" horiz-adv-x="0" 
d="M-229 -106h456v-187h-456v187z" />
    <glyph glyph-name="pi" unicode="&#x3c0;" horiz-adv-x="897" 
d="M508 0v860h-131v-860h-262v860q-78 0 -111 -4v215q49 8 301 8h572v-223h-107v-856h-262z" />
    <glyph glyph-name="uni1E0C" unicode="&#x1e0c;" horiz-adv-x="843" 
d="M82 0v1366h324q207 0 291.5 -96.5t84.5 -313.5v-514q0 -55 -3.5 -99.5t-13.5 -91t-26.5 -82.5t-44 -69t-65 -54t-90 -33.5t-117.5 -12.5h-340zM344 1153v-942h51q73 0 97 42.5t24 131.5v612q0 81 -26 118.5t-97 37.5h-49zM520 -334h-250v242h250v-242z" />
    <glyph glyph-name="uni1E0D" unicode="&#x1e0d;" horiz-adv-x="811" 
d="M471 1427h264v-1126q0 -244 2 -301h-250q-8 58 -8 98q-32 -59 -77.5 -86.5t-118.5 -27.5q-123 0 -175.5 87.5t-52.5 256.5v444q0 146 59 235t187 89q130 0 170 -78v409zM317 752v-424q0 -58 17.5 -87.5t58.5 -29.5q45 0 61.5 36t16.5 111v363q0 79 -14.5 112t-61.5 33
q-42 0 -60 -28t-18 -86zM530 -338h-249v242h249v-242z" />
    <glyph glyph-name="uni1E0E" unicode="&#x1e0e;" horiz-adv-x="843" 
d="M82 0v1366h324q207 0 291.5 -96.5t84.5 -313.5v-514q0 -55 -3.5 -99.5t-13.5 -91t-26.5 -82.5t-44 -69t-65 -54t-90 -33.5t-117.5 -12.5h-340zM344 1153v-942h51q73 0 97 42.5t24 131.5v612q0 81 -26 118.5t-97 37.5h-49zM162 -102h456v-187h-456v187z" />
    <glyph glyph-name="uni1E0F" unicode="&#x1e0f;" horiz-adv-x="811" 
d="M471 1427h264v-1126q0 -244 2 -301h-250q-8 58 -8 98q-32 -59 -77.5 -86.5t-118.5 -27.5q-123 0 -175.5 87.5t-52.5 256.5v444q0 146 59 235t187 89q130 0 170 -78v409zM317 752v-424q0 -58 17.5 -87.5t58.5 -29.5q45 0 61.5 36t16.5 111v363q0 79 -14.5 112t-61.5 33
q-42 0 -60 -28t-18 -86zM176 -106h457v-187h-457v187z" />
    <glyph glyph-name="uni1E20" unicode="&#x1e20;" horiz-adv-x="829" 
d="M758 780v-780h-197q-7 30 -12 100q-57 -120 -217 -120q-77 0 -131.5 27.5t-84.5 79.5t-43.5 118.5t-13.5 154.5v644q0 83 18.5 149.5t58 120t109 83t163.5 29.5q346 0 346 -366v-62h-265v76q0 61 -15.5 94t-65.5 33q-44 0 -63 -32t-19 -101v-700q0 -127 82 -127
q48 0 67 37t19 124v197h-91v221h355zM172 1655h483v-185h-483v185z" />
    <glyph glyph-name="uni1E21" unicode="&#x1e21;" horiz-adv-x="811" 
d="M735 780v-692q0 -63 -2 -107t-10.5 -95.5t-23 -85.5t-41 -68.5t-63.5 -54t-91.5 -32t-124.5 -12.5q-91 0 -156 24.5t-100 67t-50.5 91t-15.5 106.5v6h262v-4q0 -18 4 -34t22 -32t48 -16q51 0 66.5 37.5t15.5 132.5v121q-46 -104 -182 -104q-57 0 -99.5 17.5t-68.5 46.5
t-42 73t-22 90t-6 104v412q0 48 6.5 90.5t24 86.5t45 75.5t73.5 51.5t105 20q145 0 180 -111q4 66 11 94h239q-4 -140 -4 -299zM317 752v-371q0 -65 17.5 -96t56.5 -31q46 0 63 34t17 115v336q0 29 -2 48.5t-9 39t-22 29.5t-39 10q-82 0 -82 -114zM182 1395h457v-187h-457
v187z" />
    <glyph glyph-name="uni1E24" unicode="&#x1e24;" horiz-adv-x="862" 
d="M82 0v1366h262v-526h172v526h264v-1366h-264v608h-172v-608h-262zM555 -330h-250v242h250v-242z" />
    <glyph glyph-name="uni1E25" unicode="&#x1e25;" horiz-adv-x="833" 
d="M76 0v1427h264v-432q63 101 199 101q219 0 219 -277v-819h-264v754q0 55 -15.5 83.5t-58.5 28.5q-44 0 -62 -30.5t-18 -106.5v-729h-264zM543 -338h-250v242h250v-242z" />
    <glyph glyph-name="uni1E2A" unicode="&#x1e2a;" horiz-adv-x="862" 
d="M82 0v1366h262v-526h172v526h264v-1366h-264v608h-172v-608h-262zM160 -76h194q3 -32 22.5 -53t55.5 -21q66 0 74 74h194q-4 -45 -20.5 -85.5t-47.5 -76t-83.5 -56.5t-120.5 -21q-66 0 -118 21.5t-82.5 57.5t-47.5 76.5t-20 83.5z" />
    <glyph glyph-name="uni1E2B" unicode="&#x1e2b;" horiz-adv-x="833" 
d="M76 0v1427h264v-432q63 101 199 101q219 0 219 -277v-819h-264v754q0 55 -15.5 83.5t-58.5 28.5q-44 0 -62 -30.5t-18 -106.5v-729h-264zM147 -80h195q3 -32 22.5 -53t55.5 -21q66 0 74 74h194q-4 -45 -20.5 -85.5t-47.5 -76t-83.5 -56.5t-120.5 -21q-66 0 -118 21.5
t-83 57.5t-48 76.5t-20 83.5z" />
    <glyph glyph-name="uni1E36" unicode="&#x1e36;" horiz-adv-x="684" 
d="M82 0v1366h262v-1137h332l-25 -229h-569zM494 -338h-250v242h250v-242z" />
    <glyph glyph-name="uni1E37" unicode="&#x1e37;" horiz-adv-x="415" 
d="M340 0h-264v1427h264v-1427zM332 -338h-250v242h250v-242z" />
    <glyph glyph-name="uni1E38" unicode="&#x1e38;" horiz-adv-x="684" 
d="M82 0v1366h262v-1137h332l-25 -229h-569zM494 -338h-250v242h250v-242zM-29 1651h484v-185h-484v185z" />
    <glyph glyph-name="uni1E39" unicode="&#x1e39;" horiz-adv-x="415" 
d="M340 0h-264v1427h264v-1427zM-23 1700h457v-187h-457v187zM332 -338h-250v242h250v-242z" />
    <glyph glyph-name="uni1E3A" unicode="&#x1e3a;" horiz-adv-x="684" 
d="M82 0v1366h262v-1137h332l-25 -229h-569zM139 -106h457v-187h-457v187z" />
    <glyph glyph-name="uni1E3B" unicode="&#x1e3b;" horiz-adv-x="415" 
d="M340 0h-264v1427h264v-1427zM-23 -106h457v-187h-457v187z" />
    <glyph glyph-name="uni1E42" unicode="&#x1e42;" horiz-adv-x="1120" 
d="M786 0v436q0 384 7 678h-9q-88 -823 -125 -1114h-223q-83 797 -119 1118h-8q10 -400 10 -692v-426h-237v1366h377q68 -502 92 -786h4q13 114 54.5 403t54.5 383h376v-1366h-254zM672 -338h-250v242h250v-242z" />
    <glyph glyph-name="uni1E43" unicode="&#x1e43;" horiz-adv-x="1200" 
d="M76 0v750q0 290 -2 329h250q3 -18 8 -88q62 105 190 105q131 0 174 -109q81 109 209 109q106 0 162.5 -70t56.5 -209v-817h-260v772q0 48 -14.5 71t-48.5 23q-39 0 -54.5 -29.5t-15.5 -95.5v-741h-262v770q0 56 -15.5 76t-47.5 20q-40 0 -55 -28.5t-15 -92.5v-745h-260z
M725 -338h-250v242h250v-242z" />
    <glyph glyph-name="uni1E44" unicode="&#x1e44;" horiz-adv-x="872" 
d="M322 0h-240v1366h291l141 -600q26 -108 49 -246h6q-22 286 -22 623v223h244v-1366h-295l-148 680q-6 30 -20 104t-19 97h-6q19 -304 19 -648v-233zM567 1450h-266v238h266v-238z" />
    <glyph glyph-name="uni1E45" unicode="&#x1e45;" horiz-adv-x="831" 
d="M76 0v756q0 282 -2 323h252q8 -58 8 -92q66 109 203 109q108 0 163.5 -71t55.5 -210v-815h-262v760q0 106 -72 106q-45 0 -63.5 -30.5t-18.5 -108.5v-727h-264zM551 1188h-268v239h268v-239z" />
    <glyph glyph-name="uni1E46" unicode="&#x1e46;" horiz-adv-x="872" 
d="M322 0h-240v1366h291l141 -600q26 -108 49 -246h6q-22 286 -22 623v223h244v-1366h-295l-148 680q-6 30 -20 104t-19 97h-6q19 -304 19 -648v-233zM559 -317h-250v241h250v-241z" />
    <glyph glyph-name="uni1E47" unicode="&#x1e47;" horiz-adv-x="831" 
d="M76 0v756q0 282 -2 323h252q8 -58 8 -92q66 109 203 109q108 0 163.5 -71t55.5 -210v-815h-262v760q0 106 -72 106q-45 0 -63.5 -30.5t-18.5 -108.5v-727h-264zM541 -338h-250v242h250v-242z" />
    <glyph glyph-name="uni1E48" unicode="&#x1e48;" horiz-adv-x="872" 
d="M322 0h-240v1366h291l141 -600q26 -108 49 -246h6q-22 286 -22 623v223h244v-1366h-295l-148 680q-6 30 -20 104t-19 97h-6q19 -304 19 -648v-233zM207 -98h457v-187h-457v187z" />
    <glyph glyph-name="uni1E49" unicode="&#x1e49;" horiz-adv-x="831" 
d="M76 0v756q0 282 -2 323h252q8 -58 8 -92q66 109 203 109q108 0 163.5 -71t55.5 -210v-815h-262v760q0 106 -72 106q-45 0 -63.5 -30.5t-18.5 -108.5v-727h-264zM186 -106h457v-187h-457v187z" />
    <glyph glyph-name="uni1E5A" unicode="&#x1e5a;" horiz-adv-x="813" 
d="M82 0v1366h340q174 0 258 -81t84 -257v-49q0 -70 -12.5 -122.5t-34.5 -83t-42 -47t-46 -28.5q45 -22 70.5 -53t40 -90t14.5 -152q0 -345 8 -403h-254q-3 10 -5 24t-3.5 34t-2.5 37t-1.5 46t-1 48t-0.5 54.5v54.5v59v57q0 115 -22 147.5t-97 32.5h-31v-594h-262zM344 1159
v-358h33q69 0 97 31.5t28 123.5v66q0 74 -23.5 105.5t-93.5 31.5h-41zM545 -319h-250v241h250v-241z" />
    <glyph glyph-name="uni1E5B" unicode="&#x1e5b;" horiz-adv-x="573" 
d="M557 1096v-318q-54 0 -88.5 -7t-66.5 -27.5t-47 -63t-15 -109.5v-571h-264v713q0 272 -2 366h250q8 -46 8 -161q28 90 87 133t138 45zM332 -338h-250v242h250v-242z" />
    <glyph glyph-name="uni1E5C" unicode="&#x1e5c;" horiz-adv-x="813" 
d="M82 0v1366h340q174 0 258 -81t84 -257v-49q0 -70 -12.5 -122.5t-34.5 -83t-42 -47t-46 -28.5q45 -22 70.5 -53t40 -90t14.5 -152q0 -345 8 -403h-254q-3 10 -5 24t-3.5 34t-2.5 37t-1.5 46t-1 48t-0.5 54.5v54.5v59v57q0 115 -22 147.5t-97 32.5h-31v-594h-262zM344 1159
v-358h33q69 0 97 31.5t28 123.5v66q0 74 -23.5 105.5t-93.5 31.5h-41zM539 -317h-250v241h250v-241zM164 1651h483v-185h-483v185z" />
    <glyph glyph-name="uni1E5D" unicode="&#x1e5d;" horiz-adv-x="573" 
d="M557 1096v-318q-54 0 -88.5 -7t-66.5 -27.5t-47 -63t-15 -109.5v-571h-264v713q0 272 -2 366h250q8 -46 8 -161q28 90 87 133t138 45zM78 1395h457v-187h-457v187zM332 -338h-250v242h250v-242z" />
    <glyph glyph-name="uni1E5E" unicode="&#x1e5e;" horiz-adv-x="813" 
d="M82 0v1366h340q174 0 258 -81t84 -257v-49q0 -70 -12.5 -122.5t-34.5 -83t-42 -47t-46 -28.5q45 -22 70.5 -53t40 -90t14.5 -152q0 -345 8 -403h-254q-3 10 -5 24t-3.5 34t-2.5 37t-1.5 46t-1 48t-0.5 54.5v54.5v59v57q0 115 -22 147.5t-97 32.5h-31v-594h-262zM344 1159
v-358h33q69 0 97 31.5t28 123.5v66q0 74 -23.5 105.5t-93.5 31.5h-41zM176 -106h457v-187h-457v187z" />
    <glyph glyph-name="uni1E5F" unicode="&#x1e5f;" horiz-adv-x="573" 
d="M557 1096v-318q-54 0 -88.5 -7t-66.5 -27.5t-47 -63t-15 -109.5v-571h-264v713q0 272 -2 366h250q8 -46 8 -161q28 90 87 133t138 45zM-18 -106h456v-187h-456v187z" />
    <glyph glyph-name="uni1E60" unicode="&#x1e60;" horiz-adv-x="755" 
d="M35 422h258v-96q0 -67 19 -99t63 -32q76 0 76 127q0 95 -29 144t-135 138q-68 57 -104 92.5t-70 84.5t-47 104t-13 129q0 375 324 375q79 0 137.5 -21.5t92 -54.5t53.5 -81t26 -91.5t6 -96.5v-77h-248v82q0 64 -14 93t-51 29q-36 0 -51 -29t-15 -89q0 -65 24 -106.5
t105 -104.5q81 -64 128.5 -109.5t82.5 -101t48.5 -116t13.5 -144.5q0 -86 -16.5 -153t-54 -122.5t-106.5 -85.5t-167 -30q-95 0 -162 27t-104 77.5t-53.5 113t-16.5 142.5v82zM510 1456h-266v238h266v-238z" />
    <glyph glyph-name="uni1E61" unicode="&#x1e61;" horiz-adv-x="716" 
d="M33 350h252v-51q0 -109 67 -109q60 0 60 82q0 49 -26.5 87.5t-115.5 95.5q-125 77 -175 149t-50 187q0 148 79 226.5t228 78.5q88 0 149.5 -23t95 -67.5t48 -99t14.5 -126.5v-45h-241v64q0 51 -14 71.5t-46 20.5q-55 0 -55 -78q0 -37 23 -64t92 -69q149 -92 203.5 -170.5
t54.5 -200.5q0 -162 -77.5 -243.5t-248.5 -81.5q-80 0 -139 19.5t-92.5 49.5t-53.5 75t-26 87t-6 94v41zM494 1188h-269v239h269v-239z" />
    <glyph glyph-name="uni1E62" unicode="&#x1e62;" horiz-adv-x="755" 
d="M35 422h258v-96q0 -67 19 -99t63 -32q76 0 76 127q0 95 -29 144t-135 138q-68 57 -104 92.5t-70 84.5t-47 104t-13 129q0 375 324 375q79 0 137.5 -21.5t92 -54.5t53.5 -81t26 -91.5t6 -96.5v-77h-248v82q0 64 -14 93t-51 29q-36 0 -51 -29t-15 -89q0 -65 24 -106.5
t105 -104.5q81 -64 128.5 -109.5t82.5 -101t48.5 -116t13.5 -144.5q0 -86 -16.5 -153t-54 -122.5t-106.5 -85.5t-167 -30q-95 0 -162 27t-104 77.5t-53.5 113t-16.5 142.5v82zM502 -338h-250v242h250v-242z" />
    <glyph glyph-name="uni1E63" unicode="&#x1e63;" horiz-adv-x="716" 
d="M33 350h252v-51q0 -109 67 -109q60 0 60 82q0 49 -26.5 87.5t-115.5 95.5q-125 77 -175 149t-50 187q0 148 79 226.5t228 78.5q88 0 149.5 -23t95 -67.5t48 -99t14.5 -126.5v-45h-241v64q0 51 -14 71.5t-46 20.5q-55 0 -55 -78q0 -37 23 -64t92 -69q149 -92 203.5 -170.5
t54.5 -200.5q0 -162 -77.5 -243.5t-248.5 -81.5q-80 0 -139 19.5t-92.5 49.5t-53.5 75t-26 87t-6 94v41zM483 -338h-250v242h250v-242z" />
    <glyph glyph-name="uni1E6C" unicode="&#x1e6c;" horiz-adv-x="684" 
d="M209 0v1135h-199v231h662v-231h-199v-1135h-264zM465 -338h-250v242h250v-242z" />
    <glyph glyph-name="uni1E6D" unicode="&#x1e6d;" horiz-adv-x="512" 
d="M-2 846v233h108v244h261v-244h122v-233h-122v-561q0 -42 12.5 -60t54.5 -18q37 0 47 4v-203q-55 -22 -151 -22q-122 0 -175 53.5t-53 191.5v615h-104zM399 -338h-249v242h249v-242z" />
    <glyph glyph-name="uni1E6E" unicode="&#x1e6e;" horiz-adv-x="684" 
d="M209 0v1135h-199v231h662v-231h-199v-1135h-264zM111 -106h456v-187h-456v187z" />
    <glyph glyph-name="uni1E6F" unicode="&#x1e6f;" horiz-adv-x="512" 
d="M-2 846v233h108v244h261v-244h122v-233h-122v-561q0 -42 12.5 -60t54.5 -18q37 0 47 4v-203q-55 -22 -151 -22q-122 0 -175 53.5t-53 191.5v615h-104zM59 -106h457v-187h-457v187z" />
    <glyph glyph-name="Wgrave" unicode="&#x1e80;" horiz-adv-x="1112" 
d="M453 0h-275l-155 1366h278q44 -595 53 -922h8q16 148 48 479.5t43 442.5h225q17 -158 50 -520t36 -397h10q26 561 55 917h261l-175 -1366h-272q-7 59 -21 180.5t-23 200.5t-20.5 192.5t-19.5 212.5h-10q-16 -160 -52 -438.5t-44 -347.5zM180 1665h322l190 -205h-243z" />
    <glyph glyph-name="wgrave" unicode="&#x1e81;" horiz-adv-x="1134" 
d="M6 1079h283q49 -438 67 -725h6q5 60 17 154t36.5 274.5t39.5 296.5h243q16 -120 40.5 -295.5t36 -267t16.5 -164.5h6q2 19 10 135t22 265t35 327h266l-198 -1079h-266q-15 103 -50.5 326.5t-44.5 302.5h-8q-4 -48 -15.5 -125t-22 -137t-32.5 -184t-32 -183h-266z
M233 1448h289l166 -274h-211z" />
    <glyph glyph-name="Wacute" unicode="&#x1e82;" horiz-adv-x="1112" 
d="M453 0h-275l-155 1366h278q44 -595 53 -922h8q16 148 48 479.5t43 442.5h225q17 -158 50 -520t36 -397h10q26 561 55 917h261l-175 -1366h-272q-7 59 -21 180.5t-23 200.5t-20.5 192.5t-19.5 212.5h-10q-16 -160 -52 -438.5t-44 -347.5zM631 1665h307l-268 -205h-232z
" />
    <glyph glyph-name="wacute" unicode="&#x1e83;" horiz-adv-x="1134" 
d="M6 1079h283q49 -438 67 -725h6q5 60 17 154t36.5 274.5t39.5 296.5h243q16 -120 40.5 -295.5t36 -267t16.5 -164.5h6q2 19 10 135t22 265t35 327h266l-198 -1079h-266q-15 103 -50.5 326.5t-44.5 302.5h-8q-4 -48 -15.5 -125t-22 -137t-32.5 -184t-32 -183h-266z
M641 1450h285l-250 -274h-215z" />
    <glyph glyph-name="Wdieresis" unicode="&#x1e84;" horiz-adv-x="1112" 
d="M453 0h-275l-155 1366h278q44 -595 53 -922h8q16 148 48 479.5t43 442.5h225q17 -158 50 -520t36 -397h10q26 561 55 917h261l-175 -1366h-272q-7 59 -21 180.5t-23 200.5t-20.5 192.5t-19.5 212.5h-10q-16 -160 -52 -438.5t-44 -347.5zM514 1460h-219v228h219v-228z
M821 1460h-219v228h219v-228z" />
    <glyph glyph-name="wdieresis" unicode="&#x1e85;" horiz-adv-x="1134" 
d="M6 1079h283q49 -438 67 -725h6q5 60 17 154t36.5 274.5t39.5 296.5h243q16 -120 40.5 -295.5t36 -267t16.5 -164.5h6q2 19 10 135t22 265t35 327h266l-198 -1079h-266q-15 103 -50.5 326.5t-44.5 302.5h-8q-4 -48 -15.5 -125t-22 -137t-32.5 -184t-32 -183h-266z
M528 1188h-225v239h225v-239zM840 1188h-226v239h226v-239z" />
    <glyph glyph-name="uni1E8E" unicode="&#x1e8e;" horiz-adv-x="743" 
d="M502 0h-262v438q0 28 -11 70l-239 858h286q82 -438 97 -596h8q25 176 102 596h271l-246 -879q-6 -27 -6 -59v-428zM510 1452h-266v238h266v-238z" />
    <glyph glyph-name="uni1E8F" unicode="&#x1e8f;" horiz-adv-x="743" 
d="M-6 1079h285q85 -588 92 -760h10q14 173 96 760h268q-6 -26 -108.5 -518t-122.5 -581q-23 -105 -50 -171t-67 -104.5t-88.5 -52.5t-120.5 -14q-64 0 -122 10l4 223q2 0 24 -2t35 -2q49 0 74.5 19t34.5 73zM506 1188h-268v239h268v-239z" />
    <glyph glyph-name="uni1E92" unicode="&#x1e92;" horiz-adv-x="696" 
d="M23 0v176l358 957h-324v233h605v-199l-340 -934h352l-31 -233h-620zM465 -338h-250v242h250v-242z" />
    <glyph glyph-name="uni1E93" unicode="&#x1e93;" horiz-adv-x="647" 
d="M14 0v184q17 35 67.5 143t123 261.5t119.5 253.5h-285v237h582v-186q-16 -38 -126.5 -281t-172.5 -374h307l-21 -238h-594zM449 -338h-250v242h250v-242z" />
    <glyph glyph-name="uni1E97" unicode="&#x1e97;" horiz-adv-x="512" 
d="M-2 846v233h108v244h261v-244h122v-233h-122v-561q0 -42 12.5 -60t54.5 -18q37 0 47 4v-203q-55 -22 -151 -22q-122 0 -175 53.5t-53 191.5v615h-104zM195 1386h-226v240h226v-240zM506 1386h-225v240h225v-240z" />
    <glyph glyph-name="uni1E9E" unicode="&#x1e9e;" horiz-adv-x="886" 
d="M342 1038v-1038h-262v1038q0 184 93.5 266t275.5 82q360 0 360 -352v-65l-160 -199v-4l70 -104q71 -97 101 -169.5t30 -162.5q0 -346 -289 -346q-96 0 -168 32v217q62 -32 111 -32q40 0 63 21t23 81q0 78 -78 178l-92 117q-81 114 2 225l139 176v43q0 65 -23.5 100.5
t-82.5 35.5q-113 0 -113 -140z" />
    <glyph glyph-name="uni1EA0" unicode="&#x1ea0;" horiz-adv-x="815" 
d="M487 326h-170l-32 -326h-269l193 1366h391l199 -1366h-273zM340 557h125q-6 59 -19 186.5t-23.5 227t-16.5 157.5h-11q-4 -86 -55 -571zM532 -332h-249v242h249v-242z" />
    <glyph glyph-name="uni1EA1" unicode="&#x1ea1;" 
d="M709 805v-559q0 -176 6 -246h-244q-10 29 -16 80q-58 -96 -185 -96q-59 0 -104.5 26t-72 71t-39.5 100.5t-13 119.5v21q0 342 387 342h18v124q0 59 -12 83t-47 24q-33 0 -46 -24.5t-13 -75.5v-25h-254v16q0 149 76 229.5t247 80.5q312 0 312 -291zM449 352v127h-25
q-63 0 -96 -33.5t-33 -113.5v-15q0 -112 76 -112q41 0 59.5 33t18.5 114zM524 -338h-250v242h250v-242z" />
    <glyph glyph-name="uni1EA2" unicode="&#x1ea2;" horiz-adv-x="815" 
d="M487 326h-170l-32 -326h-269l193 1366h391l199 -1366h-273zM340 557h125q-6 59 -19 186.5t-23.5 227t-16.5 157.5h-11q-4 -86 -55 -571zM492 1438h-199q38 39 53.5 64.5t15.5 49.5q0 35 -43 35q-30 0 -71 -18l-49 127q74 53 196 53q92 0 136 -40t44 -107q0 -90 -83 -164z
" />
    <glyph glyph-name="uni1EA3" unicode="&#x1ea3;" 
d="M709 805v-559q0 -176 6 -246h-244q-10 29 -16 80q-58 -96 -185 -96q-59 0 -104.5 26t-72 71t-39.5 100.5t-13 119.5v21q0 342 387 342h18v124q0 59 -12 83t-47 24q-33 0 -46 -24.5t-13 -75.5v-25h-254v16q0 149 76 229.5t247 80.5q312 0 312 -291zM449 352v127h-25
q-63 0 -96 -33.5t-33 -113.5v-15q0 -112 76 -112q41 0 59.5 33t18.5 114zM487 1171h-198q69 72 69 115q0 35 -43 35q-31 0 -71 -18l-49 127q74 53 196 53q92 0 136 -40.5t44 -107.5q0 -89 -84 -164z" />
    <glyph glyph-name="uni1EA4" unicode="&#x1ea4;" horiz-adv-x="815" 
d="M487 326h-170l-32 -326h-269l193 1366h391l199 -1366h-273zM340 557h125q-6 59 -19 186.5t-23.5 227t-16.5 157.5h-11q-4 -86 -55 -571zM274 1638h269l166 -192h-228l-75 88l-70 -88h-232zM778 1782h250l-213 -185h-186z" />
    <glyph glyph-name="uni1EA5" unicode="&#x1ea5;" 
d="M709 805v-559q0 -176 6 -246h-244q-10 29 -16 80q-58 -96 -185 -96q-59 0 -104.5 26t-72 71t-39.5 100.5t-13 119.5v21q0 342 387 342h18v124q0 59 -12 83t-47 24q-33 0 -46 -24.5t-13 -75.5v-25h-254v16q0 149 76 229.5t247 80.5q312 0 312 -291zM449 352v127h-25
q-63 0 -96 -33.5t-33 -113.5v-15q0 -112 76 -112q41 0 59.5 33t18.5 114zM272 1409h250l166 -231h-215l-78 114l-78 -114h-217zM752 1561h239l-211 -207h-176z" />
    <glyph glyph-name="uni1EA6" unicode="&#x1ea6;" horiz-adv-x="815" 
d="M487 326h-170l-32 -326h-269l193 1366h391l199 -1366h-273zM340 557h125q-6 59 -19 186.5t-23.5 227t-16.5 157.5h-11q-4 -86 -55 -571zM274 1638h269l166 -192h-228l-75 88l-70 -88h-232zM481 1798h252l152 -194h-187z" />
    <glyph glyph-name="uni1EA7" unicode="&#x1ea7;" 
d="M709 805v-559q0 -176 6 -246h-244q-10 29 -16 80q-58 -96 -185 -96q-59 0 -104.5 26t-72 71t-39.5 100.5t-13 119.5v21q0 342 387 342h18v124q0 59 -12 83t-47 24q-33 0 -46 -24.5t-13 -75.5v-25h-254v16q0 149 76 229.5t247 80.5q312 0 312 -291zM449 352v127h-25
q-63 0 -96 -33.5t-33 -113.5v-15q0 -112 76 -112q41 0 59.5 33t18.5 114zM272 1407h250l166 -231h-215l-78 116l-78 -116h-217zM469 1571h250l137 -217h-174z" />
    <glyph glyph-name="uni1EA8" unicode="&#x1ea8;" horiz-adv-x="815" 
d="M487 326h-170l-32 -326h-269l193 1366h391l199 -1366h-273zM340 557h125q-6 59 -19 186.5t-23.5 227t-16.5 157.5h-11q-4 -86 -55 -571zM801 1597h-168q65 68 65 103q0 31 -41 31q-36 0 -71 -21l-45 113q79 55 178 55q80 0 120 -37.5t40 -97.5q0 -81 -78 -146zM274 1638
h269l166 -192h-228l-75 88l-70 -88h-232z" />
    <glyph glyph-name="uni1EA9" unicode="&#x1ea9;" 
d="M709 805v-559q0 -176 6 -246h-244q-10 29 -16 80q-58 -96 -185 -96q-59 0 -104.5 26t-72 71t-39.5 100.5t-13 119.5v21q0 342 387 342h18v124q0 59 -12 83t-47 24q-33 0 -46 -24.5t-13 -75.5v-25h-254v16q0 149 76 229.5t247 80.5q312 0 312 -291zM449 352v127h-25
q-63 0 -96 -33.5t-33 -113.5v-15q0 -112 76 -112q41 0 59.5 33t18.5 114zM272 1405h250l166 -231h-215l-78 116l-78 -116h-217zM786 1352h-168q66 72 66 104q0 29 -41 29q-40 0 -72 -19l-45 111q77 57 179 57q80 0 119.5 -37t39.5 -98q0 -82 -78 -147z" />
    <glyph glyph-name="uni1EAA" unicode="&#x1eaa;" horiz-adv-x="815" 
d="M487 326h-170l-32 -326h-269l193 1366h391l199 -1366h-273zM340 557h125q-6 59 -19 186.5t-23.5 227t-16.5 157.5h-11q-4 -86 -55 -571zM295 1663h-152v27q0 90 38 125.5t106 35.5q54 0 124.5 -25.5t86.5 -25.5q13 0 18.5 7t5.5 26v16h148v-22q0 -95 -37 -130.5
t-101 -35.5q-49 0 -119.5 25.5t-90.5 25.5q-27 0 -27 -31v-18zM283 1612h252l174 -168h-228l-78 69l-71 -69h-223z" />
    <glyph glyph-name="uni1EAB" unicode="&#x1eab;" 
d="M709 805v-559q0 -176 6 -246h-244q-10 29 -16 80q-58 -96 -185 -96q-59 0 -104.5 26t-72 71t-39.5 100.5t-13 119.5v21q0 342 387 342h18v124q0 59 -12 83t-47 24q-33 0 -46 -24.5t-13 -75.5v-25h-254v16q0 149 76 229.5t247 80.5q312 0 312 -291zM449 352v127h-25
q-63 0 -96 -33.5t-33 -113.5v-15q0 -112 76 -112q41 0 59.5 33t18.5 114zM276 1417h-143v29q0 172 141 172q56 0 127.5 -26.5t87.5 -26.5q25 0 25 34v19h139v-25q0 -99 -36 -138.5t-99 -39.5q-49 0 -122 26.5t-93 26.5q-27 0 -27 -30v-21zM262 1360h264l172 -189h-229
l-80 84l-76 -84h-227z" />
    <glyph glyph-name="uni1EAC" unicode="&#x1eac;" horiz-adv-x="815" 
d="M487 326h-170l-32 -326h-269l193 1366h391l199 -1366h-273zM340 557h125q-6 59 -19 186.5t-23.5 227t-16.5 157.5h-11q-4 -86 -55 -571zM532 -338h-249v242h249v-242zM274 1653h267l178 -203h-240l-73 84l-68 -84h-244z" />
    <glyph glyph-name="uni1EAD" unicode="&#x1ead;" 
d="M709 805v-559q0 -176 6 -246h-244q-10 29 -16 80q-58 -96 -185 -96q-59 0 -104.5 26t-72 71t-39.5 100.5t-13 119.5v21q0 342 387 342h18v124q0 59 -12 83t-47 24q-33 0 -46 -24.5t-13 -75.5v-25h-254v16q0 149 76 229.5t247 80.5q312 0 312 -291zM449 352v127h-25
q-63 0 -96 -33.5t-33 -113.5v-15q0 -112 76 -112q41 0 59.5 33t18.5 114zM518 -338h-250v242h250v-242zM264 1427h260l168 -237h-223l-76 110l-74 -110h-223z" />
    <glyph glyph-name="uni1EAE" unicode="&#x1eae;" horiz-adv-x="815" 
d="M487 326h-170l-32 -326h-269l193 1366h391l199 -1366h-273zM340 557h125q-6 59 -19 186.5t-23.5 227t-16.5 157.5h-11q-4 -86 -55 -571zM457 1839h280l-231 -153h-217zM135 1636h189q18 -57 88 -57q68 0 84 57h188q-6 -37 -24 -71t-49.5 -65t-84 -49.5t-118.5 -18.5
t-118.5 19.5t-83.5 51t-48 65t-23 68.5z" />
    <glyph glyph-name="uni1EAF" unicode="&#x1eaf;" 
d="M709 805v-559q0 -176 6 -246h-244q-10 29 -16 80q-58 -96 -185 -96q-59 0 -104.5 26t-72 71t-39.5 100.5t-13 119.5v21q0 342 387 342h18v124q0 59 -12 83t-47 24q-33 0 -46 -24.5t-13 -75.5v-25h-254v16q0 149 76 229.5t247 80.5q312 0 312 -291zM449 352v127h-25
q-63 0 -96 -33.5t-33 -113.5v-15q0 -112 76 -112q41 0 59.5 33t18.5 114zM446 1583h273l-236 -168h-202zM127 1370h186q14 -63 84 -63q65 0 84 63h183q-6 -42 -24 -78t-49 -67.5t-82 -49.5t-116 -18q-121 0 -186.5 63t-79.5 150z" />
    <glyph glyph-name="uni1EB0" unicode="&#x1eb0;" horiz-adv-x="815" 
d="M487 326h-170l-32 -326h-269l193 1366h391l199 -1366h-273zM340 557h125q-6 59 -19 186.5t-23.5 227t-16.5 157.5h-11q-4 -86 -55 -571zM86 1839h287l162 -153h-218zM135 1636h189q18 -57 88 -57q68 0 84 57h188q-6 -37 -24 -71t-49.5 -65t-84 -49.5t-118.5 -18.5
t-118.5 19.5t-83.5 51t-48 65t-23 68.5z" />
    <glyph glyph-name="uni1EB1" unicode="&#x1eb1;" 
d="M709 805v-559q0 -176 6 -246h-244q-10 29 -16 80q-58 -96 -185 -96q-59 0 -104.5 26t-72 71t-39.5 100.5t-13 119.5v21q0 342 387 342h18v124q0 59 -12 83t-47 24q-33 0 -46 -24.5t-13 -75.5v-25h-254v16q0 149 76 229.5t247 80.5q312 0 312 -291zM449 352v127h-25
q-63 0 -96 -33.5t-33 -113.5v-15q0 -112 76 -112q41 0 59.5 33t18.5 114zM78 1583h274l162 -168h-201zM127 1370h186q14 -63 84 -63q65 0 84 63h183q-6 -42 -24 -78t-49 -67.5t-82 -49.5t-116 -18q-121 0 -186.5 63t-79.5 150z" />
    <glyph glyph-name="uni1EB2" unicode="&#x1eb2;" horiz-adv-x="815" 
d="M487 326h-170l-32 -326h-269l193 1366h391l199 -1366h-273zM340 557h125q-6 59 -19 186.5t-23.5 227t-16.5 157.5h-11q-4 -86 -55 -571zM494 1677h-181q60 54 60 88q0 29 -37 29q-38 0 -68 -18l-43 108q75 49 183 49q82 0 121.5 -35.5t39.5 -93.5q0 -72 -75 -127z
M135 1636h189q18 -57 88 -57q68 0 84 57h188q-6 -37 -24 -71t-49.5 -65t-84 -49.5t-118.5 -18.5t-118.5 19.5t-83.5 51t-48 65t-23 68.5z" />
    <glyph glyph-name="uni1EB3" unicode="&#x1eb3;" 
d="M709 805v-559q0 -176 6 -246h-244q-10 29 -16 80q-58 -96 -185 -96q-59 0 -104.5 26t-72 71t-39.5 100.5t-13 119.5v21q0 342 387 342h18v124q0 59 -12 83t-47 24q-33 0 -46 -24.5t-13 -75.5v-25h-254v16q0 149 76 229.5t247 80.5q312 0 312 -291zM449 352v127h-25
q-63 0 -96 -33.5t-33 -113.5v-15q0 -112 76 -112q41 0 59.5 33t18.5 114zM477 1407h-178q34 33 50 54.5t16 41.5q0 29 -37 29q-26 0 -60 -19l-41 111q67 43 168 43q80 0 118 -34t38 -93q0 -74 -74 -133zM127 1370h186q14 -63 84 -63q65 0 84 63h183q-6 -42 -24 -78
t-49 -67.5t-82 -49.5t-116 -18q-121 0 -186.5 63t-79.5 150z" />
    <glyph glyph-name="uni1EB4" unicode="&#x1eb4;" horiz-adv-x="815" 
d="M487 326h-170l-32 -326h-269l193 1366h391l199 -1366h-273zM340 557h125q-6 59 -19 186.5t-23.5 227t-16.5 157.5h-11q-4 -86 -55 -571zM276 1679h-151v29q0 166 143 166q54 0 143 -25.5t105 -25.5q13 0 19 6.5t6 25.5v17h147v-25q0 -170 -137 -170q-49 0 -138.5 26
t-109.5 26q-27 0 -27 -31v-19zM127 1626h190q23 -51 91 -51q71 0 90 55l190 -4q-54 -188 -285 -188q-68 0 -120.5 17.5t-83 48t-47 59.5t-25.5 63z" />
    <glyph glyph-name="uni1EB5" unicode="&#x1eb5;" 
d="M709 805v-559q0 -176 6 -246h-244q-10 29 -16 80q-58 -96 -185 -96q-59 0 -104.5 26t-72 71t-39.5 100.5t-13 119.5v21q0 342 387 342h18v124q0 59 -12 83t-47 24q-33 0 -46 -24.5t-13 -75.5v-25h-254v16q0 149 76 229.5t247 80.5q312 0 312 -291zM449 352v127h-25
q-63 0 -96 -33.5t-33 -113.5v-15q0 -112 76 -112q41 0 59.5 33t18.5 114zM281 1413h-152v29q0 172 143 172q55 0 126.5 -26.5t86.5 -26.5q25 0 25 34v19h147v-25q0 -100 -36.5 -139t-100.5 -39q-49 0 -121 26.5t-92 26.5q-26 0 -26 -32v-19zM131 1356h178q18 -62 84 -62
q67 0 80 62h182q-6 -39 -23 -73t-47.5 -65t-81 -49t-114.5 -18q-121 0 -185 61.5t-73 143.5z" />
    <glyph glyph-name="uni1EB6" unicode="&#x1eb6;" horiz-adv-x="815" 
d="M487 326h-170l-32 -326h-269l193 1366h391l199 -1366h-273zM340 557h125q-6 59 -19 186.5t-23.5 227t-16.5 157.5h-11q-4 -86 -55 -571zM532 -324h-249v242h249v-242zM135 1675h187q15 -73 86 -73t84 73h186q-7 -46 -25 -85.5t-49.5 -74.5t-83 -55t-117.5 -20
q-126 0 -193 68.5t-75 166.5z" />
    <glyph glyph-name="uni1EB7" unicode="&#x1eb7;" 
d="M709 805v-559q0 -176 6 -246h-244q-10 29 -16 80q-58 -96 -185 -96q-59 0 -104.5 26t-72 71t-39.5 100.5t-13 119.5v21q0 342 387 342h18v124q0 59 -12 83t-47 24q-33 0 -46 -24.5t-13 -75.5v-25h-254v16q0 149 76 229.5t247 80.5q312 0 312 -291zM449 352v127h-25
q-63 0 -96 -33.5t-33 -113.5v-15q0 -112 76 -112q41 0 59.5 33t18.5 114zM123 1417h194q3 -32 22.5 -53t55.5 -21q66 0 74 74h195q-4 -45 -20.5 -85.5t-47.5 -76t-84 -56.5t-121 -21q-66 0 -118 21.5t-82.5 57.5t-47.5 76.5t-20 83.5zM524 -334h-250v242h250v-242z" />
    <glyph glyph-name="uni1EB8" unicode="&#x1eb8;" horiz-adv-x="690" 
d="M625 836v-232h-281v-373h330l-31 -231h-563v1366h561v-231h-297v-299h281zM489 -334h-249v242h249v-242z" />
    <glyph glyph-name="uni1EB9" unicode="&#x1eb9;" horiz-adv-x="770" 
d="M725 471h-410v-156q0 -120 76 -120q43 0 58.5 31.5t15.5 90.5v25h256v-14q0 -49 -6.5 -92t-28 -91t-56 -82t-96 -56.5t-143.5 -22.5q-101 0 -168.5 27t-103.5 80.5t-50 117.5t-14 153v365q0 71 17.5 133.5t55 117t105.5 86.5t160 32q167 0 249.5 -95.5t82.5 -271.5v-258z
M315 659h156v105q0 65 -17.5 94t-60.5 29q-78 0 -78 -123v-105zM510 -338h-250v242h250v-242z" />
    <glyph glyph-name="uni1EBA" unicode="&#x1eba;" horiz-adv-x="690" 
d="M625 836v-232h-281v-373h330l-31 -231h-563v1366h561v-231h-297v-299h281zM453 1438h-199q38 40 54 65t16 49q0 35 -43 35q-31 0 -72 -18l-49 127q74 53 196 53q92 0 136.5 -40t44.5 -107q0 -89 -84 -164z" />
    <glyph glyph-name="uni1EBB" unicode="&#x1ebb;" horiz-adv-x="770" 
d="M725 471h-410v-156q0 -120 76 -120q43 0 58.5 31.5t15.5 90.5v25h256v-14q0 -49 -6.5 -92t-28 -91t-56 -82t-96 -56.5t-143.5 -22.5q-101 0 -168.5 27t-103.5 80.5t-50 117.5t-14 153v365q0 71 17.5 133.5t55 117t105.5 86.5t160 32q167 0 249.5 -95.5t82.5 -271.5v-258z
M315 659h156v105q0 65 -17.5 94t-60.5 29q-78 0 -78 -123v-105zM479 1169h-198q69 72 69 115q0 35 -43 35q-28 0 -71 -19l-50 127q76 54 197 54q92 0 136 -40.5t44 -107.5q0 -89 -84 -164z" />
    <glyph glyph-name="uni1EBC" unicode="&#x1ebc;" horiz-adv-x="690" 
d="M625 836v-232h-281v-373h330l-31 -231h-563v1366h561v-231h-297v-299h281zM231 1458h-157v43q0 108 41 149.5t112 41.5q56 0 134 -28t94 -28q10 0 16 2t11 11t5 24v19h154v-35q0 -115 -36.5 -159t-112.5 -44q-50 0 -129 27.5t-101 27.5q-31 0 -31 -36v-15z" />
    <glyph glyph-name="uni1EBD" unicode="&#x1ebd;" horiz-adv-x="770" 
d="M725 471h-410v-156q0 -120 76 -120q43 0 58.5 31.5t15.5 90.5v25h256v-14q0 -49 -6.5 -92t-28 -91t-56 -82t-96 -56.5t-143.5 -22.5q-101 0 -168.5 27t-103.5 80.5t-50 117.5t-14 153v365q0 71 17.5 133.5t55 117t105.5 86.5t160 32q167 0 249.5 -95.5t82.5 -271.5v-258z
M315 659h156v105q0 65 -17.5 94t-60.5 29q-78 0 -78 -123v-105zM276 1178h-153v63q0 178 141 178q53 0 125.5 -32.5t87.5 -32.5q7 0 11 2t7 12.5t3 30.5v16h147v-55q0 -103 -35 -146t-98 -43q-47 0 -120.5 34t-94.5 34q-11 0 -16 -8.5t-5 -34.5v-18z" />
    <glyph glyph-name="uni1EBE" unicode="&#x1ebe;" horiz-adv-x="690" 
d="M625 836v-232h-281v-373h330l-31 -231h-563v1366h561v-231h-297v-299h281zM225 1638h269l165 -192h-227l-76 88l-69 -88h-232zM729 1782h250l-213 -185h-186z" />
    <glyph glyph-name="uni1EBF" unicode="&#x1ebf;" horiz-adv-x="770" 
d="M725 471h-410v-156q0 -120 76 -120q43 0 58.5 31.5t15.5 90.5v25h256v-14q0 -49 -6.5 -92t-28 -91t-56 -82t-96 -56.5t-143.5 -22.5q-101 0 -168.5 27t-103.5 80.5t-50 117.5t-14 153v365q0 71 17.5 133.5t55 117t105.5 86.5t160 32q167 0 249.5 -95.5t82.5 -271.5v-258z
M315 659h156v105q0 65 -17.5 94t-60.5 29q-78 0 -78 -123v-105zM264 1409h250l166 -231h-215l-78 114l-78 -114h-217zM743 1561h240l-211 -207h-176z" />
    <glyph glyph-name="uni1EC0" unicode="&#x1ec0;" horiz-adv-x="690" 
d="M625 836v-232h-281v-373h330l-31 -231h-563v1366h561v-231h-297v-299h281zM225 1638h269l165 -192h-227l-76 88l-69 -88h-232zM432 1798h252l152 -194h-187z" />
    <glyph glyph-name="uni1EC1" unicode="&#x1ec1;" horiz-adv-x="770" 
d="M725 471h-410v-156q0 -120 76 -120q43 0 58.5 31.5t15.5 90.5v25h256v-14q0 -49 -6.5 -92t-28 -91t-56 -82t-96 -56.5t-143.5 -22.5q-101 0 -168.5 27t-103.5 80.5t-50 117.5t-14 153v365q0 71 17.5 133.5t55 117t105.5 86.5t160 32q167 0 249.5 -95.5t82.5 -271.5v-258z
M315 659h156v105q0 65 -17.5 94t-60.5 29q-78 0 -78 -123v-105zM264 1407h250l166 -231h-215l-78 116l-78 -116h-217zM461 1571h250l137 -217h-174z" />
    <glyph glyph-name="uni1EC2" unicode="&#x1ec2;" horiz-adv-x="690" 
d="M625 836v-232h-281v-373h330l-31 -231h-563v1366h561v-231h-297v-299h281zM752 1597h-168q65 68 65 103q0 31 -41 31q-36 0 -71 -21l-45 113q79 55 178 55q80 0 119.5 -37t39.5 -98q0 -81 -77 -146zM225 1638h269l165 -192h-227l-76 88l-69 -88h-232z" />
    <glyph glyph-name="uni1EC3" unicode="&#x1ec3;" horiz-adv-x="770" 
d="M725 471h-410v-156q0 -120 76 -120q43 0 58.5 31.5t15.5 90.5v25h256v-14q0 -49 -6.5 -92t-28 -91t-56 -82t-96 -56.5t-143.5 -22.5q-101 0 -168.5 27t-103.5 80.5t-50 117.5t-14 153v365q0 71 17.5 133.5t55 117t105.5 86.5t160 32q167 0 249.5 -95.5t82.5 -271.5v-258z
M315 659h156v105q0 65 -17.5 94t-60.5 29q-78 0 -78 -123v-105zM264 1405h250l166 -231h-215l-78 116l-78 -116h-217zM778 1352h-168q66 72 66 104q0 29 -41 29q-40 0 -72 -19l-45 111q77 57 178 57q80 0 120 -37.5t40 -97.5q0 -82 -78 -147z" />
    <glyph glyph-name="uni1EC4" unicode="&#x1ec4;" horiz-adv-x="690" 
d="M625 836v-232h-281v-373h330l-31 -231h-563v1366h561v-231h-297v-299h281zM246 1663h-152v27q0 90 38 125.5t106 35.5q54 0 124.5 -25.5t86.5 -25.5q13 0 18.5 7t5.5 26v16h148v-22q0 -95 -37 -130.5t-101 -35.5q-49 0 -120 25.5t-91 25.5q-26 0 -26 -31v-18zM233 1612
h252l174 -168h-227l-78 69l-71 -69h-224z" />
    <glyph glyph-name="uni1EC5" unicode="&#x1ec5;" horiz-adv-x="770" 
d="M725 471h-410v-156q0 -120 76 -120q43 0 58.5 31.5t15.5 90.5v25h256v-14q0 -49 -6.5 -92t-28 -91t-56 -82t-96 -56.5t-143.5 -22.5q-101 0 -168.5 27t-103.5 80.5t-50 117.5t-14 153v365q0 71 17.5 133.5t55 117t105.5 86.5t160 32q167 0 249.5 -95.5t82.5 -271.5v-258z
M315 659h156v105q0 65 -17.5 94t-60.5 29q-78 0 -78 -123v-105zM268 1411h-143v29q0 172 141 172q56 0 127.5 -26.5t87.5 -26.5q25 0 25 34v19h139v-25q0 -99 -36 -138.5t-99 -39.5q-49 0 -122 26.5t-93 26.5q-27 0 -27 -30v-21zM254 1354h264l172 -189h-229l-80 84l-76 -84
h-227z" />
    <glyph glyph-name="uni1EC6" unicode="&#x1ec6;" horiz-adv-x="690" 
d="M625 836v-232h-281v-373h330l-31 -231h-563v1366h561v-231h-297v-299h281zM494 -338h-250v242h250v-242zM225 1653h267l178 -203h-240l-74 84l-67 -84h-244z" />
    <glyph glyph-name="uni1EC7" unicode="&#x1ec7;" horiz-adv-x="770" 
d="M725 471h-410v-156q0 -120 76 -120q43 0 58.5 31.5t15.5 90.5v25h256v-14q0 -49 -6.5 -92t-28 -91t-56 -82t-96 -56.5t-143.5 -22.5q-101 0 -168.5 27t-103.5 80.5t-50 117.5t-14 153v365q0 71 17.5 133.5t55 117t105.5 86.5t160 32q167 0 249.5 -95.5t82.5 -271.5v-258z
M315 659h156v105q0 65 -17.5 94t-60.5 29q-78 0 -78 -123v-105zM510 -338h-250v242h250v-242zM256 1425h260l168 -237h-223l-76 110l-74 -110h-223z" />
    <glyph glyph-name="uni1EC8" unicode="&#x1ec8;" horiz-adv-x="428" 
d="M82 1366h262v-1366h-262v1366zM303 1440h-199q38 40 54 65t16 49q0 35 -43 35q-31 0 -72 -18l-49 127q30 21 82.5 37t114.5 16q92 0 136 -40t44 -107q0 -89 -84 -164z" />
    <glyph glyph-name="uni1EC9" unicode="&#x1ec9;" horiz-adv-x="415" 
d="M76 0v1079h264v-1079h-264zM301 1169h-199q38 39 54 65t16 50q0 35 -43 35q-29 0 -72 -19l-49 127q76 54 197 54q92 0 136 -40.5t44 -107.5q0 -89 -84 -164z" />
    <glyph glyph-name="uni1ECA" unicode="&#x1eca;" horiz-adv-x="428" 
d="M82 1366h262v-1366h-262v1366zM338 -338h-250v242h250v-242z" />
    <glyph glyph-name="uni1ECB" unicode="&#x1ecb;" horiz-adv-x="415" 
d="M76 0v1079h264v-1079h-264zM78 1188v239h262v-239h-262zM332 -338h-250v242h250v-242z" />
    <glyph glyph-name="uni1ECC" unicode="&#x1ecc;" horiz-adv-x="829" 
d="M416 1386q166 0 260 -94.5t94 -290.5v-634q0 -199 -92 -293t-275 -94q-172 0 -258 94t-86 291v643q0 191 95.5 284.5t261.5 93.5zM414 1161q-88 0 -88 -131v-698q0 -129 88 -129q46 0 67 31.5t21 99.5v698q0 67 -20 98t-68 31zM539 -338h-250v242h250v-242z" />
    <glyph glyph-name="uni1ECD" unicode="&#x1ecd;" horiz-adv-x="788" 
d="M395 1096q159 0 249.5 -88.5t90.5 -266.5v-405q0 -176 -89 -264t-255 -88q-165 0 -250.5 88t-85.5 264v416q0 173 93 258.5t247 85.5zM395 877q-78 0 -78 -113v-442q0 -119 78 -119q42 0 59 30t17 91v442q0 54 -16.5 82.5t-59.5 28.5zM520 -338h-250v242h250v-242z" />
    <glyph glyph-name="uni1ECE" unicode="&#x1ece;" horiz-adv-x="829" 
d="M416 1386q166 0 260 -94.5t94 -290.5v-634q0 -199 -92 -293t-275 -94q-172 0 -258 94t-86 291v643q0 191 95.5 284.5t261.5 93.5zM414 1161q-88 0 -88 -131v-698q0 -129 88 -129q46 0 67 31.5t21 99.5v698q0 67 -20 98t-68 31zM510 1442h-199q38 40 54 65t16 49
q0 35 -43 35q-31 0 -72 -18l-49 127q30 21 82.5 37t114.5 16q92 0 136 -40t44 -107q0 -89 -84 -164z" />
    <glyph glyph-name="uni1ECF" unicode="&#x1ecf;" horiz-adv-x="788" 
d="M395 1096q159 0 249.5 -88.5t90.5 -266.5v-405q0 -176 -89 -264t-255 -88q-165 0 -250.5 88t-85.5 264v416q0 173 93 258.5t247 85.5zM395 877q-78 0 -78 -113v-442q0 -119 78 -119q42 0 59 30t17 91v442q0 54 -16.5 82.5t-59.5 28.5zM489 1171h-198q69 72 69 115
q0 35 -43 35q-31 0 -71 -18l-49 127q74 53 196 53q92 0 136 -40.5t44 -107.5q0 -89 -84 -164z" />
    <glyph glyph-name="uni1ED0" unicode="&#x1ed0;" horiz-adv-x="829" 
d="M416 1386q166 0 260 -94.5t94 -290.5v-634q0 -199 -92 -293t-275 -94q-172 0 -258 94t-86 291v643q0 191 95.5 284.5t261.5 93.5zM414 1161q-88 0 -88 -131v-698q0 -129 88 -129q46 0 67 31.5t21 99.5v698q0 67 -20 98t-68 31zM281 1638h268l166 -192h-228l-75 88
l-70 -88h-231zM784 1782h250l-213 -185h-186z" />
    <glyph glyph-name="uni1ED1" unicode="&#x1ed1;" horiz-adv-x="788" 
d="M395 1096q159 0 249.5 -88.5t90.5 -266.5v-405q0 -176 -89 -264t-255 -88q-165 0 -250.5 88t-85.5 264v416q0 173 93 258.5t247 85.5zM395 877q-78 0 -78 -113v-442q0 -119 78 -119q42 0 59 30t17 91v442q0 54 -16.5 82.5t-59.5 28.5zM274 1409h250l166 -231h-215
l-78 114l-78 -114h-217zM754 1561h239l-211 -207h-176z" />
    <glyph glyph-name="uni1ED2" unicode="&#x1ed2;" horiz-adv-x="829" 
d="M416 1386q166 0 260 -94.5t94 -290.5v-634q0 -199 -92 -293t-275 -94q-172 0 -258 94t-86 291v643q0 191 95.5 284.5t261.5 93.5zM414 1161q-88 0 -88 -131v-698q0 -129 88 -129q46 0 67 31.5t21 99.5v698q0 67 -20 98t-68 31zM281 1638h268l166 -192h-228l-75 88
l-70 -88h-231zM487 1798h252l152 -194h-186z" />
    <glyph glyph-name="uni1ED3" unicode="&#x1ed3;" horiz-adv-x="788" 
d="M395 1096q159 0 249.5 -88.5t90.5 -266.5v-405q0 -176 -89 -264t-255 -88q-165 0 -250.5 88t-85.5 264v416q0 173 93 258.5t247 85.5zM395 877q-78 0 -78 -113v-442q0 -119 78 -119q42 0 59 30t17 91v442q0 54 -16.5 82.5t-59.5 28.5zM274 1407h250l166 -231h-215
l-78 116l-78 -116h-217zM471 1571h250l137 -217h-174z" />
    <glyph glyph-name="uni1ED4" unicode="&#x1ed4;" horiz-adv-x="829" 
d="M416 1386q166 0 260 -94.5t94 -290.5v-634q0 -199 -92 -293t-275 -94q-172 0 -258 94t-86 291v643q0 191 95.5 284.5t261.5 93.5zM414 1161q-88 0 -88 -131v-698q0 -129 88 -129q46 0 67 31.5t21 99.5v698q0 67 -20 98t-68 31zM807 1597h-168q66 69 66 103q0 31 -41 31
q-37 0 -72 -21l-45 113q79 55 178 55q80 0 120 -37.5t40 -97.5q0 -81 -78 -146zM281 1638h268l166 -192h-228l-75 88l-70 -88h-231z" />
    <glyph glyph-name="uni1ED5" unicode="&#x1ed5;" horiz-adv-x="788" 
d="M395 1096q159 0 249.5 -88.5t90.5 -266.5v-405q0 -176 -89 -264t-255 -88q-165 0 -250.5 88t-85.5 264v416q0 173 93 258.5t247 85.5zM395 877q-78 0 -78 -113v-442q0 -119 78 -119q42 0 59 30t17 91v442q0 54 -16.5 82.5t-59.5 28.5zM274 1405h250l166 -231h-215
l-78 116l-78 -116h-217zM788 1352h-167q65 71 65 104q0 29 -41 29q-40 0 -72 -19l-45 111q77 57 179 57q80 0 119.5 -37t39.5 -98q0 -82 -78 -147z" />
    <glyph glyph-name="uni1ED6" unicode="&#x1ed6;" horiz-adv-x="829" 
d="M416 1386q166 0 260 -94.5t94 -290.5v-634q0 -199 -92 -293t-275 -94q-172 0 -258 94t-86 291v643q0 191 95.5 284.5t261.5 93.5zM414 1161q-88 0 -88 -131v-698q0 -129 88 -129q46 0 67 31.5t21 99.5v698q0 67 -20 98t-68 31zM301 1665h-151v27q0 90 37.5 125.5
t105.5 35.5q54 0 124.5 -25.5t86.5 -25.5q13 0 18.5 7t5.5 26v16h148v-22q0 -95 -36.5 -130.5t-100.5 -35.5q-49 0 -120 25.5t-91 25.5q-27 0 -27 -31v-18zM289 1614h252l174 -168h-228l-77 70l-72 -70h-223z" />
    <glyph glyph-name="uni1ED7" unicode="&#x1ed7;" horiz-adv-x="788" 
d="M395 1096q159 0 249.5 -88.5t90.5 -266.5v-405q0 -176 -89 -264t-255 -88q-165 0 -250.5 88t-85.5 264v416q0 173 93 258.5t247 85.5zM395 877q-78 0 -78 -113v-442q0 -119 78 -119q42 0 59 30t17 91v442q0 54 -16.5 82.5t-59.5 28.5zM279 1411h-144v29q0 172 141 172
q56 0 128 -26.5t88 -26.5q13 0 18.5 7.5t5.5 26.5v19h139v-25q0 -99 -36 -138.5t-99 -39.5q-49 0 -122 26.5t-93 26.5q-26 0 -26 -30v-21zM264 1354h264l172 -189h-229l-80 84l-76 -84h-227z" />
    <glyph glyph-name="uni1ED8" unicode="&#x1ed8;" horiz-adv-x="829" 
d="M416 1386q166 0 260 -94.5t94 -290.5v-634q0 -199 -92 -293t-275 -94q-172 0 -258 94t-86 291v643q0 191 95.5 284.5t261.5 93.5zM414 1161q-88 0 -88 -131v-698q0 -129 88 -129q46 0 67 31.5t21 99.5v698q0 67 -20 98t-68 31zM539 -338h-250v242h250v-242zM281 1653h266
l178 -203h-240l-73 84l-68 -84h-244z" />
    <glyph glyph-name="uni1ED9" unicode="&#x1ed9;" horiz-adv-x="788" 
d="M395 1096q159 0 249.5 -88.5t90.5 -266.5v-405q0 -176 -89 -264t-255 -88q-165 0 -250.5 88t-85.5 264v416q0 173 93 258.5t247 85.5zM395 877q-78 0 -78 -113v-442q0 -119 78 -119q42 0 59 30t17 91v442q0 54 -16.5 82.5t-59.5 28.5zM520 -338h-250v242h250v-242z
M266 1425h260l168 -237h-223l-76 110l-73 -110h-224z" />
    <glyph glyph-name="uni1EDA" unicode="&#x1eda;" horiz-adv-x="829" 
d="M416 1386q122 0 200 -47q17 20 17 66q0 13 -2 26t-3.5 20t-6.5 23.5t-7 24.5h224q16 -46 16 -108q0 -161 -109 -222q25 -73 25 -168v-634q0 -199 -92 -293t-275 -94q-172 0 -258 94t-86 291v643q0 191 95.5 284.5t261.5 93.5zM414 1161q-88 0 -88 -131v-698
q0 -129 88 -129q46 0 67 31.5t21 99.5v698q0 67 -20 98t-68 31zM471 1665h307l-268 -205h-231z" />
    <glyph glyph-name="uni1EDB" unicode="&#x1edb;" horiz-adv-x="788" 
d="M395 1096q103 0 172 -35q21 24 21 72q0 13 -2 26t-3.5 20t-6.5 23.5t-7 24.5h224q16 -46 16 -109q0 -154 -98 -215q24 -68 24 -162v-405q0 -176 -89 -264t-255 -88q-165 0 -250.5 88t-85.5 264v416q0 173 93 258.5t247 85.5zM395 877q-78 0 -78 -113v-442q0 -119 78 -119
q42 0 59 30t17 91v442q0 54 -16.5 82.5t-59.5 28.5zM416 1450h284l-249 -274h-215z" />
    <glyph glyph-name="uni1EDC" unicode="&#x1edc;" horiz-adv-x="829" 
d="M416 1386q122 0 200 -47q17 20 17 66q0 13 -2 26t-3.5 20t-6.5 23.5t-7 24.5h224q16 -46 16 -108q0 -161 -109 -222q25 -73 25 -168v-634q0 -199 -92 -293t-275 -94q-172 0 -258 94t-86 291v643q0 191 95.5 284.5t261.5 93.5zM414 1161q-88 0 -88 -131v-698
q0 -129 88 -129q46 0 67 31.5t21 99.5v698q0 67 -20 98t-68 31zM45 1665h322l190 -205h-244z" />
    <glyph glyph-name="uni1EDD" unicode="&#x1edd;" horiz-adv-x="788" 
d="M395 1096q103 0 172 -35q21 24 21 72q0 13 -2 26t-3.5 20t-6.5 23.5t-7 24.5h224q16 -46 16 -109q0 -154 -98 -215q24 -68 24 -162v-405q0 -176 -89 -264t-255 -88q-165 0 -250.5 88t-85.5 264v416q0 173 93 258.5t247 85.5zM395 877q-78 0 -78 -113v-442q0 -119 78 -119
q42 0 59 30t17 91v442q0 54 -16.5 82.5t-59.5 28.5zM57 1450h289l166 -274h-211z" />
    <glyph glyph-name="uni1EDE" unicode="&#x1ede;" horiz-adv-x="829" 
d="M416 1386q122 0 200 -47q17 20 17 66q0 13 -2 26t-3.5 20t-6.5 23.5t-7 24.5h224q16 -46 16 -108q0 -161 -109 -222q25 -73 25 -168v-634q0 -199 -92 -293t-275 -94q-172 0 -258 94t-86 291v643q0 191 95.5 284.5t261.5 93.5zM414 1161q-88 0 -88 -131v-698
q0 -129 88 -129q46 0 67 31.5t21 99.5v698q0 67 -20 98t-68 31zM504 1446h-199q38 39 54 65t16 50q0 34 -43 34q-32 0 -72 -18l-49 127q30 21 82.5 37t114.5 16q92 0 136 -40t44 -107q0 -89 -84 -164z" />
    <glyph glyph-name="uni1EDF" unicode="&#x1edf;" horiz-adv-x="788" 
d="M395 1096q103 0 172 -35q21 24 21 72q0 13 -2 26t-3.5 20t-6.5 23.5t-7 24.5h224q16 -46 16 -109q0 -154 -98 -215q24 -68 24 -162v-405q0 -176 -89 -264t-255 -88q-165 0 -250.5 88t-85.5 264v416q0 173 93 258.5t247 85.5zM395 877q-78 0 -78 -113v-442q0 -119 78 -119
q42 0 59 30t17 91v442q0 54 -16.5 82.5t-59.5 28.5zM481 1174h-198q38 39 53.5 64.5t15.5 49.5q0 35 -43 35q-31 0 -71 -18l-50 127q30 21 82.5 37t114.5 16q92 0 136 -40.5t44 -107.5q0 -88 -84 -163z" />
    <glyph glyph-name="uni1EE0" unicode="&#x1ee0;" horiz-adv-x="829" 
d="M416 1386q122 0 200 -47q17 20 17 66q0 24 -12 74q-37 -11 -70 -11q-50 0 -128.5 28t-100.5 28q-31 0 -31 -37v-14h-158v43q0 108 41.5 149t112.5 41q56 0 133.5 -27.5t93.5 -27.5q33 0 33 37v18h153v-35q0 -129 -49 -172h187q16 -46 16 -108q0 -161 -109 -222
q25 -73 25 -168v-634q0 -199 -92 -293t-275 -94q-172 0 -258 94t-86 291v643q0 191 95.5 284.5t261.5 93.5zM414 1161q-88 0 -88 -131v-698q0 -129 88 -129q46 0 67 31.5t21 99.5v698q0 67 -20 98t-68 31z" />
    <glyph glyph-name="uni1EE1" unicode="&#x1ee1;" horiz-adv-x="788" 
d="M395 1096q103 0 172 -35q21 24 21 72q0 21 -8 57q-27 -10 -58 -10q-47 0 -120.5 33.5t-94.5 33.5q-11 0 -15.5 -8.5t-4.5 -34.5v-18h-154v63q0 178 141 178q53 0 125.5 -32.5t87.5 -32.5q7 0 11 2t7 12.5t3 30.5v16h147v-55q0 -95 -32 -141h170q16 -46 16 -109
q0 -154 -98 -215q24 -68 24 -162v-405q0 -176 -89 -264t-255 -88q-165 0 -250.5 88t-85.5 264v416q0 173 93 258.5t247 85.5zM395 877q-78 0 -78 -113v-442q0 -119 78 -119q42 0 59 30t17 91v442q0 54 -16.5 82.5t-59.5 28.5z" />
    <glyph glyph-name="uni1EE2" unicode="&#x1ee2;" horiz-adv-x="829" 
d="M416 1386q122 0 200 -47q17 20 17 66q0 13 -2 26t-3.5 20t-6.5 23.5t-7 24.5h224q16 -46 16 -108q0 -161 -109 -222q25 -73 25 -168v-634q0 -199 -92 -293t-275 -94q-172 0 -258 94t-86 291v643q0 191 95.5 284.5t261.5 93.5zM414 1161q-88 0 -88 -131v-698
q0 -129 88 -129q46 0 67 31.5t21 99.5v698q0 67 -20 98t-68 31zM539 -338h-250v242h250v-242z" />
    <glyph glyph-name="uni1EE3" unicode="&#x1ee3;" horiz-adv-x="788" 
d="M395 1096q103 0 172 -35q21 24 21 72q0 13 -2 26t-3.5 20t-6.5 23.5t-7 24.5h224q16 -46 16 -109q0 -154 -98 -215q24 -68 24 -162v-405q0 -176 -89 -264t-255 -88q-165 0 -250.5 88t-85.5 264v416q0 173 93 258.5t247 85.5zM395 877q-78 0 -78 -113v-442q0 -119 78 -119
q42 0 59 30t17 91v442q0 54 -16.5 82.5t-59.5 28.5zM520 -338h-250v242h250v-242z" />
    <glyph glyph-name="uni1EE4" unicode="&#x1ee4;" horiz-adv-x="847" 
d="M76 1366h264v-1040q0 -123 84 -123q82 0 82 123v1040h266v-1024q0 -183 -86 -271.5t-266 -88.5q-178 0 -261 88t-83 276v1020zM549 -338h-250v242h250v-242z" />
    <glyph glyph-name="uni1EE5" unicode="&#x1ee5;" horiz-adv-x="829" 
d="M754 1079v-737q0 -283 2 -342h-252q-8 50 -8 94q-33 -62 -84 -86t-121 -24q-215 0 -215 278v817h264v-755q0 -58 17 -85.5t55 -27.5q43 0 61.5 32t18.5 109v727h262zM541 -338h-250v242h250v-242z" />
    <glyph glyph-name="uni1EE6" unicode="&#x1ee6;" horiz-adv-x="847" 
d="M76 1366h264v-1040q0 -123 84 -123q82 0 82 123v1040h266v-1024q0 -183 -86 -271.5t-266 -88.5q-178 0 -261 88t-83 276v1020zM514 1434h-199q38 40 54 65t16 49q0 35 -43 35q-32 0 -72 -18l-49 127q30 21 82.5 37t114.5 16q92 0 136 -40.5t44 -107.5q0 -88 -84 -163z
" />
    <glyph glyph-name="uni1EE7" unicode="&#x1ee7;" horiz-adv-x="829" 
d="M754 1079v-737q0 -283 2 -342h-252q-8 50 -8 94q-33 -62 -84 -86t-121 -24q-215 0 -215 278v817h264v-755q0 -58 17 -85.5t55 -27.5q43 0 61.5 32t18.5 109v727h262zM510 1169h-199q38 39 54 65t16 50q0 35 -43 35q-29 0 -72 -19l-49 127q76 54 197 54q92 0 136 -40.5
t44 -107.5q0 -89 -84 -164z" />
    <glyph glyph-name="uni1EE8" unicode="&#x1ee8;" horiz-adv-x="847" 
d="M76 1366h264v-1040q0 -123 84 -123q82 0 82 123v1040h123l-2 2q43 14 43 84q0 13 -2 26t-3.5 20t-6.5 23.5t-7 24.5h223q17 -49 17 -108q0 -170 -119 -228v-868q0 -183 -86 -271.5t-266 -88.5q-178 0 -261 88t-83 276v1020zM481 1665h307l-268 -205h-231z" />
    <glyph glyph-name="uni1EE9" unicode="&#x1ee9;" horiz-adv-x="829" 
d="M496 94q-33 -62 -84 -86t-121 -24q-215 0 -215 278v817h264v-755q0 -58 17 -85.5t55 -27.5q43 0 61.5 32t18.5 109v727h116q43 14 43 84q0 27 -18 94h223q16 -46 16 -108q0 -169 -118 -227v-580q0 -283 2 -342h-252q-8 50 -8 94zM467 1450h285l-250 -274h-215z" />
    <glyph glyph-name="uni1EEA" unicode="&#x1eea;" horiz-adv-x="847" 
d="M76 1366h264v-1040q0 -123 84 -123q82 0 82 123v1040h123l-2 2q43 14 43 84q0 13 -2 26t-3.5 20t-6.5 23.5t-7 24.5h223q17 -49 17 -108q0 -170 -119 -228v-868q0 -183 -86 -271.5t-266 -88.5q-178 0 -261 88t-83 276v1020zM55 1665h322l190 -205h-243z" />
    <glyph glyph-name="uni1EEB" unicode="&#x1eeb;" horiz-adv-x="829" 
d="M496 94q-33 -62 -84 -86t-121 -24q-215 0 -215 278v817h264v-755q0 -58 17 -85.5t55 -27.5q43 0 61.5 32t18.5 109v727h116q43 14 43 84q0 27 -18 94h223q16 -46 16 -108q0 -169 -118 -227v-580q0 -283 2 -342h-252q-8 50 -8 94zM80 1446h289l166 -275h-211z" />
    <glyph glyph-name="uni1EEC" unicode="&#x1eec;" horiz-adv-x="847" 
d="M76 1366h264v-1040q0 -123 84 -123q82 0 82 123v1040h123l-2 2q43 14 43 84q0 13 -2 26t-3.5 20t-6.5 23.5t-7 24.5h223q17 -49 17 -108q0 -170 -119 -228v-868q0 -183 -86 -271.5t-266 -88.5q-178 0 -261 88t-83 276v1020zM518 1442h-199q38 40 54 65t16 49q0 35 -43 35
q-32 0 -72 -18l-49 127q30 21 82.5 37t114.5 16q92 0 136 -40t44 -107q0 -89 -84 -164z" />
    <glyph glyph-name="uni1EED" unicode="&#x1eed;" horiz-adv-x="829" 
d="M496 94q-33 -62 -84 -86t-121 -24q-215 0 -215 278v817h264v-755q0 -58 17 -85.5t55 -27.5q43 0 61.5 32t18.5 109v727h116q43 14 43 84q0 27 -18 94h223q16 -46 16 -108q0 -169 -118 -227v-580q0 -283 2 -342h-252q-8 50 -8 94zM510 1169h-199q38 39 54 65t16 50
q0 35 -43 35q-29 0 -72 -19l-49 127q76 54 197 54q92 0 136 -40.5t44 -107.5q0 -89 -84 -164z" />
    <glyph glyph-name="uni1EEE" unicode="&#x1eee;" horiz-adv-x="847" 
d="M76 1366h264v-1040q0 -123 84 -123q82 0 82 123v1040h123l-2 2q43 14 43 84q0 17 -4 41q-34 -39 -109 -39q-50 0 -128.5 27.5t-100.5 27.5q-31 0 -31 -36v-15h-158v43q0 108 41.5 149.5t112.5 41.5q56 0 133.5 -28t93.5 -28q33 0 33 37v19h154v-35q0 -64 -13 -111h180
q17 -49 17 -108q0 -170 -119 -228v-868q0 -183 -86 -271.5t-266 -88.5q-178 0 -261 88t-83 276v1020z" />
    <glyph glyph-name="uni1EEF" unicode="&#x1eef;" horiz-adv-x="829" 
d="M307 1184h-153v63q0 178 141 178q53 0 125.5 -32.5t87.5 -32.5q7 0 10.5 2t6.5 12.5t3 30.5v16h148v-55q0 -63 -17 -109h197q16 -46 16 -108q0 -169 -118 -227v-580q0 -283 2 -342h-252q-8 50 -8 94q-33 -62 -84 -86t-121 -24q-215 0 -215 278v817h264v-755
q0 -58 17 -85.5t55 -27.5q43 0 61.5 32t18.5 109v727h116q43 14 43 84q0 24 -8 60q-34 -45 -100 -45q-47 0 -120.5 33.5t-94.5 33.5q-11 0 -16 -8.5t-5 -34.5v-18z" />
    <glyph glyph-name="uni1EF0" unicode="&#x1ef0;" horiz-adv-x="847" 
d="M76 1366h264v-1040q0 -123 84 -123q82 0 82 123v1040h123l-2 2q43 14 43 84q0 13 -2 26t-3.5 20t-6.5 23.5t-7 24.5h223q17 -49 17 -108q0 -170 -119 -228v-868q0 -183 -86 -271.5t-266 -88.5q-178 0 -261 88t-83 276v1020zM549 -338h-250v242h250v-242z" />
    <glyph glyph-name="uni1EF1" unicode="&#x1ef1;" horiz-adv-x="829" 
d="M496 94q-33 -62 -84 -86t-121 -24q-215 0 -215 278v817h264v-755q0 -58 17 -85.5t55 -27.5q43 0 61.5 32t18.5 109v727h116q43 14 43 84q0 27 -18 94h223q16 -46 16 -108q0 -169 -118 -227v-580q0 -283 2 -342h-252q-8 50 -8 94zM541 -338h-250v242h250v-242z" />
    <glyph glyph-name="Ygrave" unicode="&#x1ef2;" horiz-adv-x="743" 
d="M502 0h-262v438q0 28 -11 70l-239 858h286q82 -438 97 -596h8q25 176 102 596h271l-246 -879q-6 -27 -6 -59v-428zM0 1651h322l190 -205h-244z" />
    <glyph glyph-name="ygrave" unicode="&#x1ef3;" horiz-adv-x="743" 
d="M-6 1079h285q85 -588 92 -760h10q14 173 96 760h268q-6 -26 -108.5 -518t-122.5 -581q-23 -105 -50 -171t-67 -104.5t-88.5 -52.5t-120.5 -14q-64 0 -122 10l4 223q2 0 24 -2t35 -2q49 0 74.5 19t34.5 73zM37 1450h289l166 -274h-211z" />
    <glyph glyph-name="uni1EF4" unicode="&#x1ef4;" horiz-adv-x="743" 
d="M502 0h-262v438q0 28 -11 70l-239 858h286q82 -438 97 -596h8q25 176 102 596h271l-246 -879q-6 -27 -6 -59v-428zM496 -338h-250v242h250v-242z" />
    <glyph glyph-name="uni1EF5" unicode="&#x1ef5;" horiz-adv-x="743" 
d="M-6 1079h285q85 -588 92 -760h10q14 173 96 760h268q-6 -26 -108.5 -518t-122.5 -581q-23 -105 -50 -171t-67 -104.5t-88.5 -52.5t-120.5 -14q-64 0 -122 10l4 223q2 0 24 -2t35 -2q49 0 74.5 19t34.5 73zM803 -303h-250v242h250v-242z" />
    <glyph glyph-name="uni1EF6" unicode="&#x1ef6;" horiz-adv-x="743" 
d="M502 0h-262v438q0 28 -11 70l-239 858h286q82 -438 97 -596h8q25 176 102 596h271l-246 -879q-6 -27 -6 -59v-428zM463 1423h-199q38 39 54 65t16 50q0 35 -43 35q-29 0 -72 -19l-49 127q76 54 197 54q92 0 136 -40.5t44 -107.5q0 -89 -84 -164z" />
    <glyph glyph-name="uni1EF7" unicode="&#x1ef7;" horiz-adv-x="743" 
d="M-6 1079h285q85 -588 92 -760h10q14 173 96 760h268q-6 -26 -108.5 -518t-122.5 -581q-23 -105 -50 -171t-67 -104.5t-88.5 -52.5t-120.5 -14q-64 0 -122 10l4 223q2 0 24 -2t35 -2q49 0 74.5 19t34.5 73zM465 1169h-199q38 39 54 65t16 50q0 35 -43 35q-29 0 -72 -19
l-49 127q76 54 197 54q92 0 136 -40.5t44 -107.5q0 -89 -84 -164z" />
    <glyph glyph-name="uni1EF8" unicode="&#x1ef8;" horiz-adv-x="743" 
d="M502 0h-262v438q0 28 -11 70l-239 858h286q82 -438 97 -596h8q25 176 102 596h271l-246 -879q-6 -27 -6 -59v-428zM244 1458h-158v43q0 108 41.5 149.5t112.5 41.5q56 0 133.5 -28t93.5 -28q33 0 33 37v19h153v-35q0 -115 -36.5 -159t-112.5 -44q-50 0 -129 27.5
t-101 27.5q-30 0 -30 -36v-15z" />
    <glyph glyph-name="uni1EF9" unicode="&#x1ef9;" horiz-adv-x="743" 
d="M-6 1079h285q85 -588 92 -760h10q14 173 96 760h268q-6 -26 -108.5 -518t-122.5 -581q-23 -105 -50 -171t-67 -104.5t-88.5 -52.5t-120.5 -14q-64 0 -122 10l4 223q2 0 24 -2t35 -2q49 0 74.5 19t34.5 73zM262 1178h-153v63q0 178 141 178q53 0 125.5 -32.5t87.5 -32.5
q7 0 10.5 2t6.5 12.5t3 30.5v16h148v-55q0 -103 -35 -146t-98 -43q-47 0 -120.5 34t-94.5 34q-11 0 -16 -8.5t-5 -34.5v-18z" />
    <glyph glyph-name="uni2007" unicode="&#x2007;" 
 />
    <glyph glyph-name="uni2010" unicode="&#x2010;" horiz-adv-x="477" 
d="M45 657h387v-223h-387v223z" />
    <glyph glyph-name="figuredash" unicode="&#x2012;" 
d="M115 782h555v-217h-555v217z" />
    <glyph glyph-name="endash" unicode="&#x2013;" horiz-adv-x="649" 
d="M45 655h559v-219h-559v219z" />
    <glyph glyph-name="emdash" unicode="&#x2014;" horiz-adv-x="1183" 
d="M45 655h1094v-219h-1094v219z" />
    <glyph glyph-name="uni2015" unicode="&#x2015;" horiz-adv-x="1183" 
d="M45 655h1094v-219h-1094v219z" />
    <glyph glyph-name="quoteleft" unicode="&#x2018;" horiz-adv-x="397" 
d="M168 1427h184q-68 -283 -65 -505h-234q4 133 38.5 276.5t76.5 228.5z" />
    <glyph glyph-name="quoteright" unicode="&#x2019;" horiz-adv-x="393" 
d="M229 922h-184q66 270 66 505h233q-4 -135 -39 -278.5t-76 -226.5z" />
    <glyph glyph-name="quotesinglbase" unicode="&#x201a;" horiz-adv-x="397" 
d="M233 -205h-184q69 283 66 506h233q-4 -135 -39 -279t-76 -227z" />
    <glyph glyph-name="quotedblleft" unicode="&#x201c;" horiz-adv-x="675" 
d="M457 1427h170q-66 -290 -66 -505h-219q4 120 39.5 269.5t75.5 235.5zM164 1427h170q-26 -111 -46 -255.5t-20 -249.5h-219q6 127 39 269t76 236z" />
    <glyph glyph-name="quotedblright" unicode="&#x201d;" horiz-adv-x="671" 
d="M215 922h-170q66 287 66 505h219q-4 -121 -39.5 -270t-75.5 -235zM508 922h-170q26 109 45.5 254t19.5 251h220q-6 -127 -39 -269t-76 -236z" />
    <glyph glyph-name="quotedblbase" unicode="&#x201e;" horiz-adv-x="675" 
d="M219 -205h-170q69 283 66 506h219q-4 -121 -39.5 -270.5t-75.5 -235.5zM512 -205h-170q26 104 46 251t20 255h219q-6 -127 -39 -269.5t-76 -236.5z" />
    <glyph glyph-name="dagger" unicode="&#x2020;" horiz-adv-x="714" 
d="M229 1284h230l-10 -352l217 10v-223l-217 10l10 -835h-230l13 835l-219 -10v223l219 -10z" />
    <glyph glyph-name="daggerdbl" unicode="&#x2021;" horiz-adv-x="716" 
d="M227 1284h234l-10 -315l215 10v-223l-215 10v-330l215 13v-222l-215 11l10 -371h-234l13 371l-217 -11v222l217 -13v330l-217 -10v223l217 -10z" />
    <glyph glyph-name="bullet" unicode="&#x2022;" horiz-adv-x="536" 
d="M80 733h377v-387h-377v387z" />
    <glyph glyph-name="ellipsis" unicode="&#x2026;" horiz-adv-x="1275" 
d="M330 0h-260v332h260v-332zM752 0h-260v332h260v-332zM1178 0h-260v332h260v-332z" />
    <glyph glyph-name="perthousand" unicode="&#x2030;" horiz-adv-x="1660" 
d="M1378 705q113 0 172.5 -64.5t59.5 -185.5v-211q0 -128 -60.5 -194t-171.5 -66q-228 0 -231 249v224q0 119 59.5 183.5t171.5 64.5zM1378 551q-57 0 -57 -84v-240q0 -84 57 -84q31 0 43.5 22t12.5 66v240q0 80 -56 80zM285 1348q110 0 169.5 -67.5t59.5 -182.5v-211
q0 -128 -59 -194t-172 -66q-229 0 -232 250v223q0 120 60 184t174 64zM285 1194q-60 0 -60 -84v-240q0 -86 58 -86q55 0 55 88v240q0 82 -53 82zM319 0h-122l622 1329h125zM864 705q111 0 170.5 -66t59.5 -184v-211q0 -128 -59.5 -194t-172.5 -66q-228 0 -231 249v224
q0 118 60 183t173 65zM864 551q-59 0 -59 -84v-240q0 -84 57 -84q31 0 43.5 22t12.5 66v240q0 80 -54 80z" />
    <glyph glyph-name="uni2032" unicode="&#x2032;" horiz-adv-x="503" 
d="M297 922h-195l74 505h225z" />
    <glyph glyph-name="uni2033" unicode="&#x2033;" horiz-adv-x="776" 
d="M283 922h-181l74 505h213zM567 922h-180l76 505h211z" />
    <glyph glyph-name="guilsinglleft" unicode="&#x2039;" horiz-adv-x="495" 
d="M442 885l-180 -342l180 -342h-206l-183 342l183 342h206z" />
    <glyph glyph-name="guilsinglright" unicode="&#x203a;" horiz-adv-x="495" 
d="M51 201l180 340l-180 344h205l182 -344l-182 -340h-205z" />
    <glyph glyph-name="fraction" unicode="&#x2044;" horiz-adv-x="188" 
d="M-129 0h-137l583 1329h138z" />
    <glyph glyph-name="zero.sups" unicode="&#x2070;" horiz-adv-x="567" 
d="M285 1604q117 0 177 -64t60 -186v-215q0 -258 -241 -258q-121 0 -178.5 67.5t-57.5 184.5v225q0 113 61 179.5t179 66.5zM283 1452q-50 0 -50 -74v-266q0 -76 52 -76q27 0 38 19t11 59v264q0 37 -11 55.5t-40 18.5z" />
    <glyph glyph-name="four.sups" unicode="&#x2074;" horiz-adv-x="569" 
d="M471 891h-172v158h-262v143l196 403h238v-399h70l-13 -147h-57v-158zM205 1196h94v64q0 135 4 174h-4q-30 -96 -94 -238z" />
    <glyph glyph-name="five.sups" unicode="&#x2075;" horiz-adv-x="569" 
d="M502 1595l-21 -153h-227q-10 -60 -10 -99q34 27 102 27q182 0 182 -231q0 -258 -245 -258q-122 0 -181 61t-61 162h186q0 -78 56 -78q32 0 44.5 27t12.5 82q0 57 -13.5 75.5t-45.5 18.5q-47 0 -62 -51l-168 12q24 172 41 405h410z" />
    <glyph glyph-name="six.sups" unicode="&#x2076;" horiz-adv-x="567" 
d="M520 1407h-180q-1 17 -4.5 28t-15 20t-31.5 9q-31 0 -43.5 -26t-12.5 -86v-29q43 43 123 43q179 0 179 -221q0 -264 -246 -264q-132 0 -188 79t-56 226v108q0 150 57 230t191 80q116 0 170.5 -56t56.5 -141zM293 1028q55 0 55 105q0 50 -11.5 72t-45.5 22
q-30 0 -44 -22.5t-14 -76.5q0 -49 13 -74.5t47 -25.5z" />
    <glyph glyph-name="seven.sups" unicode="&#x2077;" horiz-adv-x="499" 
d="M12 1595h455v-145q-142 -202 -193 -559h-208q16 152 79.5 307.5t126.5 231.5h-260v165z" />
    <glyph glyph-name="eight.sups" unicode="&#x2078;" horiz-adv-x="565" 
d="M274 881q-105 0 -170 54.5t-65 156.5q0 62 25 98t69 63q-78 54 -78 152q0 94 58.5 146.5t171.5 52.5q103 0 163 -51t60 -150q0 -98 -78 -148q96 -45 96 -163q0 -103 -66 -157t-186 -54zM283 1462q-25 0 -38.5 -15.5t-13.5 -43.5v-12q0 -28 12.5 -47t39.5 -19q49 0 49 64
v12q0 61 -49 61zM285 1026q24 0 38.5 16.5t14.5 49.5v22q0 70 -55 70q-56 0 -56 -70v-18q0 -70 58 -70z" />
    <glyph glyph-name="nine.sups" unicode="&#x2079;" horiz-adv-x="571" 
d="M49 1083h187q2 -31 12 -45t37 -14q32 0 42.5 29t10.5 92v39q-40 -49 -121 -49q-82 0 -130 52.5t-48 158.5v18q0 120 69 180t171 60q247 0 247 -281v-145q0 -156 -58.5 -226.5t-191.5 -70.5q-113 0 -169 54.5t-58 147.5zM283 1456q-56 0 -56 -76v-28q0 -76 56 -76
q55 0 55 80v26q0 74 -55 74z" />
    <glyph glyph-name="parenleft.sups" unicode="&#x207d;" horiz-adv-x="374" 
d="M182 1745h174q-118 -238 -118 -512q0 -278 118 -516h-174q-49 75 -87.5 208t-37.5 308q0 294 125 512z" />
    <glyph glyph-name="parenright.sups" unicode="&#x207e;" horiz-adv-x="374" 
d="M190 717h-172q119 249 119 512q0 162 -33 283.5t-86 232.5h172q48 -75 87.5 -207.5t39.5 -306.5q0 -287 -127 -514z" />
    <glyph glyph-name="n.sups" unicode="&#x207f;" horiz-adv-x="569" 
d="M55 625v430q0 168 -2 217h170q4 -9 8 -60q41 72 134 72q149 0 149 -182v-477h-180v434q0 69 -45 69q-28 0 -40.5 -19t-12.5 -67v-417h-181z" />
    <glyph glyph-name="zero.subs" unicode="&#x2080;" horiz-adv-x="567" 
d="M285 444q117 0 177 -63.5t60 -185.5v-215q0 -259 -241 -259q-121 0 -178.5 67.5t-57.5 184.5v226q0 113 61 179t179 66zM283 293q-50 0 -50 -74v-266q0 -76 52 -76q27 0 38 19t11 59v264q0 37 -11 55.5t-40 18.5z" />
    <glyph glyph-name="one.subs" unicode="&#x2081;" horiz-adv-x="350" 
d="M291 -268h-187v510q-43 0 -73 6v135q81 6 123 57h137v-708z" />
    <glyph glyph-name="two.subs" unicode="&#x2082;" horiz-adv-x="538" 
d="M487 -268h-448v14q-2 96 33.5 171t136.5 169q71 69 83 87q15 24 15 58q0 21 -2.5 35t-12.5 25.5t-28 11.5q-30 0 -41.5 -20.5t-11.5 -59.5v-37h-178v21q0 237 239 237q117 0 172.5 -58.5t55.5 -158.5q0 -65 -27.5 -107t-101.5 -110q-6 -5 -23.5 -21t-23.5 -21.5t-19 -19
t-19 -21.5t-13.5 -20t-12.5 -24h250z" />
    <glyph glyph-name="three.subs" unicode="&#x2083;" horiz-adv-x="544" 
d="M29 -51h180v-10q0 -74 57 -74q58 0 58 80q0 47 -18.5 66.5t-61.5 19.5h-56v143h54q40 0 54.5 16.5t14.5 51.5q0 63 -47 63q-51 0 -51 -74v-4h-176v4q0 92 55 152.5t176 60.5q119 0 172.5 -54t53.5 -138q0 -101 -91 -141q21 -9 36.5 -18.5t34.5 -28t29.5 -49t10.5 -70.5
q0 -107 -64.5 -165.5t-183.5 -58.5q-66 0 -114.5 20t-74 53.5t-37 69.5t-11.5 77v8z" />
    <glyph glyph-name="four.subs" unicode="&#x2084;" horiz-adv-x="569" 
d="M471 -268h-172v157h-262v144l196 403h238v-399h70l-13 -148h-57v-157zM205 37h94v63q0 135 4 174h-4q-29 -93 -94 -237z" />
    <glyph glyph-name="five.subs" unicode="&#x2085;" horiz-adv-x="569" 
d="M502 436l-21 -153h-227q-10 -60 -10 -99q34 27 102 27q182 0 182 -231q0 -120 -58.5 -189.5t-186.5 -69.5q-121 0 -180.5 61t-61.5 163h186q0 -78 56 -78q32 0 44.5 26.5t12.5 81.5q0 57 -13.5 76t-45.5 19q-47 0 -62 -52l-168 13q24 172 41 405h410z" />
    <glyph glyph-name="six.subs" unicode="&#x2086;" horiz-adv-x="567" 
d="M520 248h-180q-1 17 -4.5 28t-15 20t-31.5 9q-31 0 -43.5 -26t-12.5 -86v-29q43 43 123 43q179 0 179 -221q0 -265 -246 -265q-132 0 -188 79.5t-56 226.5v108q0 150 57 229.5t191 79.5q116 0 170.5 -55.5t56.5 -140.5zM293 -131q55 0 55 104q0 51 -11.5 73t-45.5 22
q-30 0 -44 -22.5t-14 -76.5q0 -49 13 -74.5t47 -25.5z" />
    <glyph glyph-name="seven.subs" unicode="&#x2087;" horiz-adv-x="499" 
d="M12 436h455v-145q-142 -202 -193 -559h-208q16 152 79.5 306.5t126.5 231.5h-260v166z" />
    <glyph glyph-name="eight.subs" unicode="&#x2088;" horiz-adv-x="565" 
d="M274 -279q-105 0 -170 54.5t-65 156.5q0 62 25.5 98.5t68.5 63.5q-78 54 -78 152q0 94 58.5 146t171.5 52q103 0 163 -51t60 -149t-78 -148q96 -45 96 -164q0 -103 -66 -157t-186 -54zM283 303q-25 0 -38.5 -15.5t-13.5 -43.5v-13q0 -65 52 -65q49 0 49 63v13
q0 61 -49 61zM285 -133q53 0 53 65v23q0 70 -55 70q-56 0 -56 -70v-18q0 -70 58 -70z" />
    <glyph glyph-name="nine.subs" unicode="&#x2089;" horiz-adv-x="571" 
d="M49 -76h187q2 -31 12 -45t37 -14q32 0 42.5 29t10.5 92v39q-40 -50 -121 -50q-82 0 -130 52.5t-48 158.5v19q0 120 68.5 179.5t171.5 59.5q247 0 247 -280v-146q0 -156 -58.5 -226.5t-191.5 -70.5q-113 0 -169 55t-58 148zM283 297q-56 0 -56 -76v-28q0 -76 56 -76
q55 0 55 80v26q0 74 -55 74z" />
    <glyph glyph-name="parenleft.subs" unicode="&#x208d;" horiz-adv-x="374" 
d="M182 586h174q-118 -238 -118 -512q0 -278 118 -516h-174q-49 75 -87.5 208t-37.5 308q0 294 125 512z" />
    <glyph glyph-name="parenright.subs" unicode="&#x208e;" horiz-adv-x="374" 
d="M190 -442h-172q119 249 119 512q0 162 -33 283.5t-86 232.5h172q48 -75 87.5 -207.5t39.5 -306.5q0 -287 -127 -514z" />
    <glyph glyph-name="colonmonetary" unicode="&#x20a1;" horiz-adv-x="784" 
d="M489 453h248v-43q0 -70 -5.5 -121.5t-21.5 -104.5t-49 -91t-83 -60v-160h-138v131q-12 -2 -37 -2h-18v-129h-137v154q-50 18 -85.5 51t-54.5 69.5t-29.5 88t-13 92t-2.5 96.5v510q0 291 185 364v129h137v-102h25h30v102h138v-131q48 -21 80 -55.5t47.5 -84t21.5 -100
t6 -120.5v-53h-246v67q0 89 -14.5 122.5t-62.5 33.5q-43 0 -61.5 -32.5t-18.5 -100.5v-598q0 -83 18.5 -117.5t63.5 -34.5q46 0 61.5 34.5t15.5 111.5v84z" />
    <glyph glyph-name="franc" unicode="&#x20a3;" horiz-adv-x="729" 
d="M119 0v242h-101v159h101v928h575v-223h-313v-277h287v-217h-287v-211h147v-159h-147v-242h-262z" />
    <glyph glyph-name="lira" unicode="&#x20a4;" horiz-adv-x="794" 
d="M729 0h-674v203q105 54 105 264v22h-123v134h117q-4 50 -4 75h-113v136h102q-6 85 -6 170q0 178 78.5 261t232.5 83q74 0 129.5 -19.5t88 -50t52.5 -75.5t27 -89t7 -98v-51h-238v63q0 58 -12.5 83.5t-46.5 25.5q-33 0 -45.5 -25.5t-12.5 -87.5q0 -63 10 -190h189v-136
h-180q0 -29 4 -75h176v-134h-178q-7 -184 -68 -266h410z" />
    <glyph glyph-name="uni20A6" unicode="&#x20a6;" horiz-adv-x="821" 
d="M279 991q4 -62 4 -100h24q-3 20 -8 54.5t-6 45.5h-14zM522 397h17q-1 15 -4.5 54t-4.5 61h-22q5 -36 14 -115zM291 0h-203v512h-70v147h70v84h-70v148h70v438h305q5 -63 60 -438h63q-2 45 -2 135v303h205v-438h67v-148h-67v-84h67v-147h-67v-512h-281q-5 56 -73 512h-74
v-197v-315zM522 659q0 13 -1 41t-1 43h-45q6 -43 12 -84h35zM342 659q-6 43 -12 84h-43q2 -27 2 -84h53z" />
    <glyph glyph-name="peseta" unicode="&#x20a7;" horiz-adv-x="823" 
d="M96 0v850h-65v160h65v319h297q173 0 259.5 -78t92.5 -241h58v-160h-58q-6 -176 -90.5 -253t-251.5 -77h-53v-520h-254zM350 1139v-129h139v8q0 64 -22.5 92.5t-81.5 28.5h-35zM350 717h31q52 0 80 29.5t28 103.5h-139v-133z" />
    <glyph glyph-name="dong" unicode="&#x20ab;" horiz-adv-x="811" 
d="M86 -96h645v-166h-645v166zM471 950v140h-246v167h246v89h264v-89h84v-167h-84v-781q0 -191 4 -309h-243q-11 50 -11 96q-31 -61 -77.5 -86.5t-116.5 -25.5q-236 0 -236 327v379q0 151 63 242.5t191 91.5q121 0 162 -74zM319 668v-328q0 -123 76 -123q45 0 61.5 36
t16.5 101v291q0 26 -1 42.5t-5 37t-11.5 32t-22 19.5t-34.5 8q-44 0 -62 -29.5t-18 -86.5z" />
    <glyph glyph-name="Euro" unicode="&#x20ac;" horiz-adv-x="835" 
d="M547 379h248v-17q0 -66 -7.5 -117.5t-29.5 -102t-59 -84t-99 -54t-145 -20.5q-63 0 -113.5 13.5t-85 35t-59.5 54.5t-39 65.5t-22 75.5t-10.5 77.5t-2.5 77.5v125h-86v133h86v78h-86v133h86v94q0 402 338 402q84 0 146 -22.5t96.5 -56t55 -84.5t26.5 -96t6 -102v-35h-246
v56q0 59 -15.5 89.5t-62.5 30.5q-76 0 -76 -120v-156h242v-133h-242v-78h242v-133h-242v-170q0 -70 17.5 -103.5t60.5 -33.5q42 0 60 35t18 106v37z" />
    <glyph glyph-name="uni20B1" unicode="&#x20b1;" horiz-adv-x="864" 
d="M117 0v750h-78v114h78v70h-78v115h78v280h313q315 0 334 -280h72v-115h-70v-70h70v-114h-72q-11 -148 -90 -219.5t-234 -71.5h-67v-459h-256zM373 1137v-88h139q-10 88 -96 88h-43zM373 662h41q86 0 98 88h-139v-88zM514 864v70h-141v-70h141z" />
    <glyph glyph-name="uni20B2" unicode="&#x20b2;" horiz-adv-x="798" 
d="M737 702v-645q-109 -39 -241 -53v-139h-177v141q-56 8 -99.5 27.5t-71.5 50.5t-46.5 66t-28.5 83.5t-13.5 94t-4.5 104.5v518q0 335 264 373v109h177v-111q73 -13 122 -46t74 -84t35 -106t10 -127v-59h-258v84q0 71 -17 101t-65 30q-44 0 -62 -29.5t-18 -93.5v-581
q0 -110 23 -151.5t86 -41.5q25 0 49 6v479h262z" />
    <glyph glyph-name="uni20B4" unicode="&#x20b4;" horiz-adv-x="792" 
d="M322 981h-240v23q0 344 309 344q155 0 232 -78.5t77 -241.5q0 -110 -32 -184h73v-129h-149q-24 -34 -62 -78h187v-127h-295q-48 -61 -66 -108.5t-18 -100.5q0 -49 16 -78.5t49 -29.5q76 0 76 133v41h242v-33q0 -191 -81.5 -271.5t-250.5 -80.5q-144 0 -226.5 77
t-82.5 246q0 118 43 205h-74v127h162q12 14 36.5 41.5t31.5 36.5h-203v129h313q56 82 53 194q-2 52 -15 76.5t-44 24.5q-61 0 -61 -103v-55z" />
    <glyph glyph-name="uni20B5" unicode="&#x20b5;" horiz-adv-x="770" 
d="M489 453h248v-43q0 -66 -4.5 -114.5t-19.5 -100.5t-41 -87.5t-71.5 -62.5t-108.5 -37v-141h-177v141q-49 8 -88 26.5t-65 41.5t-45 57t-29 65t-16 73.5t-7.5 75.5t-1.5 77v510q0 337 252 383v113h177v-111q62 -9 106 -33.5t70 -57t41 -81.5t19.5 -97t4.5 -114v-53h-246
v75q0 88 -14.5 121t-62.5 33q-43 0 -61.5 -32.5t-18.5 -100.5v-610q0 -81 18.5 -116.5t63.5 -35.5q46 0 60.5 34.5t16.5 113.5v88z" />
    <glyph glyph-name="uni20B9" unicode="&#x20b9;" horiz-adv-x="811" 
d="M762 928h-113q-6 -259 -221 -344l285 -584h-295l-256 545h-96v215h131q92 0 138 40t46 128h-315v143h294q-40 76 -170 76h-124v182h696v-143h-182q41 -54 55 -115h127v-143z" />
    <glyph glyph-name="uni20BA" unicode="&#x20ba;" horiz-adv-x="823" 
d="M383 0h-250v561l-121 -49v160l121 49v96l-121 -49v162l121 49v350h260v-248l185 74v-162l-185 -73v-97l185 74v-160l-185 -73v-441q82 0 119.5 63t40.5 195h231q0 -66 -9 -127t-36 -127.5t-69.5 -115t-116.5 -80t-170 -31.5z" />
    <glyph glyph-name="uni20BD" unicode="&#x20bd;" horiz-adv-x="823" 
d="M115 0v365h-105v153h105v82h-105v178h105v551h315q352 0 352 -328v-61q0 -168 -83 -254t-273 -86h-55v-82h194v-153h-194v-365h-256zM371 1133v-355h43q65 0 87.5 39t22.5 121v55q0 73 -21 106.5t-83 33.5h-49z" />
    <glyph glyph-name="uni2113" unicode="&#x2113;" horiz-adv-x="788" 
d="M379 1110v-313q52 64 76 138.5t24 174.5q0 51 -12 72.5t-37 21.5q-26 0 -38.5 -21t-12.5 -73zM512 348h238q1 -197 -76 -281.5t-248 -84.5q-158 0 -229.5 78t-71.5 253v31q-9 -7 -43.5 -27t-44.5 -26v246q47 27 86 61v459q0 188 81.5 277t221.5 89q151 -1 219.5 -86
t71.5 -245q1 -183 -81.5 -324.5t-256.5 -271.5v-148q0 -76 12.5 -109.5t54.5 -33.5q39 0 52.5 31.5t13.5 111.5z" />
    <glyph glyph-name="uni2116" unicode="&#x2116;" horiz-adv-x="1474" 
d="M326 0h-234v1343h309q40 -156 75 -317.5t52.5 -261.5t31.5 -184.5t15 -90.5h9q-17 279 -17 603v251h232v-1343h-299q-26 106 -95.5 465t-85.5 432h-6q13 -218 13 -629v-268zM1147 1276q123 0 198.5 -73t75.5 -224v-170q0 -313 -278 -313q-277 0 -277 317v164
q0 149 75 224t206 75zM1145 1085q-64 0 -64 -96v-198q0 -55 16.5 -79t49.5 -24q31 0 47 23.5t16 81.5v196q0 54 -16.5 75t-48.5 21zM909 410h473v-183h-473v183z" />
    <glyph glyph-name="uni2117" unicode="&#x2117;" horiz-adv-x="1153" 
d="M389 340v666h213q108 0 164.5 -49.5t56.5 -145.5v-55q0 -90 -54.5 -140.5t-154.5 -50.5h-57v-225h-168zM557 872v-178h27q38 0 54.5 14.5t16.5 51.5v51q0 38 -19 49.5t-61 11.5h-18zM578 1323q104 0 192 -36t159.5 -110t112.5 -203t41 -300q0 -168 -41 -296.5
t-112.5 -203.5t-160 -112t-191.5 -37q-84 0 -158 22t-139.5 71.5t-112.5 123.5t-74.5 184.5t-27.5 247.5q0 164 42 291.5t114 204t162.5 115t193.5 38.5zM575 1194q-172 0 -272 -128.5t-100 -389.5q0 -136 28.5 -238.5t79.5 -164t117 -91.5t147 -30q174 0 273.5 130.5
t99.5 391.5q0 267 -101 393.5t-272 126.5z" />
    <glyph glyph-name="uni2120" unicode="&#x2120;" horiz-adv-x="761" 
d="M23 1042h112q0 -55 31 -55q22 0 22 29q0 31 -47 59q-69 41 -91.5 75.5t-22.5 84.5q0 63 35.5 99t101.5 36q43 0 71.5 -12.5t41.5 -36.5t17.5 -46.5t4.5 -53.5h-106q0 51 -29 51q-23 0 -23 -25q0 -22 43 -49q74 -42 98.5 -75t24.5 -93q0 -141 -145 -141q-78 0 -108.5 41.5
t-30.5 111.5zM770 897h-125v125q1 40 10 231h-6q-13 -72 -28 -188.5t-23 -165.5h-100q-9 65 -21.5 179.5t-21.5 178.5h-6q8 -140 8 -256v-104h-119v469h186q17 -118 27 -238h6q11 110 35 238h178v-469z" />
    <glyph glyph-name="trademark" unicode="&#x2122;" horiz-adv-x="739" 
d="M4 1366h285v-111h-80v-358h-125v358h-80v111zM750 897h-125v125q0 67 8 231h-4q-13 -76 -31 -200.5t-23 -153.5h-100q-10 72 -22.5 191t-18.5 167h-6q8 -148 8 -262v-98h-119v469h187q15 -103 26 -238h5q12 121 34 238h181v-469z" />
    <glyph glyph-name="uni2126" unicode="&#x2126;" horiz-adv-x="829" 
d="M662 233h120v-233h-340v215q42 45 51 127.5t9 378.5v276q0 33 -1 53t-5.5 43.5t-13.5 36t-25 21t-39 8.5q-50 0 -68 -38t-18 -122v-276q0 -201 5 -297t16 -138t36 -73v-215h-344v233h121q-55 55 -77.5 161.5t-22.5 299.5v297q6 393 354 393q172 0 260.5 -93t89.5 -298
v-286q-1 -223 -24.5 -320t-83.5 -154z" />
    <glyph glyph-name="estimated" unicode="&#x212e;" horiz-adv-x="1116" 
d="M1081 618h-764q-4 0 -4 -6v-219q0 -20 9 -47q28 -89 89.5 -139.5t147.5 -50.5q89 0 141.5 35t83.5 106h230q-47 -139 -170 -226t-287 -87q-156 0 -272 86.5t-177 240.5t-61 355q0 200 67 356.5t185 242t266 85.5q233 0 374.5 -180t141.5 -513v-39zM821 803v160
q0 31 -12 55q-66 162 -240 162q-169 0 -245 -156q-11 -22 -11 -47v-174l4 -10h496q8 0 8 10z" />
    <glyph glyph-name="onethird" unicode="&#x2153;" horiz-adv-x="1107" 
d="M250 0h-137l583 1329h138zM293 625h-187v510q-43 0 -73 6v135q81 6 123 57h137v-708zM571 213h181v-10q0 -74 57 -74t57 80q0 47 -18.5 66.5t-61.5 19.5h-55v143h53q40 0 55 16.5t15 51.5q0 63 -47 63q-26 0 -38.5 -16.5t-12.5 -56.5v-4h-176v4q0 92 55 152.5t176 60.5
q118 0 171.5 -54.5t53.5 -138.5q0 -101 -90 -141q21 -9 36.5 -18.5t34.5 -28t29.5 -49t10.5 -70.5q0 -107 -64.5 -165t-183.5 -58q-66 0 -115 19.5t-74.5 53t-37 69.5t-11.5 77v8z" />
    <glyph glyph-name="twothirds" unicode="&#x2154;" horiz-adv-x="1275" 
d="M424 0h-137l583 1329h138zM489 625h-448v14q-2 96 33.5 171t136.5 169q71 69 83 87q15 24 15 58q0 21 -2.5 35t-12.5 25.5t-28 11.5q-30 0 -41.5 -20.5t-11.5 -59.5v-37h-178v21q0 237 239 237q117 0 172.5 -58.5t55.5 -158.5q0 -65 -27.5 -107t-101.5 -110
q-6 -5 -23.5 -21t-23.5 -21.5t-19 -19t-19 -21.5t-13.5 -20t-12.5 -24h250zM735 215h180v-10q0 -35 15 -54.5t43 -19.5q57 0 57 80q0 47 -18.5 66.5t-61.5 19.5h-55v143h53q40 0 55 16.5t15 51.5q0 63 -47 63q-26 0 -38.5 -16.5t-12.5 -56.5v-4h-177v4q0 92 55.5 152.5
t176.5 60.5q118 0 171.5 -54.5t53.5 -138.5q0 -101 -90 -141q21 -9 36.5 -18.5t34.5 -28t29.5 -49t10.5 -70.5q0 -107 -64.5 -165t-183.5 -58q-66 0 -115 19.5t-74.5 53t-37 69.5t-11.5 77v8z" />
    <glyph glyph-name="oneeighth" unicode="&#x215b;" horiz-adv-x="1120" 
d="M256 0h-137l583 1329h138zM301 625h-186v510q-44 0 -74 6v135q81 6 123 57h137v-708zM817 -14q-105 0 -170 54.5t-65 156.5q0 62 25 98t69 63q-78 54 -78 152q0 94 58 146.5t171 52.5q103 0 163.5 -51.5t60.5 -149.5t-78 -148q96 -45 96 -163q0 -103 -66 -157t-186 -54z
M825 567q-51 0 -51 -59v-12q0 -66 51 -66q49 0 49 64v12q0 61 -49 61zM827 131q24 0 39 16.5t15 49.5v22q0 70 -56 70q-55 0 -55 -70v-18q0 -70 57 -70z" />
    <glyph glyph-name="threeeighths" unicode="&#x215c;" horiz-adv-x="1253" 
d="M393 0h-137l584 1329h137zM940 -12q-105 0 -170 54.5t-65 156.5q0 62 25 98t69 63q-78 54 -78 152q0 94 58 146.5t171 52.5q103 0 163.5 -51.5t60.5 -149.5t-78 -148q96 -45 96 -163q0 -103 -66 -157t-186 -54zM948 569q-51 0 -51 -59v-12q0 -66 51 -66q49 0 49 64v12
q0 61 -49 61zM950 133q24 0 39 16.5t15 49.5v22q0 70 -56 70q-55 0 -55 -70v-18q0 -70 57 -70zM35 842h180v-11q0 -73 57 -73q58 0 58 80q0 47 -18.5 66.5t-61.5 19.5h-55v143h53q40 0 54.5 16.5t14.5 51.5q0 63 -47 63q-51 0 -51 -74v-4h-176v4q0 92 55 152.5t176 60.5
q119 0 172.5 -54t53.5 -138q0 -101 -90 -141q21 -9 36 -18.5t34 -28t29.5 -49t10.5 -70.5q0 -107 -64.5 -165.5t-183.5 -58.5q-66 0 -114.5 20t-74 53.5t-37 69.5t-11.5 77v8z" />
    <glyph glyph-name="fiveeighths" unicode="&#x215d;" horiz-adv-x="1267" 
d="M403 0h-137l584 1329h137zM506 1329l-21 -153h-227q-10 -60 -10 -99q34 27 102 27q182 0 182 -232q0 -258 -245 -258q-121 0 -180.5 61t-61.5 163h186q0 -78 56 -78q32 0 44.5 26.5t12.5 81.5q0 57 -13.5 76t-45.5 19q-47 0 -62 -52l-168 13q24 172 41 405h410zM954 -12
q-105 0 -170 54.5t-65 156.5q0 62 25 98t69 63q-78 54 -78 152q0 94 58.5 146.5t171.5 52.5q103 0 163 -51t60 -150q0 -98 -78 -148q96 -45 96 -163q0 -103 -66 -157t-186 -54zM963 569q-25 0 -38.5 -15.5t-13.5 -43.5v-12q0 -28 12.5 -47t39.5 -19q49 0 49 64v12
q0 61 -49 61zM965 133q24 0 38.5 16.5t14.5 49.5v22q0 70 -55 70q-56 0 -56 -70v-18q0 -70 58 -70z" />
    <glyph glyph-name="seveneighths" unicode="&#x215e;" horiz-adv-x="1171" 
d="M293 0h-137l583 1329h138zM856 -14q-105 0 -170 54.5t-65 156.5q0 62 25 98t69 63q-78 54 -78 152q0 94 58 146.5t171 52.5q103 0 163.5 -51.5t60.5 -149.5t-78 -148q96 -45 96 -163q0 -103 -66 -157t-186 -54zM864 567q-51 0 -51 -59v-12q0 -66 51 -66q49 0 49 64v12
q0 61 -49 61zM866 131q24 0 39 16.5t15 49.5v22q0 70 -56 70q-55 0 -55 -70v-18q0 -70 57 -70zM59 1329h455v-145q-140 -201 -192 -559h-209q16 152 79.5 306.5t126.5 231.5h-260v166z" />
    <glyph glyph-name="uni2190" unicode="&#x2190;" horiz-adv-x="1406" 
d="M1348 559h-928l483 -475l-125 -141l-721 714v2l721 713l123 -143l-481 -473h928v-197z" />
    <glyph glyph-name="arrowup" unicode="&#x2191;" horiz-adv-x="1447" 
d="M623 -18v1030l-428 -455l-138 141l666 684h2l666 -684l-140 -141l-426 455v-1030h-202z" />
    <glyph glyph-name="uni2192" unicode="&#x2192;" horiz-adv-x="1406" 
d="M59 756h928l-483 475l125 141l721 -715v-2l-721 -712l-123 143l481 473h-928v197z" />
    <glyph glyph-name="arrowdown" unicode="&#x2193;" horiz-adv-x="1447" 
d="M825 1354v-1030l428 454l138 -141l-666 -684h-2l-666 684l140 141l426 -454v1030h202z" />
    <glyph glyph-name="partialdiff" unicode="&#x2202;" horiz-adv-x="817" 
d="M121 1155v223q54 13 125 13q118 0 206 -30.5t144 -83t90.5 -133t48 -171t13.5 -205.5v-422q-2 -179 -87.5 -270.5t-267.5 -91.5q-158 0 -246 86.5t-88 269.5v215q0 159 82.5 248.5t231.5 89.5q85 0 108 -23v9q0 50 -6 88.5t-23 76t-45 62.5t-75 40t-111 15q-53 0 -100 -6
zM408 195q41 0 59 28t18 86v271q0 59 -21.5 82.5t-60.5 23.5q-77 0 -77 -106v-271q0 -114 82 -114z" />
    <glyph glyph-name="uni2206" unicode="&#x2206;" horiz-adv-x="815" 
d="M29 0v188l190 1178h363l204 -1176v-190h-757zM279 231h233q-6 47 -53 390.5t-64 511.5h-6q-13 -128 -31 -278t-43.5 -347t-35.5 -277z" />
    <glyph glyph-name="product" unicode="&#x220f;" horiz-adv-x="858" 
d="M80 1366h698v-1481h-264v1250h-172v-1250h-262v1481z" />
    <glyph glyph-name="summation" unicode="&#x2211;" horiz-adv-x="667" 
d="M637 -119h-625v193l238 547l-232 534v211h607v-231h-320l213 -498l-227 -524h375z" />
    <glyph glyph-name="minus" unicode="&#x2212;" horiz-adv-x="1007" 
d="M84 600h840v-199h-840v199z" />
    <glyph glyph-name="uni2215" unicode="&#x2215;" horiz-adv-x="188" 
d="M-129 0h-137l583 1329h138z" />
    <glyph glyph-name="uni2219" unicode="&#x2219;" horiz-adv-x="395" 
d="M328 410h-260v331h260v-331z" />
    <glyph glyph-name="radical" unicode="&#x221a;" horiz-adv-x="933" 
d="M928 1642l-318 -1908h-151l-236 760l-135 -50l-51 185l350 129q107 -415 133 -545q2 24 7 64t15.5 115t21 145t31.5 205t37.5 241t48 307t54.5 352h193z" />
    <glyph glyph-name="infinity" unicode="&#x221e;" horiz-adv-x="1337" 
d="M344 211q-135 0 -212 84t-77 215q0 126 80.5 212.5t222.5 86.5q95 0 166 -42.5t148 -119.5q42 40 68.5 62.5t67 49t84.5 38.5t95 12q135 0 215 -82.5t80 -216.5q0 -129 -83.5 -214t-221.5 -85q-64 -1 -124.5 24t-100 56.5t-88.5 81.5q-40 -39 -68 -62.5t-68.5 -49.5
t-85.5 -38t-98 -12zM971 410q53 0 78.5 28.5t25.5 71.5q0 46 -28 74t-74 28q-45 0 -85 -24t-89 -74q31 -29 42.5 -38.5t38 -30t48 -28t43.5 -7.5zM365 410q36 0 67 13.5t49 28.5t56 52q-53 57 -89 82.5t-81 25.5q-42 0 -74.5 -25.5t-32.5 -76.5q0 -46 32 -73t73 -27z" />
    <glyph glyph-name="integral" unicode="&#x222b;" horiz-adv-x="514" 
d="M532 1651l-20 -234q-35 6 -55 6q-53 0 -71.5 -31.5t-18.5 -111.5q0 -122 9 -580t9 -581v-14q0 -41 -0.5 -62.5t-1.5 -61.5t-5 -63.5t-10 -59t-16.5 -57.5t-25 -49t-35 -43.5t-45.5 -31.5t-59 -22t-74 -7q-87 0 -133 22l26 242q40 -10 76 -10q42 0 53 45.5t8 189.5
q-3 368 -14 1075q-1 77 4 136t21.5 122.5t46 104.5t81.5 67.5t124 26.5q84 0 126 -18z" />
    <glyph glyph-name="approxequal" unicode="&#x2248;" horiz-adv-x="991" 
d="M283 555h-191v57q0 120 52 169.5t143 49.5q67 0 142 -25t138.5 -50t100.5 -25q43 0 43 66v24h188v-55q0 -127 -53.5 -176t-143.5 -49q-69 0 -143 25.5t-134.5 51t-96.5 25.5q-23 0 -34 -14t-11 -54v-20zM283 209h-191v55q0 123 50.5 172t142.5 49q64 0 140 -24.5
t140.5 -49t102.5 -24.5q15 0 23 3.5t14 18t6 42.5v24h188v-57q0 -125 -53.5 -174t-140.5 -49q-60 0 -120 16t-100 35t-83 35t-72 16q-24 0 -35.5 -14t-11.5 -54v-20z" />
    <glyph glyph-name="notequal" unicode="&#x2260;" horiz-adv-x="1005" 
d="M793 932l-70 -148h199v-198h-293l-78 -168h371v-199h-465l-72 -151h-168l70 151h-203v199h295l80 168h-375v198h467l67 148h175z" />
    <glyph glyph-name="lessequal" unicode="&#x2264;" horiz-adv-x="911" 
d="M84 561v213l735 307v-217l-522 -192l522 -197v-219zM84 197h735v-197h-735v197z" />
    <glyph glyph-name="greaterequal" unicode="&#x2265;" horiz-adv-x="911" 
d="M819 776v-213l-735 -307v217l522 193l-522 196v219zM84 197h735v-197h-735v197z" />
    <glyph glyph-name="uni25A0" unicode="&#x25a0;" horiz-adv-x="649" 
d="M90 305v471h469v-471h-469z" />
    <glyph glyph-name="triagup" unicode="&#x25b2;" horiz-adv-x="1030" 
d="M981 14h-932l457 1112h6z" />
    <glyph glyph-name="uni25B3" unicode="&#x25b3;" horiz-adv-x="1030" 
d="M338 213h328l-166 442zM981 10h-932l457 1116h6z" />
    <glyph glyph-name="uni25B6" unicode="&#x25b6;" horiz-adv-x="1175" 
d="M88 90v932l1018 -457v-6z" />
    <glyph glyph-name="uni25B7" unicode="&#x25b7;" horiz-adv-x="1175" 
d="M283 733v-327l387 163zM88 90v932l1020 -457v-6z" />
    <glyph glyph-name="triagdn" unicode="&#x25bc;" horiz-adv-x="1030" 
d="M47 1092h930l-457 -1112h-4z" />
    <glyph glyph-name="uni25BD" unicode="&#x25bd;" horiz-adv-x="1030" 
d="M688 897h-328l166 -444zM47 1098h930l-457 -1114h-4z" />
    <glyph glyph-name="uni25C0" unicode="&#x25c0;" horiz-adv-x="1175" 
d="M1069 1022v-932l-1020 457v6z" />
    <glyph glyph-name="uni25C1" unicode="&#x25c1;" horiz-adv-x="1175" 
d="M877 379v328l-388 -164zM1071 1022v-932l-1022 457v6z" />
    <glyph glyph-name="uni25C6" unicode="&#x25c6;" horiz-adv-x="784" 
d="M70 539l321 321l324 -334l-320 -323z" />
    <glyph glyph-name="uni25C9" unicode="&#x25c9;" horiz-adv-x="837" 
d="M422 879q145 0 245.5 -107t100.5 -256q-2 -151 -102 -256.5t-246 -105.5q-148 0 -248.5 105t-99.5 257q-2 150 100 256.5t250 106.5zM420 737q-90 0 -147.5 -64t-55.5 -157q0 -96 57 -159.5t146 -63.5q90 0 147.5 62.5t57.5 160.5q0 93 -58.5 157t-146.5 64zM420 647
q55 0 91 -39t36 -92q0 -56 -35.5 -95.5t-91.5 -39.5t-91.5 38.5t-35.5 96.5q0 54 35.5 92.5t91.5 38.5z" />
    <glyph glyph-name="lozenge" unicode="&#x25ca;" horiz-adv-x="921" 
d="M856 672l-315 -692h-168l-307 688l311 690h168zM651 666l-139 323q-3 9 -24.5 60t-28.5 73h-6q-12 -45 -50 -137l-133 -311l127 -307q43 -103 58 -154h6q9 24 31 78t28 69z" />
    <glyph glyph-name="uni2610" unicode="&#x2610;" horiz-adv-x="1599" 
d="M219 1356h1249v-1288l-90 -91h-1247v1297zM215 1239v-1169h1124v1169h-1124z" />
    <glyph glyph-name="uni2611" unicode="&#x2611;" horiz-adv-x="1599" 
d="M219 1356h1249v-1288l-90 -91h-1247v1297zM215 1239v-1169h1124v1169h-1124zM1018 1139l209 -2q-278 -413 -541 -981h-61q-154 199 -265 446l179 125q56 -193 112 -287q195 434 367 699z" />
    <glyph glyph-name="uni2713" unicode="&#x2713;" horiz-adv-x="1144" 
d="M901 1376h227q-112 -184 -243 -443.5t-199 -408.5t-222 -493q-25 -56 -38 -84h-70q-166 233 -317 608l205 127q63 -229 151 -399q274 706 506 1093z" />
    <glyph glyph-name="uni2752" unicode="&#x2752;" horiz-adv-x="854" 
d="M98 733l148 148h510v-537l-140 -147h-516zM231 672v-338h320v338h-320z" />
    <glyph glyph-name="fi" unicode="&#xfb01;" horiz-adv-x="888" 
d="M369 0h-263v846h-98v233h98v70q0 63 12.5 112.5t42 91.5t84 64.5t132.5 22.5q60 0 102 -10v-216q-21 3 -37 3q-41 0 -57 -20t-16 -67v-51h118v-233h-118v-846zM557 0v1079h264v-1079h-264zM559 1188v239h262v-239h-262z" />
    <glyph glyph-name="fl" unicode="&#xfb02;" horiz-adv-x="886" 
d="M369 0h-263v846h-98v233h98v70q0 63 12.5 112.5t42 91.5t84 64.5t132.5 22.5q60 0 102 -10v-216q-21 3 -37 3q-41 0 -57 -20t-16 -67v-51h118v-233h-118v-846zM821 0h-264v1427h264v-1427z" />
    <glyph glyph-name="uni00470303" horiz-adv-x="829" 
d="M758 780v-780h-197q-7 30 -12 100q-57 -120 -217 -120q-77 0 -131.5 27.5t-84.5 79.5t-43.5 118.5t-13.5 154.5v644q0 83 18.5 149.5t58 120t109 83t163.5 29.5q346 0 346 -366v-62h-265v76q0 61 -15.5 94t-65.5 33q-44 0 -63 -32t-19 -101v-700q0 -127 82 -127
q48 0 67 37t19 124v197h-91v221h355zM287 1458h-158v43q0 108 41.5 149.5t112.5 41.5q56 0 133.5 -28t93.5 -28q33 0 33 37v19h153v-35q0 -115 -36.5 -159t-112.5 -44q-50 0 -129 27.5t-101 27.5q-30 0 -30 -36v-15z" />
    <glyph glyph-name="uni00670303" horiz-adv-x="811" 
d="M735 780v-692q0 -63 -2 -107t-10.5 -95.5t-23 -85.5t-41 -68.5t-63.5 -54t-91.5 -32t-124.5 -12.5q-91 0 -156 24.5t-100 67t-50.5 91t-15.5 106.5v6h262v-4q0 -18 4 -34t22 -32t48 -16q51 0 66.5 37.5t15.5 132.5v121q-46 -104 -182 -104q-57 0 -99.5 17.5t-68.5 46.5
t-42 73t-22 90t-6 104v412q0 48 6.5 90.5t24 86.5t45 75.5t73.5 51.5t105 20q145 0 180 -111q4 66 11 94h239q-4 -140 -4 -299zM317 752v-371q0 -65 17.5 -96t56.5 -31q46 0 63 34t17 115v336q0 29 -2 48.5t-9 39t-22 29.5t-39 10q-82 0 -82 -114zM303 1180h-153v63
q0 178 141 178q53 0 125.5 -32.5t87.5 -32.5q7 0 10.5 2t6.5 12.5t3 30.5v16h148v-55q0 -103 -35 -145.5t-98 -42.5q-47 0 -120.5 33.5t-94.5 33.5q-11 0 -16 -8.5t-5 -34.5v-18z" />
    <glyph glyph-name="zero.slash" 
d="M395 1348q168 0 252 -95.5t84 -257.5v-643q0 -370 -346 -370q-330 0 -330 368v633q0 171 88 268t252 97zM393 1135q-84 0 -84 -115v-449l166 443v10q0 111 -82 111zM393 195q82 0 82 120v469l-166 -440v-33q0 -116 84 -116z" />
    <glyph glyph-name="zero.slashtab" 
d="M395 1348q168 0 252 -95.5t84 -257.5v-643q0 -370 -346 -370q-330 0 -330 368v633q0 171 88 268t252 97zM393 1135q-84 0 -84 -115v-449l166 443v10q0 111 -82 111zM393 195q82 0 82 120v469l-166 -440v-33q0 -116 84 -116z" />
    <glyph glyph-name="zero.tab" 
d="M395 1348q164 0 250 -94.5t86 -266.5v-631q0 -374 -346 -374q-330 0 -330 374v619q0 180 87.5 276.5t252.5 96.5zM393 1124q-80 0 -80 -116v-682q0 -61 18.5 -91t61.5 -30q78 0 78 125v682q0 112 -78 112z" />
    <glyph glyph-name="one.tab" 
d="M698 0h-594v219h166v819q-100 5 -153 13v184q143 8 213 96h205v-1112h163v-219z" />
    <glyph glyph-name="two.tab" 
d="M692 0h-629v31q0 94 15.5 175.5t50 157.5t68 132t88.5 137q95 139 116 180q39 78 39 182q0 79 -13.5 110.5t-55.5 31.5q-39 0 -56.5 -32t-17.5 -101v-78h-236v71q0 351 322 351q72 0 126.5 -17.5t90 -48.5t58 -76.5t31.5 -97t9 -115.5q0 -61 -9.5 -114t-21 -89.5
t-43 -89.5t-51 -81.5t-69.5 -98.5q-140 -186 -152 -297h371z" />
    <glyph glyph-name="three.tab" 
d="M297 963h-231v59q0 326 313 326q160 0 235.5 -83.5t75.5 -236.5v-49q0 -202 -137 -256v-4q164 -59 164 -264v-107q0 -177 -79 -270.5t-261 -93.5q-326 0 -326 329v52h240v-56q0 -119 84 -119q82 0 82 127v138q0 82 -29.5 115.5t-105.5 33.5h-72v215h76q64 0 89 28.5
t25 104.5v78q0 55 -14 85t-55 30q-74 0 -74 -109v-73z" />
    <glyph glyph-name="four.tab" 
d="M653 0h-241v307h-367v201l242 821h366v-811h88l-18 -211h-70v-307zM279 518h133v152q0 84 4.5 242.5t5.5 189.5h-6q-105 -458 -137 -584z" />
    <glyph glyph-name="five.tab" 
d="M700 1329l-24 -227h-324q-12 -187 -20 -266q21 28 64.5 43.5t95.5 15.5q126 0 182.5 -86t56.5 -250v-162q0 -91 -15.5 -161t-52 -128.5t-106 -90t-168.5 -31.5q-336 0 -336 348v39h254v-68q0 -115 76 -115q46 0 63 35.5t17 124.5v191q0 76 -17 106.5t-61 30.5
q-41 0 -59.5 -27t-24.5 -94l-233 21q27 303 55 751h577z" />
    <glyph glyph-name="six.tab" 
d="M713 1001h-244v23q0 113 -74 113q-45 0 -62.5 -35t-17.5 -115v-182q62 86 183 86q122 0 178.5 -85.5t56.5 -227.5v-228q0 -366 -340 -366q-336 0 -336 370v586q0 90 15.5 159.5t52.5 128t105 89.5t165 31q318 0 318 -334v-13zM395 190q78 0 78 125v230q0 63 -17 93
t-61 30q-42 0 -61 -28.5t-19 -96.5v-228q0 -61 17 -93t63 -32z" />
    <glyph glyph-name="seven.tab" 
d="M78 1329h627v-203q-238 -456 -306 -1126h-270q28 301 117 599.5t200 502.5h-368v227z" />
    <glyph glyph-name="eight.tab" 
d="M387 -18q-334 0 -334 344v116q0 57 10.5 101t31.5 74.5t42.5 50.5t52.5 39q-61 39 -90.5 97t-29.5 167v51q0 159 84.5 241.5t240.5 82.5q148 0 233 -81.5t85 -246.5v-49q0 -114 -29.5 -170t-87.5 -92q137 -72 137 -265v-102q0 -189 -86 -273.5t-260 -84.5zM391 1133
q-76 0 -76 -105v-108q0 -52 20.5 -79.5t57.5 -27.5q76 0 76 111v106q0 103 -78 103zM391 197q41 0 61.5 25.5t20.5 84.5v178q0 111 -82 111q-80 0 -80 -109v-182q0 -108 80 -108z" />
    <glyph glyph-name="nine.tab" 
d="M63 324h254v-27q0 -104 74 -104q42 0 58 41t16 137v194q-53 -73 -170 -73q-122 0 -182 83.5t-60 231.5v197q0 160 86 252t246 92q166 0 252 -91t86 -264v-571q0 -75 -7 -134t-28.5 -119t-58 -99t-98 -63.5t-144.5 -24.5q-324 0 -324 329v13zM387 1139q-78 0 -78 -115
v-207q0 -110 78 -110q43 0 60.5 32.5t17.5 104.5v182q0 57 -17.5 85t-60.5 28z" />
    <glyph glyph-name="zero.slashcap" horiz-adv-x="806" 
d="M403 1384q172 0 259.5 -99.5t87.5 -266.5v-647q0 -68 -10 -123.5t-35 -106t-64.5 -85t-101.5 -54.5t-144 -20q-79 0 -138.5 20.5t-97 54.5t-61 85t-32.5 105.5t-9 121.5v647q0 174 89 271t257 97zM401 1169q-48 0 -71 -32.5t-23 -89.5v-472l189 486q-3 52 -27 80t-68 28z
M401 199q48 0 71.5 35.5t23.5 95.5v504l-189 -490v-18q0 -55 24.5 -91t69.5 -36z" />
    <glyph glyph-name="zero.cap" horiz-adv-x="806" 
d="M403 1384q172 0 259.5 -99t87.5 -263v-653q0 -85 -17 -151t-55.5 -121.5t-110 -85t-172.5 -29.5q-338 0 -338 385v653q0 171 89 267.5t257 96.5zM401 1165q-82 0 -82 -118v-723q0 -121 82 -121q45 0 63.5 32t18.5 93v723q0 114 -82 114z" />
    <glyph glyph-name="one.cap" horiz-adv-x="493" 
d="M399 0h-260v1085q-55 0 -116 7v188q122 12 180 90h196v-1370z" />
    <glyph glyph-name="two.cap" horiz-adv-x="739" 
d="M684 0h-647v23q1 190 49.5 317t173.5 307q106 157 134 222t28 165q0 74 -12.5 105.5t-55.5 31.5q-41 0 -58 -30.5t-17 -93.5v-89h-244v80q0 346 330 346q92 0 157 -27t100 -78t50.5 -111.5t15.5 -139.5q0 -62 -7.5 -111t-17.5 -85t-40 -89t-53.5 -88.5t-80.5 -117.5
q-71 -103 -108.5 -174.5t-42.5 -137.5h379z" />
    <glyph glyph-name="three.cap" horiz-adv-x="784" 
d="M297 991h-240v51q0 342 328 342q159 0 240.5 -82.5t81.5 -238.5v-49q0 -110 -35.5 -170t-102.5 -88v-2q164 -60 164 -283v-129q0 -82 -17 -145t-56 -113t-109 -76t-168 -26q-93 0 -159 24.5t-103.5 72t-54.5 109t-17 142.5v61h244v-82q0 -116 88 -116q50 0 67 31.5
t17 101.5v149q0 86 -26.5 117t-108.5 31h-70v221h68q69 0 95 27.5t26 103.5v92q0 57 -16 84t-58 27q-78 0 -78 -119v-68z" />
    <glyph glyph-name="four.cap" horiz-adv-x="772" 
d="M659 0h-245v317h-381v205l252 844h374v-831h84l-16 -218h-68v-317zM274 535h140v182q0 63 12 432h-6q-94 -420 -146 -614z" />
    <glyph glyph-name="five.cap" horiz-adv-x="792" 
d="M715 1366l-27 -231h-330q-3 -41 -10.5 -142.5t-9.5 -134.5q51 60 162 60q133 0 190.5 -83t57.5 -253v-207q0 -91 -16.5 -159t-55 -122.5t-110 -83t-173.5 -28.5q-338 0 -338 358v41h258v-70q0 -118 82 -118q50 0 68 33t18 106v239q0 66 -20 95.5t-64 29.5q-42 0 -63 -27
t-27 -89l-244 18q29 239 60 768h592z" />
    <glyph glyph-name="six.cap" horiz-adv-x="798" 
d="M723 1034h-250v31q0 56 -16 82.5t-58 26.5q-45 0 -62.5 -38t-17.5 -130v-181q65 93 193 93q238 0 238 -320v-236q0 -380 -349 -380q-344 0 -344 385v598q0 70 7 125t28.5 112t58 95t100 62.5t148.5 24.5q62 0 111.5 -12t82.5 -30.5t58 -46.5t38.5 -55.5t21.5 -62
t10 -60.5t2 -56v-27zM403 193q80 0 80 118v264q0 115 -77 115q-87 0 -87 -121v-258q0 -118 84 -118z" />
    <glyph glyph-name="seven.cap" horiz-adv-x="665" 
d="M10 1366h635v-207q-249 -489 -305 -1159h-277q22 302 110.5 605.5t203.5 529.5h-367v231z" />
    <glyph glyph-name="eight.cap" horiz-adv-x="804" 
d="M393 -18q-158 0 -249 84.5t-91 271.5v106q0 199 133 281q-58 42 -87 101.5t-29 174.5v46q0 168 87.5 251.5t245.5 83.5q154 0 241 -80.5t87 -254.5v-46q0 -121 -29.5 -179t-85.5 -97q64 -37 100 -101t36 -180v-98q0 -190 -88.5 -277t-270.5 -87zM399 1169
q-43 0 -61.5 -27t-18.5 -81v-119q0 -108 80 -108q78 0 78 108v121q0 52 -18 79t-60 27zM399 199q84 0 84 116v189q0 110 -86 110q-82 0 -82 -110v-189q0 -116 84 -116z" />
    <glyph glyph-name="nine.cap" horiz-adv-x="794" 
d="M57 330h260v-29q0 -106 74 -106q48 0 63 44t15 158v205q-54 -78 -172 -78q-121 0 -184.5 83.5t-63.5 230.5v200q0 163 88.5 254.5t251.5 91.5q169 0 258.5 -90t89.5 -272v-569q0 -92 -8 -159t-30.5 -129t-61.5 -100t-102.5 -60.5t-151.5 -22.5q-81 0 -141 21t-94.5 53.5
t-55.5 80.5t-28 93t-7 100zM391 1176q-44 0 -62 -28.5t-18 -84.5v-199q0 -60 17.5 -89.5t60.5 -29.5q45 0 62.5 30.5t17.5 98.5v193q0 109 -78 109z" />
    <glyph glyph-name="period.sups" horiz-adv-x="272" 
d="M233 889h-194v213h194v-213z" />
    <glyph glyph-name="comma.sups" horiz-adv-x="311" 
d="M203 721h-174q54 170 51 381h192q0 -117 -19.5 -219.5t-49.5 -161.5z" />
    <glyph glyph-name="dollar.sups" horiz-adv-x="567" 
d="M354 817h-141v80q-92 14 -138 74t-46 147h180q3 -88 76 -88q27 0 41 14t14 35q0 30 -16.5 47t-67.5 33q-122 40 -168.5 92.5t-46.5 134.5q0 83 45 135t127 64v64h141v-68q86 -19 125 -75t37 -132h-176q-2 38 -14 59t-47 21q-54 0 -54 -51q0 -26 19.5 -41.5t74.5 -32.5
q119 -39 166 -88t47 -139q0 -178 -178 -205v-80z" />
    <glyph glyph-name="cent.sups" horiz-adv-x="546" 
d="M334 1151h172q0 -33 -7 -63t-22.5 -60.5t-47 -52.5t-75.5 -31v-84h-139v84q-164 35 -164 248v92q0 206 164 238v73h139v-71q154 -31 154 -209h-174q0 44 -10.5 60t-38.5 16q-49 0 -49 -91v-129q0 -54 12 -75t39 -21q44 0 47 76z" />
    <glyph glyph-name="hyphen.sups" horiz-adv-x="389" 
d="M49 1323h291v-164h-291v164z" />
    <glyph glyph-name="period.subs" horiz-adv-x="272" 
d="M233 -270h-194v213h194v-213z" />
    <glyph glyph-name="comma.subs" horiz-adv-x="311" 
d="M203 -438h-174q54 170 51 381h192q0 -117 -19.5 -219.5t-49.5 -161.5z" />
    <glyph glyph-name="dollar.subs" horiz-adv-x="567" 
d="M354 -342h-141v80q-92 14 -138 74t-46 147h180q3 -88 76 -88q27 0 41 14t14 35q0 30 -16.5 47t-67.5 33q-122 40 -168.5 92.5t-46.5 134.5q0 83 45 135t127 64v63h141v-67q86 -19 125 -75t37 -132h-176q-2 38 -14 59t-47 21q-54 0 -54 -51q0 -26 19.5 -41.5t74.5 -32.5
q119 -39 166 -88t47 -139q0 -178 -178 -205v-80z" />
    <glyph glyph-name="cent.subs" horiz-adv-x="546" 
d="M334 -8h172q0 -33 -7 -63t-22.5 -60.5t-47 -52.5t-75.5 -31v-84h-139v84q-164 35 -164 248v92q0 205 164 237v74h139v-71q154 -31 154 -209h-174q0 44 -10.5 59.5t-38.5 15.5q-49 0 -49 -90v-129q0 -54 12 -75t39 -21q44 0 47 76z" />
    <glyph glyph-name="hyphen.subs" horiz-adv-x="389" 
d="M49 164h291v-164h-291v164z" />
    <glyph glyph-name="zero.numr" horiz-adv-x="567" 
d="M285 1337q117 0 177 -64t60 -186v-215q0 -258 -241 -258q-121 0 -178.5 67.5t-57.5 184.5v226q0 113 61 179t179 66zM283 1186q-50 0 -50 -74v-266q0 -76 52 -76q27 0 38 19t11 59v264q0 37 -11 55.5t-40 18.5z" />
    <glyph glyph-name="one.numr" horiz-adv-x="350" 
d="M291 625h-187v510q-43 0 -73 6v135q81 6 123 57h137v-708z" />
    <glyph glyph-name="two.numr" horiz-adv-x="538" 
d="M487 625h-448v14q-2 96 33.5 171t136.5 169q71 69 83 87q15 24 15 58q0 21 -2.5 35t-12.5 25.5t-28 11.5q-30 0 -41.5 -20.5t-11.5 -59.5v-37h-178v21q0 237 239 237q117 0 172.5 -58.5t55.5 -158.5q0 -65 -27.5 -107t-101.5 -110q-6 -5 -23.5 -21t-23.5 -21.5t-19 -19
t-19 -21.5t-13.5 -20t-12.5 -24h250z" />
    <glyph glyph-name="three.numr" horiz-adv-x="544" 
d="M29 842h180v-11q0 -73 57 -73q58 0 58 80q0 47 -18.5 66.5t-61.5 19.5h-56v143h54q40 0 54.5 16.5t14.5 51.5q0 63 -47 63q-51 0 -51 -74v-4h-176v4q0 92 55 152.5t176 60.5q119 0 172.5 -54t53.5 -138q0 -101 -91 -141q21 -9 36.5 -18.5t34.5 -28t29.5 -49t10.5 -70.5
q0 -107 -64.5 -165.5t-183.5 -58.5q-66 0 -114.5 20t-74 53.5t-37 69.5t-11.5 77v8z" />
    <glyph glyph-name="four.numr" horiz-adv-x="569" 
d="M471 625h-172v157h-262v144l196 403h238v-399h70l-13 -148h-57v-157zM205 930h94v63q0 135 4 174h-4q-29 -93 -94 -237z" />
    <glyph glyph-name="five.numr" horiz-adv-x="569" 
d="M502 1329l-21 -153h-227q-10 -60 -10 -99q34 27 102 27q182 0 182 -232q0 -258 -245 -258q-121 0 -180.5 61t-61.5 163h186q0 -78 56 -78q32 0 44.5 26.5t12.5 81.5q0 57 -13.5 76t-45.5 19q-47 0 -62 -52l-168 13q24 172 41 405h410z" />
    <glyph glyph-name="six.numr" horiz-adv-x="567" 
d="M520 1141h-180q-1 17 -4.5 28t-15 20t-31.5 9q-31 0 -43.5 -26.5t-12.5 -86.5v-28q43 43 123 43q179 0 179 -221q0 -265 -246 -265q-132 0 -188 79.5t-56 226.5v108q0 150 57 229.5t191 79.5q116 0 170.5 -55.5t56.5 -140.5zM293 762q55 0 55 104q0 51 -11.5 73t-45.5 22
q-30 0 -44 -22.5t-14 -76.5q0 -49 13 -74.5t47 -25.5z" />
    <glyph glyph-name="seven.numr" horiz-adv-x="499" 
d="M12 1329h455v-145q-142 -202 -193 -559h-208q16 152 79.5 306.5t126.5 231.5h-260v166z" />
    <glyph glyph-name="eight.numr" horiz-adv-x="565" 
d="M274 614q-105 0 -170 54.5t-65 156.5q0 62 25.5 98.5t68.5 63.5q-78 54 -78 152q0 94 58.5 146t171.5 52q103 0 163 -51t60 -149t-78 -148q96 -45 96 -164q0 -103 -66 -157t-186 -54zM283 1196q-25 0 -38.5 -15.5t-13.5 -43.5v-13q0 -65 52 -65q49 0 49 63v13
q0 61 -49 61zM285 760q53 0 53 65v23q0 70 -55 70q-56 0 -56 -70v-19q0 -69 58 -69z" />
    <glyph glyph-name="nine.numr" horiz-adv-x="571" 
d="M49 817h187q2 -31 12 -45t37 -14q32 0 42.5 29t10.5 92v39q-40 -50 -121 -50q-82 0 -130 52.5t-48 158.5v19q0 120 68.5 179.5t171.5 59.5q247 0 247 -280v-146q0 -156 -58.5 -226.5t-191.5 -70.5q-113 0 -169 55t-58 148zM283 1190q-56 0 -56 -76v-29q0 -75 56 -75
q55 0 55 80v26q0 74 -55 74z" />
    <glyph glyph-name="parenleft.numr" horiz-adv-x="374" 
d="M182 1479h174q-118 -238 -118 -512q0 -278 118 -516h-174q-49 75 -87.5 208t-37.5 308q0 294 125 512z" />
    <glyph glyph-name="parenright.numr" horiz-adv-x="374" 
d="M190 451h-172q119 249 119 512q0 162 -33 283.5t-86 232.5h172q48 -75 87.5 -207.5t39.5 -306.5q0 -287 -127 -514z" />
    <glyph glyph-name="period.numr" horiz-adv-x="272" 
d="M233 623h-194v213h194v-213z" />
    <glyph glyph-name="comma.numr" horiz-adv-x="311" 
d="M203 455h-174q54 170 51 381h192q0 -117 -19.5 -219.5t-49.5 -161.5z" />
    <glyph glyph-name="dollar.numr" horiz-adv-x="567" 
d="M354 551h-141v80q-92 14 -138 74t-46 147h180q3 -88 76 -88q27 0 41 14t14 35q0 30 -16.5 47t-67.5 33q-122 40 -168.5 92.5t-46.5 134.5q0 83 45 135t127 64v63h141v-67q86 -19 125 -75t37 -132h-176q-2 38 -14 59t-47 21q-54 0 -54 -51q0 -26 19.5 -41.5t74.5 -32.5
q119 -39 166 -88t47 -139q0 -178 -178 -205v-80z" />
    <glyph glyph-name="cent.numr" horiz-adv-x="546" 
d="M334 885h172q0 -33 -7 -63t-22.5 -60.5t-47 -52.5t-75.5 -31v-84h-139v84q-164 35 -164 248v92q0 205 164 237v74h139v-72q154 -31 154 -208h-174q0 44 -10.5 59.5t-38.5 15.5q-49 0 -49 -90v-129q0 -54 12 -75t39 -21q44 0 47 76z" />
    <glyph glyph-name="hyphen.numr" horiz-adv-x="389" 
d="M49 1057h291v-164h-291v164z" />
    <glyph glyph-name="zero.dnom" horiz-adv-x="567" 
d="M285 713q117 0 177 -64t60 -186v-215q0 -258 -241 -258q-121 0 -178.5 67.5t-57.5 184.5v225q0 113 61 179.5t179 66.5zM283 561q-50 0 -50 -74v-266q0 -76 52 -76q27 0 38 19t11 59v264q0 37 -11 55.5t-40 18.5z" />
    </font>
</defs>
</svg>
